<?xml version="1.0" encoding="utf-8"?>
<!-- Generator: Adobe Illustrator 23.0.2, SVG Export Plug-In . SVG Version: 6.00 Build 0)  -->
<svg version="1.1" id="Camada_1" xmlns="http://www.w3.org/2000/svg" xmlns:xlink="http://www.w3.org/1999/xlink" x="0px" y="0px"
	 viewBox="0 0 281.2 421.7" style="enable-background:new 0 0 281.2 421.7;" xml:space="preserve">
<style type="text/css">
	.st0{fill:#D59F82;}
	.st1{fill:#B88469;}
	.st2{fill:#EFB392;}
	.st3{fill:#242424;}
	.st4{fill:#101010;}
	.st5{fill:#343434;}
	.st6{fill:#EDECEB;}
	.st7{fill:#FFFDFC;}
	.st8{fill:#7D623A;}
	.st9{fill:#624922;}
	.st10{fill:#181007;}
	.st11{fill:#A68250;}
	.st12{fill:#DAD9D8;}
	.st13{fill:#B3B2B0;}
	.st14{opacity:0.8;}
	.st15{fill:#BEBCBB;}
	.st16{fill:#303030;}
	.st17{fill:#191919;}
</style>
<g>
	<g>
		<g>
			<g>
				<g>
					<path class="st0" d="M116.9,385c-0.3,1.9-1.2,3.7-2.6,5.1c-0.5,0.5-1,0.9-1.6,1.2c-1.1,0.7-2.4,1.1-3.8,1.1s-2.8-0.3-4.1-1
						c-0.9-0.5-1.7-1.1-2.3-1.8c-1.6-1.8-2.4-4.1-2.5-6.4c-0.1-1.4,0.1-2.8,0.3-4.3c0.5-4.4,0.6-8.9,0.4-13.3l-0.1-0.5
						c1.5-0.6,3-1.1,4.6-1.4c2.5-0.5,5.1-0.5,7.6,0c0.5,0.1,0.9,0.2,1.4,0.3c0.8,0.2,1.7,0.5,2.1,1.2c0.4,0.6,0.3,1.3,0.3,2
						c-0.2,3.9-0.1,7.7,0.2,11.6C117,380.8,117.3,382.9,116.9,385z"/>
				</g>
				<g>
					<path class="st1" d="M106.7,385.4c-0.3,2.1-0.9,4.1-1.9,6c-0.9-0.5-1.7-1.1-2.3-1.8c-1.6-1.8-2.4-4.1-2.5-6.4
						c-0.1-1.4,0.1-2.8,0.3-4.3c0.5-4.4,0.6-8.9,0.4-13.3l-0.1-0.5c1.5-0.6,3-1.1,4.6-1.4c0.1,3,0.6,6.1,1,9.1
						C106.8,376.9,107.4,381.2,106.7,385.4z"/>
				</g>
				<g>
					<path class="st2" d="M116.9,385c-0.3,1.9-1.2,3.7-2.6,5.1c-0.5,0.5-1,0.9-1.6,1.2c0.5-3.7,1.4-7.4,1.8-11.2
						c0.6-5.6,0-11.3-1.7-16.6c0.5,0.1,0.9,0.2,1.4,0.3c0.8,0.2,1.7,0.5,2.1,1.2c0.4,0.6,0.3,1.3,0.3,2c-0.2,3.9-0.1,7.7,0.2,11.6
						C117,380.8,117.3,382.9,116.9,385z"/>
				</g>
			</g>
			<g>
				<g>
					<path class="st3" d="M139.3,216.9c-1.3,8.9-2.5,17.9-5.6,26.4c-2.3,6.2-5.9,6.8-7.6,13.2c-1.6,6.1-1.8,12.5-1.6,18.7
						c0.2,5.7,0.8,11.5-0.8,17c-0.8,3.1-2.3,6-2.9,9.2c-1.7,8.4,3,16.9,3.2,25.5c0.2,7.3-2.8,14.4-4.5,21.5
						c-0.2,0.7-0.3,1.5-0.5,2.2c-1,4.6-1.4,9.4-1.3,14.1c0,1.2,0.1,2.3,0.2,3.5c0,1-0.5,1.3-1.5,1.5c-0.5,0.1-1.1,0.2-1.6,0.3
						c-2.6,0.4-5.4,0.3-8,0.2c-0.1,0-0.3,0-0.6,0c-1.7,0-5.9-0.2-5.9-1.3c-2.2-14.3-4.5-28.7-4.2-43.1c0.1-5.1,0.5-10.1,0.6-15.2
						c0.2-9.6-0.5-19.2-2.3-28.7c-1-5.4-2.3-10.6-3.1-16c-4.2-27.7,4.6-55.5,6.4-83.3c0.6-8.9,1-19,8-25c1.6-2.4,4.4-3.4,7.7-3.4
						c11.7,0.2,29.8,13,24.4,21.5l1.1,31L139.3,216.9z"/>
				</g>
				<g>
					<path class="st4" d="M121.1,184c-1.2,2.7-3.3,4.8-5,7.2c-7.9,11.3-5.5,26.1-7.2,39.6c-1.5,11.1-6,21.8-6.8,33
						c-1,13.8,3.6,27.5,3.2,41.4c-0.2,6-1.4,11.9-1.7,17.9c-0.9,15.7,3.7,31.5,2.6,47.2c-1.7,0-5.9-0.2-5.9-1.3
						c-2.2-14.3-4.5-28.7-4.2-43.1c0.1-5.1,0.5-10.1,0.6-15.2c0.2-9.6-0.5-19.2-2.3-28.7c-1-5.4-2.3-10.6-3.1-16
						c-4.2-27.7,4.6-55.5,6.4-83.3c0.6-8.9,1-19,8-25c1.6-2.4,4.4-3.4,7.7-3.4c4.1,5.5,7,11.9,8.3,18.6
						C122.5,176.6,122.7,180.5,121.1,184z"/>
				</g>
				<g>
					<path class="st5" d="M139.3,216.9c-1.3,8.9-2.5,17.9-5.6,26.4c-2.3,6.2-5.9,6.8-7.6,13.2c-1.6,6.1-1.8,12.5-1.6,18.7
						c0.2,5.7,0.8,11.5-0.8,17c-0.8,3.1-2.3,6-2.9,9.2c-1.7,8.4,3,16.9,3.2,25.5c0.2,7.3-2.8,14.4-4.5,21.5
						c-0.2,0.7-0.3,1.5-0.5,2.2c-1,4.6-1.4,9.4-1.3,14.1c0,1.2,0.1,2.3,0.2,3.5c0,1-0.5,1.3-1.5,1.5c-0.5,0.1-1.1,0.2-1.6,0.3
						c-0.5-9.9-0.9-19.9,0.8-29.6c0.8-4.5,2.1-9,2.1-13.6c0-5-1.5-10-2.4-14.9c-3.8-21.3,4.7-42.6,7.5-64c1-7.3,1.3-14.7,3.7-21.7
						c2.7-7.9,8.1-9.5,11.6-17.1c0.3-0.8,0.7-1.5,1-2.3L139.3,216.9z"/>
				</g>
			</g>
			<g>
				<path class="st2" d="M131.1,362.4c0.1,0.2,0.2,0.4,0.2,0.6l0,0L131.1,362.4z"/>
			</g>
			<g>
				<g>
					<g>
						<path class="st6" d="M125.2,399.2c0,0.3,0,0.6-0.1,0.8c-0.2,0.9-0.7,1.8-1.4,2.5c-2.8,3.1-7.4,4.1-11.6,4s-8.4-1-12.6-0.6
							c-5.9,0.5-11.3,3.4-17.2,4.2c-3.7,0.5-7.5,0.2-11.1-0.5c-1.4-0.3-2.8-0.7-4-1.4c-1.2-0.8-2.2-2-2.3-3.4c0-0.5,0-0.9,0.2-1.4
							c0.3-0.7,0.7-1.3,1.4-1.6c2.7,0.3,5.4,0.5,8.1,0.2c1.9-0.2,3.8-0.7,5.6-1.1c10.1-2.5,20.2-4.9,30.3-7.4
							c2.7-0.7,5.6-1.3,8.4-0.7c1.8,0.4,3.4,1.4,4.6,2.8C124.5,396.6,125.1,397.9,125.2,399.2z"/>
					</g>
					<path class="st7" d="M125.2,399.2c-2.8,1-5.9,1.2-8.9,1.4c-8.6,0.6-17.2,1.5-25.4,4.2c-2.3,0.7-4.5,1.6-6.8,2.2
						c-3.4,0.8-6.9,0.9-10.3,0.2c-0.2,0-0.4-0.1-0.6-0.1c-1.6-0.4-3.2-0.9-4.7-1.7c-1.2-0.6-2.2-1.3-3.2-2.1
						c0.3-0.7,0.7-1.3,1.4-1.6c2.7,0.3,5.4,0.5,8.1,0.2c1.9-0.2,3.8-0.7,5.6-1.1c10.1-2.5,20.2-4.9,30.3-7.4
						c2.7-0.7,5.6-1.3,8.4-0.7c1.8,0.4,3.4,1.4,4.6,2.8C124.5,396.6,125.1,397.9,125.2,399.2z"/>
				</g>
				<g>
					<path class="st3" d="M123.6,396c-0.5,0.6-1.1,1.2-1.6,1.8c-0.3,0.5-0.9,0.7-1.5,0.9c-1.2,0.5-2.6,0.7-3.9,0.8
						c-1.4,0.1-2.7,0.1-4.1,0.1c-4.3-0.1-8.6,0-12.7,1.1c-2.6,0.7-5.1,1.7-7.7,2.6c-6.2,2.3-12.9,3.8-19.5,3.1
						c-1.9-0.2-3.9-0.6-5.5-1.7c-0.9-0.6-1.6-1.4-1.7-2.5c0-1.2,1-2.2,2-2.9c2.9-2.1,6.4-3.2,9.9-4.3c3.8-1.2,7.6-2.4,10.6-4.9
						c2.6-2.1,4.6-5,7.5-6.6c0.2-0.1,0.4-0.2,0.6-0.3c2-0.9,4.4-1.1,6.5-0.4c0.5,0.1,0.9,0.3,1.2,0.6c0.2,0.2,0.4,0.3,0.6,0.4
						c0.9,0.6,1.8,1.2,2.8,1.7c0.9,0.6,2,1.2,3.1,1.1c1.4-0.2,2.3-1.4,3.1-2.5c1.2-1.6,2.3-3.3,3.5-4.9c-0.1,1,0.4,2,1.1,2.7
						s1.6,1.3,2.2,2c1.3,1.5,1.8,3.6,2.1,5.6C122.8,391.8,123.2,393.9,123.6,396z"/>
				</g>
				<g>
					<path class="st4" d="M95.7,385.4c-0.1,0.8-0.6,1.5-1,2.1c-1.1,1.5-2.6,2.7-4.1,3.8c-1.9,1.4-4,2.8-6.3,3.5
						c-2.2,0.8-4.7,1-7,0.2c3.8-1.2,7.6-2.4,10.6-4.9c2.6-2.1,4.6-5,7.5-6.6C95.7,384.2,95.8,384.8,95.7,385.4z"/>
				</g>
				<g>
					<g>
						<path class="st4" d="M102.6,384c-1,1.8-3.2,2.5-5.2,2.7c-1.9,0.2-3.9,0-5.8,0.4c2.1-3.3,3.4-7,3.8-10.9
							c0.1-0.6,0.7-0.9,1.2-0.6c1.3,0.7,2.5,1.6,3.2,2.8c0.9,1.4,1.1,3.3,2.4,4.3c0.2,0.1,0.4,0.3,0.5,0.5
							C102.9,383.5,102.8,383.8,102.6,384z"/>
					</g>
				</g>
			</g>
		</g>
		<g>
			<g>
				<g>
					<path class="st0" d="M189,384.9c0.6,1.9,1.7,3.6,3.3,4.9c0.5,0.4,1.1,0.8,1.7,1.1c1.2,0.6,2.5,0.9,3.8,0.8
						c1.4-0.1,2.7-0.5,3.8-1.3c0.8-0.5,1.4-1.2,2-2c1.3-1.9,1.7-4.3,1.4-6.6c-0.2-1.4-0.5-2.8-0.9-4.2c-1.1-4.4-1.9-8.8-2.3-13.3
						v-0.6c-1.5-0.5-3.1-0.9-4.6-1c-2.5-0.3-5-0.1-7.3,0.5c-0.4,0.1-0.9,0.2-1.3,0.4c-0.8,0.3-1.6,0.6-1.9,1.3c-0.3,0.6-0.1,1.4,0,2
						c0.8,3.8,1.3,7.7,1.5,11.6C188.3,380.6,188.3,382.8,189,384.9z"/>
				</g>
				<g>
					<path class="st1" d="M198.9,384.5c0.6,2,1.5,4,2.7,5.8c0.8-0.5,1.4-1.2,2-2c1.3-1.9,1.7-4.3,1.4-6.6c-0.2-1.4-0.5-2.8-0.9-4.2
						c-1.1-4.4-1.9-8.8-2.3-13.3v-0.6c-1.5-0.5-3.1-0.9-4.6-1c0.3,3,0.3,6.1,0.4,9.2C197.6,376.1,197.7,380.4,198.9,384.5z"/>
				</g>
				<g>
					<path class="st2" d="M189,384.9c0.6,1.9,1.7,3.6,3.3,4.9c0.5,0.4,1.1,0.8,1.7,1.1c-1-3.7-2.5-7.3-3.4-11
						c-1.4-5.5-1.7-11.2-0.7-16.6c-0.4,0.1-0.9,0.2-1.3,0.4c-0.8,0.3-1.6,0.6-1.9,1.3c-0.3,0.6-0.1,1.4,0,2
						c0.8,3.8,1.3,7.7,1.5,11.6C188.3,380.6,188.3,382.8,189,384.9z"/>
				</g>
			</g>
			<g>
				<g>
					<path class="st3" d="M140.3,219.8c2.7,8.8,5.3,17.6,9.8,25.8c3.3,6,7.1,6.4,9.8,12.6c2.6,6,3.7,12.3,4.4,18.6
						c0.6,5.7,0.9,11.5,3.3,16.9c1.4,3,3.3,5.8,4.5,8.9c3,8.3-0.6,17,0.4,25.6c0.9,7.3,5.1,14.1,7.9,21.1c0.3,0.7,0.6,1.4,0.9,2.2
						c1.7,4.6,2.9,9.2,3.5,14c0.1,1.2,0.2,2.3,0.3,3.5c0.1,1,0.7,1.2,1.8,1.4c0.6,0.1,1.2,0.1,1.8,0.2c2.8,0.2,5.7-0.1,8.4-0.4
						c0.1,0,0.4,0,0.7-0.1c1.8-0.2,6.1-0.6,6-1.7c0.2-14.4,0.4-28.9-2-43.3c-0.9-5-2-10-2.9-15.1c-1.7-9.5-2.3-19.2-1.9-28.7
						c0.2-5.4,0.8-10.8,0.9-16.2c0.3-27.9-13.1-54.9-19.2-82.5c-1.9-8.9-3.8-18.9-12.1-24.3c-2-2.3-5.1-3.1-8.6-2.7
						c-12.2,1.1-29.3,15.3-22.4,23.3l3.5,30.9L140.3,219.8z"/>
				</g>
				<g>
					<path class="st5" d="M154.3,185.7c1.6,2.6,4.2,4.6,6.3,6.8c10,10.7,9.6,25.6,13.5,38.8c3.2,11,9.5,21.2,12.1,32.3
						c3.1,13.7,0.3,27.7,2.9,41.5c1.1,5.9,3.2,11.8,4.5,17.7c3.3,15.6,0.9,31.7,4.3,47.2c1.8-0.2,6.1-0.6,6-1.7
						c0.2-14.4,0.4-28.9-2-43.3c-0.9-5-2-10-2.9-15.1c-1.7-9.5-2.3-19.2-1.9-28.7c0.2-5.4,0.8-10.8,0.9-16.2
						c0.3-27.9-13.1-54.9-19.2-82.5c-1.9-8.9-3.8-18.9-12.1-24.3c-2-2.3-5.1-3.1-8.6-2.7c-3.5,5.8-5.6,12.4-5.9,19.1
						C151.8,178.3,152.2,182.3,154.3,185.7z"/>
				</g>
				<g>
					<path class="st4" d="M179.2,327.7c-0.8-5,0.1-10.1,0.3-15.1l0,0c-0.5-1.1-0.7-2.4-0.7-3.6c0-1.5-0.1-3.1-0.2-4.6
						c0-0.6-0.1-1.2-0.2-1.7c-0.4-2.3-0.9-4.6-1.5-6.9c-1.2-4.6-2.7-9.5-4.7-13.8c0.1,0.2-0.1-0.1-0.4-0.8c-0.2-0.6-0.5-1.1-0.8-1.6
						c-0.4-0.9-0.8-1.7-1.3-2.6c-1-1.9-2-3.8-3.1-5.7c-1.5-2.6-3.2-5.2-4.8-7.8c1.3,4.4,2,8.9,2.5,13.3c0.6,5.7,0.9,11.5,3.3,16.9
						c1.4,3,3.3,5.8,4.5,8.9c3,8.3-0.6,17,0.4,25.6c0.9,7.3,5.1,14.1,7.9,21.1c0.3,0.7,0.6,1.4,0.9,2.2c1.7,4.6,2.9,9.2,3.5,14
						c0.1,1.2,0.2,2.3,0.3,3.5c0.1,1,0.7,1.2,1.8,1.4c0.6,0.1,1.2,0.1,1.8,0.2c-0.9-9.9-2-19.9-5.3-29.5
						C182,336.6,179.9,332.2,179.2,327.7z"/>
				</g>
			</g>
		</g>
		<g>
			<g>
				<g>
					<path class="st6" d="M213.9,414c-1,2.3-3.3,3.7-5.4,4.8c-3,1.3-6.2,2.4-9.3,2.5c-2,0.1-4-0.2-6-0.8c-3.2-1-5.9-3.3-7.3-6.4
						c0,0,0,0,0-0.1c0.1-0.6,0.2-1.3,0.4-1.9c0.4-1.9,1-3.8,1.7-5.6l-0.1,1.7c0.7-0.6,1.5-1.1,2.3-1.5c1.4-0.6,2.9-0.8,4.4-1
						c3.2-0.4,6.5-0.9,9.7-0.6c1.9,0.2,3.9,0.6,5.6,1.6c1.7,1,3.1,2.5,3.7,4.3c0,0.1,0.1,0.2,0.1,0.3
						C213.9,412.4,213.9,413.2,213.9,414z"/>
				</g>
				<g>
					<path class="st7" d="M213.7,411.6c-0.1,0.1-0.1,0.2-0.2,0.2c-1.2,1.5-3,2.5-4.7,3.3c-3.7,1.7-7.6,3-11.7,3
						c-0.9,0-1.8-0.1-2.6-0.2c-1.3-0.1-2.6-0.3-3.7-0.9c-2-0.9-3.4-2.7-4.4-4.7c0.4-1.9,1-3.8,1.7-5.6l-0.1,1.7
						c0.7-0.6,1.5-1.1,2.3-1.5c1.4-0.6,2.9-0.8,4.4-1c3.2-0.4,6.5-0.9,9.7-0.6c1.9,0.2,3.9,0.6,5.6,1.6c1.7,1,3.1,2.5,3.7,4.3
						C213.6,411.4,213.6,411.5,213.7,411.6z"/>
				</g>
			</g>
			<g>
				<path class="st3" d="M211.4,404.3c-1-5.4-3.7-10.5-4.3-15.9c-0.3-2.4-0.2-5.1-1.8-6.9c-1.8-2.1-4.9-2.3-7.6-2.2
					c-3.8,0.1-8.2,0.9-10,4.1l-0.2,0.1c1.3,8-0.4,16.1-0.6,24.3c0,1.9,0,3.9,1,5.5c1.1,1.7,3,2.7,4.9,3.2c5.3,1.5,11.3,0.2,15.5-3.3
					c1.4-1.1,2.6-2.6,3.1-4.3C211.7,407.3,211.6,405.8,211.4,404.3z"/>
			</g>
			<g>
				<path class="st4" d="M202.7,393.6c-0.3,2.5-1.4,5.2-3.7,6.2c-1.6,0.8-3.7,0.5-5.2-0.6c-2-1.5-2.6-4.2-2.6-6.7
					c-0.1-2.5,0.3-5-0.4-7.4c-0.5-1.8-1.5-3.9-0.9-5.7l0,0c1.1-1.9,2.9-3.4,5.1-3.8c2.8-0.5,5.9,1,7,3.6c0.9,2.1,0.5,4.4,0.5,6.7
					C202.4,388.6,202.9,391.1,202.7,393.6z"/>
			</g>
		</g>
	</g>
	<g>
		<g>
			<g>
				<g>
					<path class="st0" d="M114.8,91.5c-1.3,5.8-3.3,11.5-6.1,16.9l0.5-1.1c-1.3,2.1-0.9,4.6-1.3,7c-0.3,1.9-1.1,3.7-1.7,5.5
						c-0.8,2.3-1.3,4.6-1.7,6.9c-0.7,4.9-0.4,10.1-2.1,14.8l0,0c-0.2,0.5-0.4,1.1-0.7,1.6c-0.3,0.6-0.6,1.3-1,1.8
						c-0.8,1.2-1.7,2.4-2.6,3.5c-0.5,0.6-1,1.1-1.5,1.7c-0.2,0.3-0.5,0.5-0.8,0.8c-0.1,0.1-0.2,0.3-0.3,0.4
						c-0.5,0.6-1.3,1.2-1.9,1.6c-1.2,0.8-2.5,1.5-3.9,1.4c-1.7-0.2-3-1.7-3.6-3.2c-1.1-2.6-0.8-5.5-0.5-8.3c0.1-0.8,0.1-1.5,0.2-2.3
						c0.3-3.3,0.6-6.5,0.9-9.8s0.6-6.5,0.9-9.8c0.1-0.8,0.2-1.6,0.2-2.4c0.1-0.5,0.3-1,0.4-1.5c0.2-1.7,0.2-3.5,0.4-5.2
						c0.2-2,0.5-4,0.8-6c0.6-3.9,1.4-7.8,2.2-11.6c0.4-1.7,0.7-3.5,1.4-5.2c0.7-1.8,1.7-3.5,3-5c0.6-0.7,1.2-1.3,2-1.8
						s1.8-0.7,2.7-0.9c2.5-0.6,5-1.1,7.3-2.1c2.6-1.1,5-2.7,7.8-3.5l0.3-0.1C116.5,81,115.9,86.3,114.8,91.5z"/>
				</g>
				<g>
					<path class="st1" d="M110.3,78.3c-0.8,1-1.9,1.9-3,2.6c-2,1.3-4.2,2.3-6,3.9c-2.7,2.5-4,6.1-5,9.7c-0.7,2.6-1.2,5.3-1.2,8
						c0,1.6,0.2,3.1,0,4.7c-0.2,1.5-0.7,2.9-1.1,4.3c-4.3,13.7-1.7,28.5-3.7,42.7v0.1c-0.1,0-0.3,0-0.4,0c-1.7-0.2-3-1.7-3.6-3.2
						c-1.1-2.6-0.8-5.5-0.5-8.3c0.1-0.8,0.1-1.5,0.2-2.3c0.3-3.3,0.6-6.5,0.9-9.8s0.6-6.5,0.9-9.8c0.1-0.8,0.2-1.6,0.2-2.4
						c0.1-0.5,0.3-1,0.4-1.5c0.2-1.7,0.2-3.5,0.4-5.2c0.2-2,0.5-4,0.8-6c0.6-3.9,1.4-7.8,2.2-11.6c0.4-1.7,0.7-3.5,1.4-5.2
						c0.7-1.8,1.7-3.5,3-5c0.6-0.7,1.2-1.3,2-1.8s1.8-0.7,2.7-0.9c2.5-0.6,5-1.1,7.3-2.1C109,79,109.7,78.6,110.3,78.3z"/>
				</g>
				<g>
					<path class="st2" d="M108.7,108.3l0.5-1.1c-1.3,2.1-0.9,4.6-1.3,7c-0.3,1.9-1.1,3.7-1.7,5.5c-0.8,2.3-1.3,4.6-1.7,6.9
						c-0.7,4.9-0.4,10.1-2.1,14.8c0-0.5,0.1-1,0-1.4c-0.1-2.2-0.9-4.3-1.4-6.5c-1-4.7,0.1-9.6,0.5-14.5c0.3-3.8,0.2-7.7,0.6-11.5
						c0.2-1.8,0.5-3.6,1.2-5.2c0.6-1.4,1.5-2.6,2.5-3.7c2.5-2.9,5.5-5.3,8.9-7.1C113.6,97.3,111.5,103,108.7,108.3z"/>
				</g>
			</g>
		</g>
		<g>
			<g>
				<g>
					<path class="st0" d="M164,91.5c1.3,5.8,3.3,11.5,6.1,16.9l-0.5-1.1c1.3,2.1,0.9,4.6,1.3,7c0.3,1.9,1.1,3.7,1.7,5.5
						c0.8,2.3,1.3,4.6,1.7,6.9c0.7,4.9,0.4,10.1,2.1,14.8l0,0c0.2,0.5,0.4,1.1,0.7,1.6c0.3,0.6,0.6,1.3,1,1.8
						c0.8,1.2,1.7,2.4,2.6,3.5c0.5,0.6,1,1.1,1.5,1.7c0.2,0.3,0.5,0.5,0.8,0.8c0.1,0.1,0.2,0.3,0.3,0.4c0.5,0.6,1.3,1.2,1.9,1.6
						c1.2,0.8,2.5,1.5,3.9,1.4c1.7-0.2,3-1.7,3.6-3.2c1.1-2.6,0.8-5.5,0.5-8.3c-0.1-0.8-0.1-1.5-0.2-2.3c-0.3-3.3-0.6-6.5-0.9-9.8
						c-0.3-3.3-0.6-6.5-0.9-9.8c-0.1-0.8-0.2-1.6-0.2-2.4c-0.1-0.5-0.3-1-0.4-1.5c-0.2-1.7-0.2-3.5-0.4-5.2c-0.2-2-0.5-4-0.8-6
						c-0.6-3.9-1.4-7.8-2.2-11.6c-0.4-1.7-0.7-3.5-1.4-5.2c-0.7-1.8-1.7-3.5-3-5c-0.6-0.7-1.2-1.3-2-1.8s-1.8-0.7-2.7-0.9
						c-2.5-0.6-5-1.1-7.3-2.1c-2.6-1.1-5-2.7-7.8-3.5l-0.3-0.1C162.4,81,162.9,86.3,164,91.5z"/>
				</g>
				<g>
					<path class="st2" d="M168.5,78.3c0.8,1,1.9,1.9,3,2.6c2,1.3,4.2,2.3,6,3.9c2.7,2.5,4,6.1,5,9.7c0.7,2.6,1.2,5.3,1.2,8
						c0,1.6-0.2,3.1,0,4.7c0.2,1.5,0.7,2.9,1.1,4.3c4.3,13.7,1.7,28.5,3.7,42.7v0.1c0.1,0,0.3,0,0.4,0c1.7-0.2,3-1.7,3.6-3.2
						c1.1-2.6,0.8-5.5,0.5-8.3c-0.1-0.8-0.1-1.5-0.2-2.3c-0.3-3.3-0.6-6.5-0.9-9.8c-0.3-3.3-0.6-6.5-0.9-9.8
						c-0.1-0.8-0.2-1.6-0.2-2.4c-0.1-0.5-0.3-1-0.4-1.5c-0.2-1.7-0.2-3.5-0.4-5.2c-0.2-2-0.5-4-0.8-6c-0.6-3.9-1.4-7.8-2.2-11.6
						c-0.4-1.7-0.7-3.5-1.4-5.2c-0.7-1.8-1.7-3.5-3-5c-0.6-0.7-1.2-1.3-2-1.8s-1.8-0.7-2.7-0.9c-2.5-0.6-5-1.1-7.3-2.1
						C169.9,79,169.2,78.6,168.5,78.3z"/>
				</g>
				<g>
					<path class="st1" d="M170.1,108.3l-0.5-1.1c1.3,2.1,0.9,4.6,1.3,7c0.3,1.9,1.1,3.7,1.7,5.5c0.8,2.3,1.3,4.6,1.7,6.9
						c0.7,4.9,0.4,10.1,2.1,14.8c0-0.5-0.1-1,0-1.4c0.1-2.2,0.9-4.3,1.4-6.5c1-4.7-0.1-9.6-0.5-14.5c-0.3-3.8-0.2-7.7-0.6-11.5
						c-0.2-1.8-0.5-3.6-1.2-5.2c-0.6-1.4-1.5-2.6-2.5-3.7c-2.5-2.9-5.5-5.3-8.9-7.1C165.3,97.3,167.4,103,170.1,108.3z"/>
				</g>
			</g>
		</g>
		<path class="st0" d="M139.4,114c-27.4-1.1-24.8-24.6-22.7-34.1c0.6-2.4,1.1-3.9,1.1-3.9c5.8-1.3,8.3-4.5,9.3-7.8
			c1.5-5.3-0.8-11.1-0.9-11.3l26.6,0.8c0,0-1,5.8-1,9.4c0,0.5,0,0.9,0.1,1.3c0.4,3.4,9.4,7,9.4,7s0.4,1.4,0.9,3.6l0,0
			C164.2,88.7,167.4,115.1,139.4,114z"/>
		<g>
			<path class="st1" d="M129.7,80c-0.8,0.9-2.2,0.9-3.4,0.8c-3.2-0.3-6.4-0.6-9.7-0.9c0.6-2.4,1.1-3.9,1.1-3.9
				c5.8-1.3,8.3-4.5,9.3-7.8c1,3,2.6,6,3.1,9.2C130.3,78.2,130.3,79.3,129.7,80z"/>
		</g>
		<g>
			<path class="st1" d="M162.1,78.9L162.1,78.9c0,0.8-0.1,1.6-0.5,2.4c-1.4-1.1-3.4-1-5.1-0.6c-1.7,0.4-3.4,1.1-5.2,0.8
				c-1.7-0.2-3.3-1.5-3.5-3.1c-0.2-1.5,0.5-2.9,1.2-4.2c1.1-2.3,2.1-4.7,2.7-7.2c0,0.5,0,0.9,0.1,1.3c0.4,3.4,9.4,7,9.4,7
				S161.6,76.6,162.1,78.9z"/>
		</g>
		<g>
			<path class="st1" d="M145.1,103.6c-0.7,1.4-1.9,2.5-2.9,3.8c-0.8,0.9-1.4,2-1.7,3.2c-0.7-2.7-3-4.8-3.5-7.6
				c0-0.3-0.1-0.6,0.1-0.8c0.1-0.1,0.3-0.2,0.5-0.2c1.1-0.1,2.2,0.3,3.3,0.2c1.1-0.1,2.1-0.7,3.1-0.8c0.2,0,0.5,0,0.7,0.1
				C145.6,101.8,145.5,102.9,145.1,103.6z"/>
		</g>
		<g>
			<g>
				<path class="st0" d="M124.3,39.1l-1.3-0.6c-0.3-0.1-0.5-0.2-0.8-0.3c-0.8-0.1-1.6,0.1-2.1,0.6c-0.7,0.7-0.8,1.8-0.7,2.7
					c0.2,1,0.6,1.8,0.9,2.7c0.4,1.1,0.7,2.3,0.8,3.4c0.1,1,0.1,2,0.4,3s1,1.9,2,2.1c0.9,0.2,1.9-0.3,2.4-1.1
					c0.6-0.7,0.8-1.7,0.9-2.6C127.4,45.6,126.4,41.9,124.3,39.1z"/>
			</g>
			<g>
				<path class="st0" d="M158.4,37.6c-1.3-1.1-3.3-0.5-4.5,0.7s-1.7,2.9-2.2,4.6c-0.4,1.4-0.8,2.9-0.5,4.3c0.3,1.4,1.4,2.8,2.8,2.8
					l-0.2-1.3c0.1,0.2,0.2,0.4,0.4,0.6c0.6,0.9,1.4,1.8,2.4,1.8c0.9-0.1,1.6-1,1.8-1.9s0.1-1.9,0.2-2.8c0.1-1.5,0.8-3,1-4.5
					C159.8,40.3,159.6,38.5,158.4,37.6z"/>
			</g>
			<g>
				<g>
					<g>
						<path class="st0" d="M156,41.1c0,0.3,0,0.5-0.1,0.8c-0.1,1.7-0.5,3.4-0.7,5.1c0,0.2,0,0.3-0.1,0.5c-0.3,2.3-0.2,4.7-0.5,7.1
							c-0.3,2.3-0.9,4.7-2.3,6.6c-0.7,1-1.6,1.8-2.5,2.5c-2.1,1.7-4.6,3.1-7.2,4c-0.7,0.2-1.3,0.5-2,0.6c-0.6,0.2-1.1,0.4-1.7,0.2
							c-0.5-0.1-0.9-0.2-1.4-0.3c-1.5-0.3-2.9-0.9-4.3-1.7c-2.6-1.6-4.8-3.9-6.3-6.6c-2.6-4.5-3.5-9.7-4-14.8c0-0.1,0-0.1,0-0.2
							c-0.4-4-0.5-7.9-0.3-11.9c0-0.6,0.1-1.1,0-1.6c0-0.3,0-0.5,0-0.8c0.3-1.3,0.7-2.5,1.3-3.6c1.1-2.3,2.8-4.4,4.8-6
							c0.2-0.1,0.4-0.3,0.6-0.4c1-0.7,2-1.3,3.2-1.7c1.1-0.4,2.3-0.5,3.4-0.7c2.2-0.3,4.4-0.6,6.5-0.3c3.8,0.6,7.2,3.2,9.3,6.4
							c1.6,2.4,2.6,5.2,3.3,8c0.2,0.7,0.3,1.4,0.4,2.1c0.1,0.3,0.1,0.6,0.1,0.9s0.1,0.7,0.1,1.1C156,37.9,156.1,39.5,156,41.1z"/>
					</g>
					<g>
						<path class="st1" d="M121.2,41.2L121.2,41.2L121.2,41.2C121.2,41.3,121.2,41.3,121.2,41.2z"/>
					</g>
					<g>
						<path class="st1" d="M155.3,47c0,0.2,0,0.3-0.1,0.5c-0.3,2.3-0.2,4.7-0.5,7.1c-0.3,2.3-0.9,4.7-2.3,6.6
							c-0.7,1-1.6,1.8-2.5,2.5c-2.1,1.7-4.6,3.1-7.2,4c-0.7,0.2-1.3,0.5-2,0.6c-0.6,0.2-1.1,0.4-1.7,0.2c-0.5-0.1-0.9-0.2-1.4-0.3
							c-1.5-0.3-2.9-0.9-4.3-1.7c-2.6-1.6-4.8-3.9-6.3-6.6c-2.6-4.5-3.5-9.7-4-14.8c0.6,0.7,1.3,1.4,2.1,2c1.8,1.5,3.9,2.8,5.2,4.8
							c2,2.8,2.2,6.5,3.2,9.8c0.4,1.3,1,2.6,2,3.5c2.2,2,5.9,1.4,8.2-0.5c2.3-1.9,3.6-4.8,4.6-7.6c1.1-2.8,2.1-5.7,4.1-7.9
							C153.3,48.3,154.3,47.6,155.3,47z"/>
					</g>
					<g>
						<g>
							<g>
								<path class="st8" d="M158.2,36.6c-0.2,1.8-0.6,3.7-1,5.5c-0.2,0.8-0.3,1.5-0.7,2.2c-0.4,0-0.7-0.4-0.8-0.8
									c-0.6-1.7-0.9-3.5-1-5.3c0-1.2,0-2.4-0.3-3.5c-0.5-1.7-1.9-3.1-2.2-4.8c-0.1-0.6-0.1-1.1-0.2-1.7c-0.1-0.5-0.2-0.9-0.4-1.3
									c-0.2-0.5-0.5-1-0.9-1.5s-0.8-0.9-1.3-1.2c-0.6-0.5-1.4-0.8-2.1-1.1c-0.2-0.1-0.4-0.2-0.6-0.3c-1.6-0.7-3.3-1.3-5-1.7
									c-1.2-0.3-2.4-0.4-3.4-1s-1.9-1.7-1.6-2.9l-4.5-0.9l3.5-1.8l1.9-1c3.3-1.9,6.9-1,9.9,0.5c0.9,0.5,1.8,1,2.7,1.7
									c1.8,1.3,3.3,3,4.5,4.8l0,0c1.2,1.9,2.1,3.9,2.7,6.1l0,0c0.5,1.9,0.8,3.9,0.8,6C158.4,34,158.3,35.3,158.2,36.6z"/>
							</g>
							<g>
								<path class="st9" d="M158.2,36.6c-0.2,1.8-0.6,3.7-1,5.5c-0.2,0.8-0.3,1.5-0.7,2.2c-0.4,0-0.7-0.4-0.8-0.8
									c-0.6-1.7-0.9-3.5-1-5.3c0-1.2,0-2.4-0.3-3.5c-0.5-1.7-1.9-3.1-2.2-4.8c-0.1-0.6-0.1-1.1-0.2-1.7c-0.1-0.5-0.2-0.9-0.4-1.3
									c-0.2-0.5-0.5-1-0.9-1.5c-0.3-1.5-1.1-2.8-2.1-3.9c3.3,1.9,5.8,5.2,6.8,8.8c0.3-2.4-0.2-4.9-1.3-7.1
									c0.7,0.9,1.5,1.8,2.2,2.7c0.2,0.2,0.4,0.5,0.7,0.7c0.2,0.1,0.3,0.2,0.5,0.2c0.5,1.9,0.8,3.9,0.8,6
									C158.4,34,158.3,35.3,158.2,36.6z"/>
							</g>
							<g>
								<path class="st10" d="M158.2,36.6c-0.2,1.8-0.6,3.7-1,5.5c-0.2,0.8-0.3,1.5-0.7,2.2c-0.4,0-0.7-0.4-0.8-0.8
									c-0.6-1.7-0.9-3.5-1-5.3c0-1.2,0-2.4-0.3-3.5c-0.5-1.7-1.9-3.1-2.2-4.8c-0.1-0.6-0.1-1.1-0.2-1.7c-0.1-0.5-0.2-0.9-0.4-1.3
									c0.3,0.3,0.6,0.6,0.8,0.9c0.5,0.8,0.8,1.6,1,2.5c0.3,0.9,0.6,1.7,1.3,2.4c0.7,0.6,1.7,1,2.5,0.6c0.3-0.2,0.7-0.4,1-0.6
									C158.4,34,158.3,35.3,158.2,36.6z"/>
							</g>
							<path class="st11" d="M154.8,20.7c-0.7-0.5-1.3-0.9-2-1.3c-1.4-0.8-2.9-1.5-4.5-2.1c-1.6-0.6-3.2-1-4.8-1.3
								c-1.7-0.4-3.4-0.6-5.1-1c1.7-0.5,3.5-0.7,5.3-0.6c1.8,0.1,3.6,0.4,5.4,1c0.4,0.2,0.8,0.3,1.3,0.5
								C152.1,17.2,153.6,18.8,154.8,20.7z"/>
							<g>
								<path class="st10" d="M147.4,23.1c-0.2-0.1-0.4-0.2-0.6-0.3c-1.6-0.7-3.3-1.3-5-1.7c-1.2-0.3-2.4-0.4-3.4-1
									s-1.9-1.7-1.6-2.9l-4.5-0.9l3.5-1.8c0.6,1.4,1.6,2.6,2.8,3.6c1.6,1.3,3.5,2.1,5.5,2.8c0.7,0.2,1.5,0.4,2.1,0.9
									C146.7,22.2,147.1,22.6,147.4,23.1z"/>
							</g>
						</g>
						<g>
							<g>
								<g>
									<path class="st8" d="M138.5,20.2C138.5,20.3,138.5,20.3,138.5,20.2c-1.2,0.6-2.5,0.7-3.8,1c-3.7,0.7-7,3.1-8.9,6.2
										c-0.3,0.5-0.5,0.9-0.8,1.4c-1.1,2.4-1.5,5.1-1.8,7.8c-0.2,1.4-0.4,2.8-0.5,4.2c-0.1,0.9-0.2,1.9,0,2.8
										c0.2,0.7,0.6,1.4,1,2.1l0,0c0.2,0.3,0.4,0.6,0.5,0.9c0.5,1,0.7,2.1,0.7,3.3c-0.2-0.3-0.9-1.2-2.7-3.2
										c-2.5-2.8-2.5-9.6-2.3-13.3c0.1-1.6,0.2-2.7,0.2-2.7c1.3-6.3,3.6-10.4,6.1-13c5.6-5.9,12.4-4.5,12.4-4.5
										c-0.4,1.5-0.3,3.6-0.2,5.1C138.4,19.3,138.5,20,138.5,20.2z"/>
								</g>
								<g>
									<path class="st9" d="M124.8,28.3c0.3-0.2,0.6-0.5,0.9-0.8c-0.3,0.5-0.5,0.9-0.8,1.4c-1.1,2.4-1.5,5.1-1.8,7.8
										c-0.2,1.4-0.4,2.8-0.5,4.2c-0.1,0.9-0.2,1.9,0,2.8c0.2,0.7,0.6,1.4,1,2.1l0,0c0.2,0.3,0.4,0.6,0.5,0.9
										c0.5,1,0.7,2.1,0.7,3.3c-0.2-0.3-0.9-1.2-2.7-3.2c-2.5-2.8-2.5-9.6-2.3-13.3c0.5-0.1,1-0.5,1.3-1c2.2-2.9,2.8-6.9,5.4-9.5
										c-1.2,1.5-2,3.2-2.5,5c0,0.2-0.1,0.4,0,0.5l0.1,0.1C124.4,28.5,124.6,28.4,124.8,28.3z"/>
								</g>
								<g>
									<path class="st11" d="M138.3,18.4c-0.7,0-1.5-0.2-2.2-0.3c-1.1-0.1-2.2,0.1-3.2,0.5c0.7-0.8,1.6-1.4,2.5-1.9
										c-2.8,0.2-5.6,1-8.1,2.4c1.6-2.4,4.3-3.8,7-5.1c-2.9,0.8-5.7,2-8.1,3.7c5.6-5.9,12.4-4.5,12.4-4.5
										C138.1,14.7,138.2,16.8,138.3,18.4z"/>
								</g>
							</g>
							<g>
								<path class="st10" d="M138.5,20.3c-1.2,0.6-2.6,0.6-3.8,0.9c-3.7,0.7-7,3.1-8.9,6.2c-0.3,0.5-0.5,0.9-0.8,1.4
									c-1.1,2.4-1.5,5.1-1.8,7.8c-0.2,1.4-0.4,2.8-0.5,4.2c-0.1,0.9-0.2,1.9,0,2.8c0.2,0.7,0.6,1.4,1,2.1c-0.9-1-1.6-2-1.9-3.3
									c-0.2-1.1,0-2.3,0.2-3.4c0.3-1.7,0.6-3.3,0.9-5c0.2-1.2,0.4-2.5,0.8-3.7c0.2-0.6,0.4-1.2,0.7-1.8c0.7-1.6,1.6-3,2.7-4.3
									c1-1.2,2.3-2.2,3.9-2.7c0.6-0.2,1.3-0.2,2-0.3c1.5-0.1,3-0.2,4.4-0.5C137.6,20.5,138,20.4,138.5,20.3L138.5,20.3z"/>
							</g>
						</g>
					</g>
					<path class="st8" d="M124.4,22c-2,2.8-3,6.2-3.9,9.6s-1.6,6.8-2,10.3s-0.5,7,0,10.5c0.4,3.5,1.4,6.9,3,10.1
						c-1.7-3.1-2.8-6.5-3.4-10s-0.6-7.1-0.3-10.6c0.3-3.5,0.9-7,1.7-10.5c0.4-1.7,0.8-3.5,1.4-5.2s1.3-3.4,2.3-4.9L124.4,22z"/>
				</g>
				<g>
					<path class="st8" d="M126.5,50.5c0-0.1,0-0.1,0-0.2C126.7,50.7,126.5,50.5,126.5,50.5z"/>
				</g>
			</g>
			<g>
				<path class="st10" d="M141.8,36.1C141.8,36.1,141.9,36.1,141.8,36.1c0.2-0.1,0.2-0.2,0.3-0.2l0.1-0.1c0.4-0.2,0.8-0.3,1.2-0.4
					c0.4-0.1,0.9-0.2,1.4-0.3c0.9-0.1,1.8-0.2,2.7-0.1c1,0.1,1.9,0.3,2.8,0.6c0.9,0.4,1.7,1,2.1,1.8c-0.6-0.7-1.4-1.1-2.3-1.3
					c-0.9-0.2-1.7-0.2-2.6-0.1c-0.5,0.1-0.9,0.1-1.3,0.3c-0.7,0.2-1.3,0.4-2,0.7c-0.3,0.2-0.6,0.3-0.9,0.5c-0.1,0.1-0.2,0.2-0.4,0.2
					c-0.2,0.1-0.3,0.2-0.5,0.1c-0.2,0-0.3-0.1-0.5-0.2c-0.3-0.2-0.4-0.6-0.4-0.9c0-0.1,0-0.2,0.1-0.3
					C141.7,36.3,141.7,36.2,141.8,36.1z"/>
				<path class="st10" d="M135.7,36.1C135.7,36.1,135.6,36.1,135.7,36.1c-0.2-0.1-0.2-0.2-0.3-0.2l-0.1-0.1
					c-0.4-0.2-0.8-0.3-1.2-0.4c-0.4-0.1-0.9-0.2-1.4-0.3c-0.9-0.1-1.8-0.2-2.7-0.1c-1,0.1-1.9,0.3-2.8,0.6c-0.9,0.4-1.7,1-2.1,1.8
					c0.6-0.7,1.4-1.1,2.3-1.3c0.9-0.2,1.7-0.2,2.6-0.1c0.5,0.1,0.9,0.1,1.3,0.3c0.7,0.2,1.3,0.4,2,0.7c0.3,0.2,0.6,0.3,0.9,0.5
					c0.1,0.1,0.2,0.2,0.4,0.2c0.2,0.1,0.3,0.2,0.5,0.1c0.2,0,0.3-0.1,0.5-0.2c0.3-0.2,0.4-0.6,0.4-0.9c0-0.1,0-0.2-0.1-0.3
					C135.8,36.3,135.8,36.2,135.7,36.1z"/>
			</g>
			<g>
				<path class="st1" d="M136.8,39.5c0.3,0.3,0.4,0.7,0.5,1.1c0.1,0.4,0.1,0.8,0.1,1.1c0,0.8-0.1,1.6-0.4,2.3c0-0.8,0-1.5-0.1-2.3
					c0-0.4,0-0.7,0-1.1C137,40.3,136.9,39.9,136.8,39.5z"/>
				<path class="st1" d="M135.6,50.7c0.3,0.5,0.9,0.7,1.4,0.5c0.2-0.1,0.5-0.3,0.8-0.3c0.3-0.1,0.6,0,0.9,0c0.6,0.1,1.2,0.3,1.7,0.3
					c0.3,0,0.5,0,0.8-0.1s0.5-0.3,0.6-0.6c0,0.3-0.3,0.6-0.5,0.7c-0.3,0.2-0.6,0.3-0.9,0.3c-0.6,0-1.2-0.2-1.8-0.3
					c-0.3,0-0.5-0.1-0.8,0c-0.3,0-0.5,0.2-0.8,0.3s-0.7,0.1-1-0.1C135.9,51.2,135.7,50.9,135.6,50.7z"/>
			</g>
		</g>
		<g>
			<g>
				<path class="st0" d="M170.6,161.8c-0.3,1-0.7,2.1-1.1,3.1c-0.2,0.5-0.5,1-0.7,1.5c-0.1,0.2-0.2,0.4-0.3,0.6
					c-0.2,0.4-0.7,0.6-1,0.8c-2.7,2-5.9,3.5-9,4.6c-1.7,0.6-3.4,1.1-5.2,1.5c-2,0.5-3.9,0.9-5.9,1.2c-6.7,1-13.5,1.1-20.2,0.3
					c-1.2-0.1-2.3-0.3-3.5-0.5c-3.5-0.6-7-1.6-10.3-3c-2.8-1.2-5.5-2.8-7.7-4.9c-2.7-3-3.5-7.5-2-11.3c0.6-1.6,1.7-3.1,2.3-4.7
					c0.7-1.7,1.1-3.4,1.4-5.2c0.4-1.9,0.8-3.9,0.4-5.8l61-0.4c-1.2,4.3-0.9,9.1,0.6,13.3c0.4,1,0.8,2,1.1,3
					C171.3,157.8,171.1,159.9,170.6,161.8z"/>
			</g>
			<g>
				<path class="st1" d="M131,136.2c-0.3-1.1-1.8-1.4-3-1.5c-3.3-0.2-6.6-0.3-9.9,0.1c-3.3,0.5-6.5,1.6-9,3.7l0.8,0.8
					c3.9,5.5,6.5,12,7.5,18.6c0.3,2,0.5,4.1,1.7,5.8c0.3,0.4,0.7,0.8,1.2,0.8c0.7,0,1.1-0.7,1.3-1.3c2.1-5.1,3-10.7,5.2-15.8
					c1.4-3.3,3.3-6.4,4.1-9.9C131.1,137.2,131.1,136.7,131,136.2z"/>
			</g>
			<g>
				<path class="st1" d="M165,138.8c-0.6-0.8-1.6-1.3-2.5-1.6c-3.5-1.3-7.3-1.4-10.9-0.5l-0.1,1.1c0.8,1,1,2.3,1.1,3.6
					c0.4,4.5,0,9-1,13.4c-0.6,2.7-1.5,5.3-1.4,8.1c0,0.3,0,0.7,0.2,1c0.3,0.4,1,0.4,1.4,0.2c0.5-0.2,0.8-0.7,1.1-1.1
					c4.1-5.6,7.9-11.4,11.3-17.5C165.4,143.4,166.5,140.7,165,138.8z"/>
			</g>
			<g>
				<path class="st2" d="M153.3,173.9c-2,0.5-3.9,0.9-5.9,1.2c-6.7,1-13.5,1.1-20.2,0.3c0-0.3,0.1-0.5,0.1-0.8c0.4-3,0.8-6.1,2-8.9
					s3.3-5.4,6.2-6.4c1-0.3,2-0.5,2.9-1.1c0.5-0.3,1-0.8,1.6-1c1.1-0.4,2.3,0.2,3.1,1.1c0.8,0.9,1.2,2,1.8,3
					c2.3,4.1,6.8,6.9,8.3,11.3C153.1,173,153.2,173.5,153.3,173.9z"/>
			</g>
		</g>
		<g>
			<g>
				<g>
					<path class="st12" d="M169.6,134.4c0,0.2,0,0.4,0,0.6c0,1.6-0.1,3.3-0.2,4.9c0,0.4,0,0.8-0.1,1.2c0,0.3-0.1,0.3-0.4,0.4
						c-3.3,1.4-7,1.8-10.6,1.7c-0.4,0-0.8,0-1.1,0c-3.5-0.1-7-0.6-10.4-0.8c-5.8-0.3-11.6,0.3-17.4,0.6c-2.3,0.2-4.6,0.3-6.9,0.3
						c-5,0.1-10-0.2-15-0.9c-0.6-0.1-1-0.6-1-1.2l0.7-7.9v-0.5c1,0,2-0.1,3-0.2c4.9-0.4,9.7-1.2,14.6-1.8c7.5-0.9,15.1-1.4,22.7-1.3
						c6,0,12.3,0.5,17.9,2.4c1.4,0.5,2.8,1.1,4.1,1.8L169.6,134.4z"/>
				</g>
				<g>
					<path class="st13" d="M123.9,141.4c1.9,0.4,3.7,1.1,5.6,1.8c-2.3,0.2-4.6,0.3-6.9,0.3c-5,0.1-10-0.2-15-0.9
						c-0.6-0.1-1-0.6-1-1.2l0.7-7.9V133c1,0,2-0.1,3-0.2c-0.2,3,2.3,5.6,5,6.7C118,140.7,121,140.8,123.9,141.4z"/>
				</g>
				<g>
					<path class="st13" d="M169.6,134.4c0,0.2,0,0.4,0,0.6c0,1.6-0.1,3.3-0.2,4.9c0,0.4,0,0.8-0.1,1.2c0,0.3-0.1,0.3-0.4,0.4
						c-3.3,1.4-7,1.8-10.6,1.7c-0.4,0-0.8,0-1.1,0c3-2,5.5-4.8,6.9-8.2c0.4-1,0.7-2,1.3-2.9c1.4,0.5,2.8,1.1,4.1,1.8L169.6,134.4z"
						/>
				</g>
			</g>
			<g class="st14">
				<path class="st13" d="M170.1,132.3c-0.1-0.2-0.3-0.3-0.4-0.3c-10.1-4.2-20.8-7.1-31.7-7.1s-22,2.9-30.7,9.6l0.1,0.4
					c3.4,2.3,7.4,3.7,11.4,3.9c7.2,0.5,14.3-2.5,21.6-2.5c1.3,0,2.7,0.1,4,0.5c1,0.3,2,0.7,3,1.1c1.6,0.5,3.2,0.9,4.9,1.2
					c3.4,0.6,6.9,1,10.2,0.1c3.3-0.8,6.4-3.1,7.5-6.3C170.1,132.6,170.1,132.4,170.1,132.3z"/>
			</g>
			<g>
				<path class="st6" d="M174,123.2c-0.5,6.1-2.5,10.7-5,12.8c-5.2,4.2-16.9,2.2-19.8,0.5c-2.9-1.7-17.2-0.8-17.2-0.8
					c-13.5,4.9-24.9,0-24.9,0c-2.3-2.9-3.7-6.4-4.2-10.1c-0.1-0.4-0.1-0.8-0.2-1.2c-0.4-4.1,0.3-8.2,1.6-12.1
					c1.5-4.2,3.7-8.2,5.4-12.3c0.9-2.4,1.7-5,2-7.6c0.6-5.5-0.6-10.6,2-15.5l0.1-0.4c0-0.2,1.1-0.8,2.4-1.3c0.7-0.3,1.7,0,2.4,0
					c0,0-10.3,36.8,21.1,33.2c32.4,0.8,18.3-35.1,18.3-35.1c0.1-0.3,1.7,0.3,3.1,1c1.4,0.7,2.7,1.5,2.6,1.7
					c0.2,6.5,5.4,24.1,5.4,24.1C173.2,108.6,174.4,116.7,174,123.2z"/>
				<g>
					<path class="st15" d="M174,123.2c-0.5,6.1-2.5,10.7-5,12.8c-5.2,4.2-16.9,2.2-19.8,0.5c-2.9-1.7-17.2-0.8-17.2-0.8
						c-13.5,4.9-24.9,0-24.9,0c-2.3-2.9-3.7-6.4-4.2-10.1c1.6,2.3,4.1,3.9,6.8,4.4c2.8,0.6,5.8,0,8.6-0.8c1.5-0.4,3-0.9,4.6-1
						c1.6-0.1,3.2,0.4,4.3,1.5c0.9,1,1.2,2.3,2.1,3.2c1.3,1.3,3.3,1.4,5.1,1.4c4.3,0,8.8,0,12.9-1.4c2.2-0.8,4.3-1.9,6.6-1.7
						c2.4,0.2,4.4,1.9,6.7,2.7c1.5,0.5,3.1,0.5,4.6,0.2c3.2-0.7,5.7-3.3,7.2-6.2C173,126.4,173.5,124.8,174,123.2z"/>
				</g>
				<g>
					<path class="st7" d="M163.2,103.5c-0.2,1.8-0.5,3.6-1.3,5.2c-1.3,2.6-3.8,4.4-6.4,5.6c-2.6,1.2-5.5,1.9-8.2,2.9
						c-4.4,1.7-9,4.5-13.6,3.4c-1.9-0.5-3.6-1.5-5.2-2.6l-8.8-5.7c-0.7-0.4-1.4-0.9-1.8-1.6c-0.8-1.1-0.7-2.6-0.7-4
						c-0.1-2.6-0.9-5.1-1.4-7.7c-1.6-8.1-0.8-15.7,0.4-23.8c0.7-0.3,1.7,0,2.4,0c0,0-10.3,36.8,21.1,33.2
						c32.4,0.8,18.3-35.1,18.3-35.1c0.1-0.3,1.7,0.3,3.1,1c0.3,5.1,2.1,10,2.7,15C164.2,94,163.8,98.8,163.2,103.5z"/>
				</g>
			</g>
		</g>
		<g>
			<g>
				<g>
					<g>
						<path class="st3" d="M17.4,110.6h-11c-3.5,0-6.3-8.6-6.3-19.1c0-10.6,2.8-19.2,6.3-19.2h11c-2.4,0-4.4,3.9-5.5,9.8
							c-0.5,2.8-0.8,6-0.8,9.4s0.3,6.6,0.8,9.4C12.9,106.7,15,110.6,17.4,110.6z"/>
						<path class="st4" d="M23.7,91.3L23.7,91.3c0,0.5,0,0.9,0,1.3c0,1.1-0.1,2.1-0.1,3.1c-0.6,8.5-3.2,14.8-6.1,14.8
							c-2.4,0-4.4-3.9-5.5-9.8c-0.5-2.8-0.8-6-0.8-9.4s0.3-6.6,0.8-9.4c1.1-5.8,3.1-9.8,5.5-9.8c3,0,5.5,6.4,6.2,15
							C23.6,88.6,23.7,90,23.7,91.3z"/>
					</g>
					<g>
						<path class="st4" d="M10.2,104.7c0.2,2.1,0.8,4.2,2,5.9H6.4c-3.5,0-6.3-8.6-6.3-19.1c0-10.6,2.8-19.2,6.3-19.2h5.8
							c-1.4,3.3-3.8,6.2-5.3,9.6c-1.6,3.6-1.9,7.8-1,11.6c0,0.1,0.1,0.3,0.1,0.4s0,0.1,0.1,0.2v0.1c0,0.1,0.1,0.2,0.2,0.3
							c0.1,0.2,0.3,0.3,0.5,0.3c0.6,0.2,1.1-0.1,1.7,0c0.4,0.1,0.7,0.3,0.9,0.6c0.2,0.3,0.2,0.6,0.3,0.9c0,0.2,0.1,0.3,0.2,0.5
							c0,0.1,0.1,0.1,0.1,0.2s0,0.2,0.1,0.3c0,0.1,0,0.3,0,0.4C10,100,9.9,102.4,10.2,104.7z"/>
					</g>
				</g>
				<path class="st16" d="M20.1,91.5c0,4.5-1.2,8.2-2.7,8.2c-1,0-1.9-1.7-2.3-4.2c-0.2-1.2-0.3-2.5-0.3-4s0.1-2.8,0.3-4
					c0.5-2.5,1.3-4.2,2.3-4.2C18.8,83.3,20.1,86.9,20.1,91.5z"/>
				<g>
					<g>
						<path class="st3" d="M23.5,87.4c0.1,1.3,0.1,2.6,0.1,4v0.1c0,0.4,0,0.8,0,1.2c0,1.1-0.1,2.1-0.1,3.1h-5.4H18
							c-0.1,0-0.2-0.1-0.4-0.2c0,0,0,0-0.1-0.1c0-0.1-0.1-0.1-0.1-0.2c0,0,0-0.1-0.1-0.1c-0.2-0.4-0.4-0.9-0.5-1.6
							c0-0.2-0.1-0.4-0.1-0.5c-0.1-0.5-0.1-1-0.1-1.6c0-0.2,0-0.4,0-0.6l0,0c0-0.2,0-0.4,0-0.6c0-0.1,0-0.3,0-0.4s0-0.2,0-0.3l0,0
							c0.2-1.3,0.6-2.3,1.2-2.3L23.5,87.4L23.5,87.4z"/>
						<path class="st3" d="M140.3,91.2l0.1,0.2C140.4,91.4,140.3,91.3,140.3,91.2z"/>
						<path class="st3" d="M140.5,91.9L140.5,91.9L140.5,91.9z"/>
					</g>
					<path class="st4" d="M23.7,92.7c0,1.1-0.1,2.1-0.1,3.1h-5.4h-0.1c-0.1,0-0.2-0.1-0.4-0.2c0,0,0,0-0.1-0.1
						c0-0.1-0.1-0.1-0.1-0.2c0,0,0-0.1-0.1-0.1c-0.2-0.4-0.4-0.9-0.5-1.6c0-0.2-0.1-0.4-0.1-0.5c-0.1-0.5-0.1-1-0.1-1.6
						c0-0.2,0-0.4,0-0.6l0,0c0-0.2,0-0.4,0-0.6c0-0.1,0-0.3,0-0.4c0.2,1.5,0.6,2.7,1.3,2.7L23.7,92.7L23.7,92.7z"/>
					<path class="st4" d="M76.2,90.9L76.2,90.9c-0.1,0-0.2-0.1-0.3-0.1C76,90.8,76.1,90.9,76.2,90.9z"/>
					<path class="st4" d="M139.9,89.3C139.9,89.3,139.8,89.2,139.9,89.3L139.9,89.3C139.8,89.2,139.9,89.3,139.9,89.3z"/>
					<path class="st4" d="M140.4,91.4c0-0.1,0-0.1-0.1-0.2L140.4,91.4z"/>
					<path class="st4" d="M140.4,91.7L140.4,91.7L140.4,91.7L140.4,91.7z"/>
					<path class="st4" d="M140.5,91.9L140.5,91.9L140.5,91.9z"/>
					<path class="st4" d="M108.7,99.6l31.7-7.7l0,0L108.7,99.6z"/>
					<path class="st16" d="M23.7,91.3L23.7,91.3c0,0.5,0,0.9,0,1.3h-5.5c-0.7,0-1.1-1.2-1.3-2.7c0-0.1,0-0.2,0-0.3l0,0
						c0-0.1,0-0.2,0.1-0.3c0.2,1.1,0.6,2,1.2,2C18.2,91.3,23.7,91.3,23.7,91.3z"/>
				</g>
			</g>
			<g>
				<g>
					<g>
						<path class="st3" d="M263.6,110.6h11c3.5,0,6.3-8.6,6.3-19.1c0-10.6-2.8-19.2-6.3-19.2h-11c2.4,0,4.4,3.9,5.5,9.8
							c0.5,2.8,0.8,6,0.8,9.4s-0.3,6.6-0.8,9.4C268,106.7,266,110.6,263.6,110.6z"/>
						<path class="st4" d="M269.9,91.5c0,3.4-0.3,6.6-0.8,9.4c-1.1,5.8-3.1,9.8-5.5,9.8c-3,0-5.5-6.3-6.1-14.8c-0.1-1-0.1-2-0.1-3.1
							c0-0.4,0-0.8,0-1.2v-0.1c0-1.4,0.1-2.7,0.1-4c0.6-8.6,3.1-15,6.2-15c2.4,0,4.4,3.9,5.5,9.8C269.6,84.9,269.9,88.1,269.9,91.5z
							"/>
					</g>
					<g>
						<path class="st4" d="M270.8,104.7c-0.2,2.1-0.8,4.2-2,5.9h5.8c3.5,0,6.3-8.6,6.3-19.1c0-10.6-2.8-19.2-6.3-19.2h-5.8
							c1.4,3.3,3.8,6.2,5.3,9.6c1.6,3.6,1.9,7.8,1,11.6c0,0.1-0.1,0.3-0.1,0.4s0,0.1-0.1,0.2v0.1c0,0.1-0.1,0.2-0.2,0.3
							c-0.1,0.2-0.3,0.3-0.5,0.3c-0.6,0.2-1.1-0.1-1.7,0c-0.4,0.1-0.7,0.3-0.9,0.6c-0.2,0.3-0.2,0.6-0.3,0.9c0,0.2-0.1,0.3-0.2,0.5
							c0,0.1-0.1,0.1-0.1,0.2s0,0.2-0.1,0.3c0,0.1,0,0.3,0,0.4C270.9,100,271.1,102.4,270.8,104.7z"/>
					</g>
				</g>
				<path class="st16" d="M260.9,91.5c0,4.5,1.2,8.2,2.7,8.2c1,0,1.9-1.7,2.3-4.2c0.2-1.2,0.3-2.5,0.3-4s-0.1-2.8-0.3-4
					c-0.5-2.5-1.3-4.2-2.3-4.2C262.1,83.3,260.9,86.9,260.9,91.5z"/>
				<g>
					<g>
						<path class="st3" d="M257.4,87.4c-0.1,1.3-0.1,2.6-0.1,4h-26c-1.4,0-2.7-0.2-4.1-0.5l-17.8-4.6c-1.5-0.4-3.2-0.3-4.7,0.2
							l-23.2,8.2c-1.8,0.6-3.6,0.9-5.5,0.9c-1.3,0-2.6-0.2-3.9-0.5l-30.7-7.4h-2l-30.7,7.4c-1.3,0.3-2.6,0.5-3.9,0.5
							c-1.9,0-3.7-0.3-5.5-0.9l-23.2-8.2c-1.5-0.5-3.1-0.6-4.7-0.2l-17.7,4.5c-1.3,0.3-2.7,0.5-4.1,0.5h-26c0-1.4-0.1-2.7-0.1-4
							h26.1c0.7,0,1.3-0.1,2-0.3l17.8-4.6c3.2-0.8,6.5-0.7,9.6,0.4l23.2,8.2c1.5,0.5,3,0.6,4.6,0.2l31.7-7.7h4l31.7,7.7
							c1.5,0.4,3.1,0.3,4.6-0.2l23.2-8.2c3.1-1.1,6.4-1.2,9.6-0.4l17.8,4.6c0.6,0.2,1.3,0.3,2,0.3L257.4,87.4L257.4,87.4z"/>
						<path class="st3" d="M140.5,91.9L140.5,91.9L140.5,91.9L140.5,91.9z"/>
						<path class="st3" d="M140.6,91.6L140.6,91.6C140.6,91.5,140.6,91.5,140.6,91.6C140.6,91.5,140.6,91.6,140.6,91.6
							C140.5,91.6,140.5,91.6,140.6,91.6C140.5,91.6,140.5,91.6,140.6,91.6z"/>
						<path class="st3" d="M140.7,90.9L140.7,90.9C140.7,90.8,140.7,90.8,140.7,90.9L140.7,90.9L140.7,90.9z"/>
						<path class="st3" d="M264.2,91.6c0,0.5,0,1.1-0.1,1.6c0,0.2,0,0.4-0.1,0.5c0,0.1,0,0.2-0.1,0.3c0,0.1-0.1,0.2-0.1,0.3
							c0,0.1-0.1,0.2-0.1,0.3c-0.1,0.2-0.2,0.4-0.3,0.6c0,0,0,0.1-0.1,0.1c0,0.1-0.1,0.1-0.1,0.2c0,0,0,0.1-0.1,0.1c0,0,0,0-0.1,0.1
							l-0.1,0.1h-0.1h-0.1h-5.4c-0.1-1-0.1-2-0.1-3.1c0-0.4,0-0.8,0-1.2v-0.1c0-1.4,0.1-2.7,0.1-4h5.4c0.6,0,1,1,1.2,2.3l0,0
							c0,0.1,0,0.2,0,0.3c0,0.1,0,0.2,0,0.4c0,0.2,0,0.4,0,0.6l0,0C264.2,91.2,264.2,91.4,264.2,91.6z"/>
					</g>
					<path class="st4" d="M257.3,92.7h-26c-1.4,0-2.7-0.2-4.1-0.5l-17.8-4.6c-1.5-0.4-3.2-0.3-4.7,0.2L181.5,96
						c-1.8,0.6-3.6,0.9-5.5,0.9c-1.3,0-2.6-0.2-3.9-0.5l-31-7.5h-1.4l-31,7.5c-1.3,0.3-2.6,0.5-3.9,0.5c-1.9,0-3.7-0.3-5.5-0.9
						l-23.1-8.2c-1.5-0.5-3.1-0.6-4.7-0.2l-17.8,4.6c-1.3,0.3-2.7,0.5-4.1,0.5h-26c0,1.1-0.1,2.1-0.1,3.1h26.1
						c1.4,0,2.7-0.2,4.1-0.5l17.8-4.6c1-0.3,2-0.3,3.1-0.2c0.1,0,0.2,0,0.3,0c0,0,0,0,0.1,0c0.2,0,0.4,0.1,0.6,0.1
						c0.1,0,0.2,0.1,0.3,0.1c0.1,0,0.2,0.1,0.3,0.1l0,0L99.4,99c1.8,0.6,3.6,0.9,5.5,0.9c0.3,0,0.6,0,1,0c0.2,0,0.5,0,0.7-0.1
						c0.2,0,0.5-0.1,0.7-0.1s0.3-0.1,0.5-0.1c0.1,0,0.3-0.1,0.4-0.1c0.2,0,0.3-0.1,0.5-0.1l31.7-7.7l0,0l0,0l0,0l31.7,7.7
						c0.2,0,0.3,0.1,0.5,0.1c0.1,0,0.3,0.1,0.4,0.1c0.2,0,0.3,0.1,0.5,0.1s0.5,0.1,0.7,0.1s0.5,0,0.7,0.1c0.3,0,0.6,0,1,0
						c1.9,0,3.7-0.3,5.5-0.9l23.2-8.2l0,0c0.1,0,0.2-0.1,0.3-0.1s0.2-0.1,0.3-0.1c0.2-0.1,0.4-0.1,0.6-0.1c0,0,0,0,0.1,0
						s0.2,0,0.3,0c1-0.1,2-0.1,3.1,0.2l17.8,4.6c1.3,0.3,2.7,0.5,4.1,0.5h26.1C257.4,94.8,257.3,93.7,257.3,92.7z M139.8,89.2
						L139.8,89.2L139.8,89.2C139.8,89.2,139.9,89.3,139.8,89.2C139.9,89.3,139.8,89.2,139.8,89.2z M140.3,91.2l0.1,0.2
						C140.4,91.4,140.3,91.3,140.3,91.2z M140.4,91.7L140.4,91.7C140.4,91.6,140.4,91.7,140.4,91.7L140.4,91.7L140.4,91.7z
						 M140.6,91.5C140.6,91.5,140.6,91.6,140.6,91.5C140.6,91.6,140.6,91.6,140.6,91.5C140.5,91.6,140.5,91.6,140.6,91.5L140.6,91.5
						L140.6,91.5z M140.7,90.9L140.7,90.9L140.7,90.9L140.7,90.9C140.7,90.8,140.7,90.8,140.7,90.9z M141.1,89.2
						C141.1,89.2,141.1,89.3,141.1,89.2C141.1,89.3,141.1,89.2,141.1,89.2L141.1,89.2L141.1,89.2z"/>
					<path class="st4" d="M140.5,91.9L140.5,91.9L140.5,91.9L140.5,91.9z"/>
					<path class="st4" d="M140.6,91.5C140.6,91.5,140.6,91.6,140.6,91.5L140.6,91.5L140.6,91.5z"/>
					<path class="st4" d="M141.1,89.2C141.1,89.2,141.1,89.3,141.1,89.2C141.1,89.3,141.1,89.2,141.1,89.2L141.1,89.2z"/>
					<path class="st4" d="M140.5,91.9l31.7,7.7L140.5,91.9L140.5,91.9z"/>
					<path class="st4" d="M204.8,90.9c0.1,0,0.2-0.1,0.3-0.1C205,90.8,204.9,90.9,204.8,90.9L204.8,90.9z"/>
					<path class="st4" d="M264.2,91.6c0,0.5,0,1.1-0.1,1.6c0,0.2,0,0.4-0.1,0.5c0,0.1,0,0.2-0.1,0.3c0,0.1-0.1,0.2-0.1,0.3
						c0,0.1-0.1,0.2-0.1,0.3c-0.1,0.2-0.2,0.4-0.3,0.6c0,0,0,0.1-0.1,0.1c0,0.1-0.1,0.1-0.1,0.2c0,0,0,0.1-0.1,0.1c0,0,0,0-0.1,0.1
						l-0.1,0.1h-0.1h-0.1h-5.4c-0.1-1-0.1-2-0.1-3.1h5.5c0.7,0,1.1-1.2,1.3-2.7c0,0.1,0,0.2,0,0.4c0,0.2,0,0.4,0,0.6l0,0
						C264.2,91.2,264.2,91.4,264.2,91.6z"/>
					<path class="st5" d="M257.3,92.7h-26c-1.4,0-2.7-0.2-4.1-0.5l-17.8-4.6c-1.5-0.4-3.2-0.3-4.7,0.2L181.5,96
						c-1.8,0.6-3.6,0.9-5.5,0.9c-1.3,0-2.6-0.2-3.9-0.5l-31-7.5h-1.4l-31,7.5c-1.3,0.3-2.6,0.5-3.9,0.5c-1.9,0-3.7-0.3-5.5-0.9
						l-23.1-8.2c-1.5-0.5-3.1-0.6-4.7-0.2l-17.8,4.6c-1.3,0.3-2.7,0.5-4.1,0.5h-26c0-0.4,0-0.8,0-1.2v-0.1h26c1.4,0,2.7-0.2,4.1-0.5
						l17.8-4.6c1.5-0.4,3.2-0.3,4.7,0.2l23.2,8.2c1.8,0.6,3.6,0.9,5.5,0.9c1.3,0,2.6-0.2,3.9-0.5l30.7-7.4h2l30.7,7.4
						c1.3,0.3,2.6,0.5,3.9,0.5c1.9,0,3.7-0.3,5.5-0.9l23.2-8.2c1.5-0.5,3.1-0.6,4.7-0.2l17.8,4.6c1.3,0.3,2.7,0.5,4.1,0.5h26v0.1
						C257.3,91.9,257.3,92.3,257.3,92.7z"/>
					<path class="st16" d="M264.1,90c-0.2,1.5-0.6,2.7-1.3,2.7h-5.5c0-0.4,0-0.8,0-1.2v-0.1h5.6c0.6,0,1-0.8,1.2-2
						c0,0.1,0,0.2,0.1,0.3l0,0C264.1,89.8,264.1,89.9,264.1,90z"/>
				</g>
			</g>
			<path class="st4" d="M140.3,91.2l0.1,0.2C140.4,91.4,140.3,91.3,140.3,91.2z"/>
			<path class="st4" d="M140.5,91.9L140.5,91.9L140.5,91.9L140.5,91.9z"/>
			<path class="st4" d="M140.6,91.6L140.6,91.6C140.6,91.5,140.6,91.5,140.6,91.6C140.6,91.5,140.6,91.6,140.6,91.6
				C140.5,91.6,140.5,91.6,140.6,91.6C140.5,91.6,140.5,91.6,140.6,91.6z"/>
			<path class="st4" d="M140.7,90.8L140.7,90.8C140.7,90.9,140.7,90.9,140.7,90.8L140.7,90.8z"/>
		</g>
		<g>
			<g>
				<g>
					<path class="st1" d="M62.5,82.6c0.1,0.3,0.2,0.7,0.3,1L62.5,82.6z"/>
				</g>
				<g>
					<path class="st1" d="M62.5,82.6c0-0.1,0-0.1,0-0.2l0,0V82.6z"/>
				</g>
				<g>
					<path class="st1" d="M85,81.1c-0.1-0.3-0.1-0.6-0.3-0.9c-0.2-0.3-0.5-0.6-0.7-0.8c-0.8-0.7-1.7-1.2-2.7-1.6
						c-0.4-0.2-0.9-0.5-1.4-0.6s-1,0-1.5,0c-1,0-2-0.2-2.8-0.7c-0.4-0.2-0.9-0.5-1.4-0.7c-1.1-0.3-2.1,0.3-3.2,0.6
						c-0.3,0.1-0.5,0.2-0.8,0.2c-0.8,0-1.5-0.8-2.4-0.8s-1.5,0.7-2.1,1.4c-0.8,1.1-1.7,2.2-2.5,3.2c-0.4,0.5-0.8,1.1-0.9,1.7
						c0,0.1,0,0.2,0,0.2c2.9,0.4,5.9,0.5,8.8,0.8s5.9,1,8.4,2.6c0.9,0.6,1.8,1.4,2.4,2.3C84.2,86.7,85.4,83.8,85,81.1z"/>
				</g>
			</g>
			<g>
				<path class="st0" d="M96.1,151.2c-1.9,2.1-5,3.8-8,3c-0.9-0.3-1.7-0.7-2.4-1.4c-0.9-0.8-1.6-1.9-2.1-3c-0.8-1.9-1.1-4-1.9-5.9
					c-1.5-3.5-4.6-6.2-6.4-9.6c-4.4-8.4,0.6-18.6-2.7-27.4c-0.5-1.2-1.1-2.3-1.4-3.6c-0.5-1.9-0.4-4-1-5.9l0,0
					c-0.3-0.9-0.7-1.7-1.4-2.4c-0.1-1.1,1.1-1.9,2.7-2.4c1.3-0.4,2.9-0.7,4.6-0.7c3.9-0.2,7.8,0.7,7.9,2.7l0,0
					c-0.1,0.2-0.1,0.4-0.2,0.6l0,0c-1.2,4.7-0.3,9.6,1.7,14.2c2,4.7,5.1,9,7.9,13.5c1.2,1.9,2.4,3.9,3.4,5.9l0,0
					c1.3,2.6,2.3,5.3,2.9,8.1C100.6,141.9,99.7,147.3,96.1,151.2z"/>
			</g>
			<g>
				<path class="st0" d="M84.1,94.7L84.1,94.7c0,0.2-0.1,0.4-0.2,0.6l0,0c-0.1,0.2-0.2,0.4-0.3,0.6l-5.5,0.7l-4.4,0.5l-3.4,0.4l0,0
					c-0.8-2.2-3.2-3.5-4.9-5.3c-1.5-1.6-2.6-3.6-3-5.7c-0.2-1.1-0.3-2.2-0.2-3.3c0-0.5,0.1-0.9,0.3-1.3c0,0,0-0.1,0.1-0.1l0,0
					c0.2-0.3,0.4-0.5,0.6-0.7c0.5-0.5,1-1,1.6-1.3c1.2-0.7,2.7-0.9,4.1-0.9s2.8,0.2,4.2,0.3c2.2,0,4.3-0.4,6.5-0.4
					c0.2,0,0.5,0,0.7,0.2c0.2,0.1,0.3,0.3,0.4,0.4c0.8,1.1,1.7,2.2,2.2,3.5c0.4,1,0.5,2,0.6,3c0,0.3,0.1,0.5,0.1,0.8
					s0.1,0.6,0.1,0.8c0.1,1.1,0.2,2.3,0.4,3.4C84.1,92.2,84.3,93.5,84.1,94.7z"/>
			</g>
			<g>
				<path class="st1" d="M85.8,152.8c-0.9-0.8-1.6-1.9-2.1-3c-0.8-1.9-1.1-4-1.9-5.9c-1.5-3.5-4.6-6.2-6.4-9.6
					c-4.4-8.4,0.6-18.6-2.7-27.4c-0.5-1.2-1.1-2.3-1.4-3.6c-0.5-1.9-0.4-4-1-5.9l0,0c-0.8-2.2-3.2-3.5-4.9-5.3
					c-1.5-1.6-2.6-3.6-3-5.7c0.2,0.1,0.4,0.3,0.6,0.4c1.3,0.7,2.7,1.1,4,1.7c1.5,0.7,2.9,1.8,3.9,3.1c0.2,0.3,0.5,0.6,0.7,0.9
					c0.9,1.4,1.5,2.9,2.1,4.4c0.2,0.4,0.3,0.8,0.4,1.2c2,5.4,4.1,10.9,4.7,16.7c0.6,4.9,0.1,9.9,1.1,14.6c0.5,2.5,1.4,5,2.7,7.2
					c1.5,2.7,3.6,5.3,3.9,8.4C86.8,147.7,85.7,150.3,85.8,152.8z"/>
			</g>
			<g>
				<path class="st2" d="M96.9,128.9L96.9,128.9c-0.3,0.6-0.7,1-1.3,1c-0.5,0-0.9-0.3-1.3-0.6c-1.5-1.3-2.3-3.2-3.2-4.9
					c-1.6-3.1-3.6-5.9-6-8.4c-1.3-1.3-2.7-2.6-3.5-4.2s-1-3.5-1.3-5.3c-0.5-3-1.2-6-1.9-8.9c-0.1-0.3-0.1-0.6-0.2-0.9
					c-0.4-1.6-0.9-3.3-1.9-4.6c-0.1-0.1-0.2-0.3-0.3-0.4c-1.2-1.4-3.1-2.5-3.3-4.3c-0.2-1.4,0.6-2.7,1.8-3.4l0,0
					c0.2-0.1,0.3-0.2,0.5-0.2c1.4-0.6,3.1-0.3,4.5,0.3c1.6,0.7,2.8,1.9,3.9,3.3c0.1,0.2,0.3,0.3,0.4,0.5c0.1,1.1,0.2,2.3,0.4,3.4
					c0.1,1.1,0.3,2.5,0.1,3.6l0,0c0,0.2-0.1,0.4-0.2,0.6l0,0c-1.2,4.7-0.3,9.6,1.7,14.2c2,4.7,5.1,9,7.9,13.5
					C94.7,124.9,95.8,126.8,96.9,128.9z"/>
			</g>
		</g>
		<g>
			<g>
				<g>
					<path class="st1" d="M216.4,82.6c-0.1,0.3-0.2,0.7-0.3,1L216.4,82.6z"/>
				</g>
				<g>
					<path class="st1" d="M216.4,82.6c0-0.1,0-0.1,0-0.2l0,0V82.6z"/>
				</g>
				<g>
					<path class="st2" d="M193.9,81.1c0.1-0.3,0.1-0.6,0.3-0.9s0.5-0.6,0.7-0.8c0.8-0.7,1.7-1.2,2.7-1.6c0.4-0.2,0.9-0.5,1.4-0.6
						s1,0,1.5,0c1,0,2-0.2,2.8-0.7c0.4-0.2,0.9-0.5,1.4-0.7c1.1-0.3,2.1,0.3,3.2,0.6c0.3,0.1,0.5,0.2,0.8,0.2c0.8,0,1.5-0.8,2.4-0.8
						s1.5,0.7,2.1,1.4c0.8,1.1,1.7,2.2,2.5,3.2c0.4,0.5,0.8,1.1,0.9,1.7c0,0.1,0,0.2,0,0.2c-2.9,0.4-5.9,0.5-8.8,0.8
						c-2.9,0.3-5.9,1-8.4,2.6c-0.9,0.6-1.8,1.4-2.4,2.3C194.6,86.7,193.4,83.8,193.9,81.1z"/>
				</g>
			</g>
			<g>
				<path class="st0" d="M182.7,151.2c1.9,2.1,5,3.8,8,3c0.9-0.3,1.7-0.7,2.4-1.4c0.9-0.8,1.6-1.9,2.1-3c0.8-1.9,1.1-4,1.9-5.9
					c1.5-3.5,4.6-6.2,6.4-9.6c4.4-8.4-0.6-18.6,2.7-27.4c0.5-1.2,1.1-2.3,1.4-3.6c0.5-1.9,0.4-4,1-5.9l0,0c0.3-0.9,0.7-1.7,1.4-2.4
					c0.1-1.1-1.1-1.9-2.7-2.4c-1.3-0.4-2.9-0.7-4.6-0.7c-3.9-0.2-7.8,0.7-7.9,2.7l0,0c0.1,0.2,0.1,0.4,0.2,0.6l0,0
					c1.2,4.7,0.3,9.6-1.7,14.2c-2,4.7-5.1,9-7.9,13.5c-1.2,1.9-2.4,3.9-3.4,5.9l0,0c-1.3,2.6-2.3,5.3-2.9,8.1
					C178.2,141.9,179.1,147.3,182.7,151.2z"/>
			</g>
			<g>
				<path class="st0" d="M194.8,94.7L194.8,94.7c0,0.2,0.1,0.4,0.2,0.6l0,0c0.1,0.2,0.2,0.4,0.3,0.6l5.5,0.7l4.4,0.5l3.4,0.4l0,0
					c0.8-2.2,3.2-3.5,4.9-5.3c1.5-1.6,2.6-3.6,3-5.7c0.2-1.1,0.3-2.2,0.2-3.3c0-0.5-0.1-0.9-0.3-1.3c0,0,0-0.1-0.1-0.1l0,0
					c-0.2-0.3-0.4-0.5-0.6-0.7c-0.5-0.5-1-1-1.6-1.3c-1.2-0.7-2.7-0.9-4.1-0.9c-1.4,0-2.8,0.2-4.2,0.3c-2.2,0-4.3-0.4-6.5-0.4
					c-0.2,0-0.5,0-0.7,0.2c-0.2,0.1-0.3,0.3-0.4,0.4c-0.8,1.1-1.7,2.2-2.2,3.5c-0.4,1-0.5,2-0.6,3c0,0.3-0.1,0.5-0.1,0.8
					s-0.1,0.6-0.1,0.8c-0.1,1.1-0.2,2.3-0.4,3.4C194.8,92.2,194.6,93.5,194.8,94.7z"/>
			</g>
			<g>
				<path class="st2" d="M193.1,152.8c0.9-0.8,1.6-1.9,2.1-3c0.8-1.9,1.1-4,1.9-5.9c1.5-3.5,4.6-6.2,6.4-9.6
					c4.4-8.4-0.6-18.6,2.7-27.4c0.5-1.2,1.1-2.3,1.4-3.6c0.5-1.9,0.4-4,1-5.9l0,0c0.8-2.2,3.2-3.5,4.9-5.3c1.5-1.6,2.6-3.6,3-5.7
					c-0.2,0.1-0.4,0.3-0.6,0.4c-1.3,0.7-2.7,1.1-4,1.7c-1.5,0.7-2.9,1.8-3.9,3.1c-0.2,0.3-0.5,0.6-0.7,0.9c-0.9,1.4-1.5,2.9-2.1,4.4
					c-0.2,0.4-0.3,0.8-0.4,1.2c-2,5.4-4.1,10.9-4.7,16.7c-0.6,4.9-0.1,9.9-1.1,14.6c-0.5,2.5-1.4,5-2.7,7.2
					c-1.5,2.7-3.6,5.3-3.9,8.4C192.1,147.7,193.1,150.3,193.1,152.8z"/>
			</g>
			<g>
				<path class="st1" d="M182,128.9L182,128.9c0.3,0.6,0.7,1,1.3,1c0.5,0,0.9-0.3,1.3-0.6c1.5-1.3,2.3-3.2,3.2-4.9
					c1.6-3.1,3.6-5.9,6-8.4c1.3-1.3,2.7-2.6,3.5-4.2s1-3.5,1.3-5.3c0.5-3,1.2-6,1.9-8.9c0.1-0.3,0.1-0.6,0.2-0.9
					c0.4-1.6,0.9-3.3,1.9-4.6c0.1-0.1,0.2-0.3,0.3-0.4c1.2-1.4,3.1-2.5,3.3-4.3c0.2-1.4-0.6-2.7-1.8-3.4l0,0
					c-0.2-0.1-0.3-0.2-0.5-0.2c-1.4-0.6-3.1-0.3-4.5,0.3c-1.6,0.7-2.8,1.9-3.9,3.3c-0.1,0.2-0.3,0.3-0.4,0.5
					c-0.1,1.1-0.2,2.3-0.4,3.4c-0.1,1.1-0.3,2.5-0.1,3.6l0,0c0,0.2,0.1,0.4,0.2,0.6l0,0c1.2,4.7,0.3,9.6-1.7,14.2
					c-2,4.7-5.1,9-7.9,13.5C184.2,124.9,183,126.8,182,128.9z"/>
			</g>
		</g>
	</g>
	<g>
		<path class="st17" d="M177.2,175.9c0,0-30.4,23.7-60.8,7.4c0,0-14.5-8.2-18-8.5c-0.4-0.1-0.6-0.7-0.6-1.4
			c-0.2-3.8,3.4-13.5,5.4-12.8c0,0,11.5,8.5,27.9,10.9c11.6,1.7,25.6,0.2,39.7-9.6c0,0,1.8,0.6,3.5,3.6c1,1.7,1.9,4.1,2.6,7.5
			C176.9,173.8,177.1,174.8,177.2,175.9z"/>
		<g>
			<path class="st16" d="M176.7,172.9c-2.7,2.2-6.1,3.6-9.5,4.1c-1.9,0.3-3.8,0.2-5.7,0.5c-2.2,0.3-4.4,1.1-6.6,1.7
				c-10.4,3-21.7,2.9-32.1-0.1c-0.8-0.2-1.6-0.6-1.9-1.3c-0.3-0.8,0.4-1.7,1.2-2s1.7-0.2,2.6,0c17,2.5,34.9-1.2,49.5-10.3
				C175.1,167,176.1,169.4,176.7,172.9z"/>
		</g>
		<g>
			<path class="st4" d="M130.9,171.4c-2.5,1.4-5.6,1.5-8.4,1.2c-4.6-0.5-9.2-1.6-13.5-3.4c-1.2-0.5-2.4-1-3.6-1
				c-2.2,0.1-3.9,1.9-5.5,3.5c-0.6,0.6-1.4,1.3-2.2,1.8c-0.2-3.8,3.4-13.5,5.4-12.8C103,160.6,114.6,169.1,130.9,171.4z"/>
		</g>
	</g>
</g>
</svg>
