<?xml version="1.0" encoding="utf-8"?>
<!-- Generator: Adobe Illustrator 23.0.2, SVG Export Plug-In . SVG Version: 6.00 Build 0)  -->
<svg version="1.1" xmlns="http://www.w3.org/2000/svg" xmlns:xlink="http://www.w3.org/1999/xlink" x="0px" y="0px"
	 viewBox="0 0 304.9 429.7" style="enable-background:new 0 0 304.9 429.7;" xml:space="preserve">
<style type="text/css">
	.st0{fill:#D59F82;}
	.st1{fill:#B88469;}
	.st2{fill:#EFB392;}
	.st3{fill:#242424;}
	.st4{fill:#101010;}
	.st5{fill:#343434;}
	.st6{fill:#EDECEB;}
	.st7{fill:#FFFDFC;}
	.st8{fill:#7D623A;}
	.st9{fill:#624922;}
	.st10{fill:#181007;}
	.st11{fill:#A68250;}
	.st12{fill:#DAD9D8;}
	.st13{fill:#B3B2B0;}
	.st14{opacity:0.8;}
	.st15{fill:#BEBCBB;}
	.st16{fill:#303030;}
	.st17{fill:#191919;}
</style>
<g id="Camada_1">
</g>
<g id="Camada_2">
	<g>
		<g>
			<g>
				<g>
					<g>
						<path class="st0" d="M128.9,386.6c-0.3,1.9-1.2,3.7-2.6,5.1c-0.5,0.5-1,0.9-1.6,1.2c-1.1,0.7-2.4,1.1-3.8,1.1s-2.8-0.3-4.1-1
							c-0.9-0.5-1.7-1.1-2.3-1.8c-1.6-1.8-2.4-4.1-2.5-6.4c-0.1-1.4,0.1-2.8,0.3-4.3c0.5-4.4,0.6-8.9,0.4-13.3l-0.1-0.5
							c1.5-0.6,3-1.1,4.6-1.4c2.5-0.5,5.1-0.5,7.6,0c0.5,0.1,0.9,0.2,1.4,0.3c0.8,0.2,1.7,0.5,2.1,1.2c0.4,0.6,0.3,1.3,0.3,2
							c-0.2,3.9-0.1,7.7,0.2,11.6C129,382.4,129.3,384.5,128.9,386.6z"/>
					</g>
					<g>
						<path class="st1" d="M118.7,387c-0.3,2.1-0.9,4.1-1.9,6c-0.9-0.5-1.7-1.1-2.3-1.8c-1.6-1.8-2.4-4.1-2.5-6.4
							c-0.1-1.4,0.1-2.8,0.3-4.3c0.5-4.4,0.6-8.9,0.4-13.3l-0.1-0.5c1.5-0.6,3-1.1,4.6-1.4c0.1,3,0.6,6.1,1,9.1
							C118.8,378.5,119.4,382.8,118.7,387z"/>
					</g>
					<g>
						<path class="st2" d="M128.9,386.6c-0.3,1.9-1.2,3.7-2.6,5.1c-0.5,0.5-1,0.9-1.6,1.2c0.5-3.7,1.4-7.4,1.8-11.2
							c0.6-5.6,0-11.3-1.7-16.6c0.5,0.1,0.9,0.2,1.4,0.3c0.8,0.2,1.7,0.5,2.1,1.2c0.4,0.6,0.3,1.3,0.3,2c-0.2,3.9-0.1,7.7,0.2,11.6
							C129,382.4,129.3,384.5,128.9,386.6z"/>
					</g>
				</g>
				<g>
					<g>
						<path class="st3" d="M151.3,218.5c-1.3,8.9-2.5,17.9-5.6,26.4c-2.3,6.2-5.9,6.8-7.6,13.2c-1.6,6.1-1.8,12.5-1.6,18.7
							c0.2,5.7,0.8,11.5-0.8,17c-0.8,3.1-2.3,6-2.9,9.2c-1.7,8.4,3,16.9,3.2,25.5c0.2,7.3-2.8,14.4-4.5,21.5
							c-0.2,0.7-0.3,1.5-0.5,2.2c-1,4.6-1.4,9.4-1.3,14.1c0,1.2,0.1,2.3,0.2,3.5c0,1-0.5,1.3-1.5,1.5c-0.5,0.1-1.1,0.2-1.6,0.3
							c-2.6,0.4-5.4,0.3-8,0.2c-0.1,0-0.3,0-0.6,0c-1.7,0-5.9-0.2-5.9-1.3c-2.2-14.3-4.5-28.7-4.2-43.1c0.1-5.1,0.5-10.1,0.6-15.2
							c0.2-9.6-0.5-19.2-2.3-28.7c-1-5.4-2.3-10.6-3.1-16c-4.2-27.7,4.6-55.5,6.4-83.3c0.6-8.9,1-19,8-25c1.6-2.4,4.4-3.4,7.7-3.4
							c11.7,0.2,29.8,13,24.4,21.5l1.1,31L151.3,218.5z"/>
					</g>
					<g>
						<path class="st4" d="M133.1,185.6c-1.2,2.7-3.3,4.8-5,7.2c-7.9,11.3-5.5,26.1-7.2,39.6c-1.5,11.1-6,21.8-6.8,33
							c-1,13.8,3.6,27.5,3.2,41.4c-0.2,6-1.4,11.9-1.7,17.9c-0.9,15.7,3.7,31.5,2.6,47.2c-1.7,0-5.9-0.2-5.9-1.3
							c-2.2-14.3-4.5-28.7-4.2-43.1c0.1-5.1,0.5-10.1,0.6-15.2c0.2-9.6-0.5-19.2-2.3-28.7c-1-5.4-2.3-10.6-3.1-16
							c-4.2-27.7,4.6-55.5,6.4-83.3c0.6-8.9,1-19,8-25c1.6-2.4,4.4-3.4,7.7-3.4c4.1,5.5,7,11.9,8.3,18.6
							C134.5,178.2,134.7,182.1,133.1,185.6z"/>
					</g>
					<g>
						<path class="st5" d="M151.3,218.5c-1.3,8.9-2.5,17.9-5.6,26.4c-2.3,6.2-5.9,6.8-7.6,13.2c-1.6,6.1-1.8,12.5-1.6,18.7
							c0.2,5.7,0.8,11.5-0.8,17c-0.8,3.1-2.3,6-2.9,9.2c-1.7,8.4,3,16.9,3.2,25.5c0.2,7.3-2.8,14.4-4.5,21.5
							c-0.2,0.7-0.3,1.5-0.5,2.2c-1,4.6-1.4,9.4-1.3,14.1c0,1.2,0.1,2.3,0.2,3.5c0,1-0.5,1.3-1.5,1.5c-0.5,0.1-1.1,0.2-1.6,0.3
							c-0.5-9.9-0.9-19.9,0.8-29.6c0.8-4.5,2.1-9,2.1-13.6c0-5-1.5-10-2.4-14.9c-3.8-21.3,4.7-42.6,7.5-64c1-7.3,1.3-14.7,3.7-21.7
							c2.7-7.9,8.1-9.5,11.6-17.1c0.3-0.8,0.7-1.5,1-2.3L151.3,218.5z"/>
					</g>
				</g>
				<g>
					<path class="st2" d="M143.1,364c0.1,0.2,0.2,0.4,0.2,0.6l0,0L143.1,364z"/>
				</g>
				<g>
					<g>
						<g>
							<path class="st6" d="M137.2,400.8c0,0.3,0,0.6-0.1,0.8c-0.2,0.9-0.7,1.8-1.4,2.5c-2.8,3.1-7.4,4.1-11.6,4
								c-4.2-0.1-8.4-1-12.6-0.6c-5.9,0.5-11.3,3.4-17.2,4.2c-3.7,0.5-7.5,0.2-11.1-0.5c-1.4-0.3-2.8-0.7-4-1.4
								c-1.2-0.8-2.2-2-2.3-3.4c0-0.5,0-0.9,0.2-1.4c0.3-0.7,0.7-1.3,1.4-1.6c2.7,0.3,5.4,0.5,8.1,0.2c1.9-0.2,3.8-0.7,5.6-1.1
								c10.1-2.5,20.2-4.9,30.3-7.4c2.7-0.7,5.6-1.3,8.4-0.7c1.8,0.4,3.4,1.4,4.6,2.8C136.5,398.2,137.1,399.5,137.2,400.8z"/>
						</g>
						<path class="st7" d="M137.2,400.8c-2.8,1-5.9,1.2-8.9,1.4c-8.6,0.6-17.2,1.5-25.4,4.2c-2.3,0.7-4.5,1.6-6.8,2.2
							c-3.4,0.8-6.9,0.9-10.3,0.2c-0.2,0-0.4-0.1-0.6-0.1c-1.6-0.4-3.2-0.9-4.7-1.7c-1.2-0.6-2.2-1.3-3.2-2.1
							c0.3-0.7,0.7-1.3,1.4-1.6c2.7,0.3,5.4,0.5,8.1,0.2c1.9-0.2,3.8-0.7,5.6-1.1c10.1-2.5,20.2-4.9,30.3-7.4
							c2.7-0.7,5.6-1.3,8.4-0.7c1.8,0.4,3.4,1.4,4.6,2.8C136.5,398.2,137.1,399.5,137.2,400.8z"/>
					</g>
					<g>
						<path class="st3" d="M135.6,397.6c-0.5,0.6-1.1,1.2-1.6,1.8c-0.3,0.5-0.9,0.7-1.5,0.9c-1.2,0.5-2.6,0.7-3.9,0.8
							c-1.4,0.1-2.7,0.1-4.1,0.1c-4.3-0.1-8.6,0-12.7,1.1c-2.6,0.7-5.1,1.7-7.7,2.6c-6.2,2.3-12.9,3.8-19.5,3.1
							c-1.9-0.2-3.9-0.6-5.5-1.7c-0.9-0.6-1.6-1.4-1.7-2.5c0-1.2,1-2.2,2-2.9c2.9-2.1,6.4-3.2,9.9-4.3c3.8-1.2,7.6-2.4,10.6-4.9
							c2.6-2.1,4.6-5,7.5-6.6c0.2-0.1,0.4-0.2,0.6-0.3c2-0.9,4.4-1.1,6.5-0.4c0.5,0.1,0.9,0.3,1.2,0.6c0.2,0.2,0.4,0.3,0.6,0.4
							c0.9,0.6,1.8,1.2,2.8,1.7c0.9,0.6,2,1.2,3.1,1.1c1.4-0.2,2.3-1.4,3.1-2.5c1.2-1.6,2.3-3.3,3.5-4.9c-0.1,1,0.4,2,1.1,2.7
							s1.6,1.3,2.2,2c1.3,1.5,1.8,3.6,2.1,5.6C134.8,393.4,135.2,395.5,135.6,397.6z"/>
					</g>
					<g>
						<path class="st4" d="M107.7,387c-0.1,0.8-0.6,1.5-1,2.1c-1.1,1.5-2.6,2.7-4.1,3.8c-1.9,1.4-4,2.8-6.3,3.5
							c-2.2,0.8-4.7,1-7,0.2c3.8-1.2,7.6-2.4,10.6-4.9c2.6-2.1,4.6-5,7.5-6.6C107.7,385.8,107.8,386.4,107.7,387z"/>
					</g>
					<g>
						<g>
							<path class="st4" d="M114.6,385.6c-1,1.8-3.2,2.5-5.2,2.7c-1.9,0.2-3.9,0-5.8,0.4c2.1-3.3,3.4-7,3.8-10.9
								c0.1-0.6,0.7-0.9,1.2-0.6c1.3,0.7,2.5,1.6,3.2,2.8c0.9,1.4,1.1,3.3,2.4,4.3c0.2,0.1,0.4,0.3,0.5,0.5
								C114.9,385.1,114.8,385.4,114.6,385.6z"/>
						</g>
					</g>
				</g>
			</g>
			<g>
				<g>
					<g>
						<path class="st0" d="M201,386.5c0.6,1.9,1.7,3.6,3.3,4.9c0.5,0.4,1.1,0.8,1.7,1.1c1.2,0.6,2.5,0.9,3.8,0.8
							c1.4-0.1,2.7-0.5,3.8-1.3c0.8-0.5,1.4-1.2,2-2c1.3-1.9,1.7-4.3,1.4-6.6c-0.2-1.4-0.5-2.8-0.9-4.2c-1.1-4.4-1.9-8.8-2.3-13.3
							v-0.6c-1.5-0.5-3.1-0.9-4.6-1c-2.5-0.3-5-0.1-7.3,0.5c-0.4,0.1-0.9,0.2-1.3,0.4c-0.8,0.3-1.6,0.6-1.9,1.3
							c-0.3,0.6-0.1,1.4,0,2c0.8,3.8,1.3,7.7,1.5,11.6C200.3,382.2,200.3,384.4,201,386.5z"/>
					</g>
					<g>
						<path class="st1" d="M210.9,386.1c0.6,2,1.5,4,2.7,5.8c0.8-0.5,1.4-1.2,2-2c1.3-1.9,1.7-4.3,1.4-6.6c-0.2-1.4-0.5-2.8-0.9-4.2
							c-1.1-4.4-1.9-8.8-2.3-13.3v-0.6c-1.5-0.5-3.1-0.9-4.6-1c0.3,3,0.3,6.1,0.4,9.2C209.6,377.7,209.7,382,210.9,386.1z"/>
					</g>
					<g>
						<path class="st2" d="M201,386.5c0.6,1.9,1.7,3.6,3.3,4.9c0.5,0.4,1.1,0.8,1.7,1.1c-1-3.7-2.5-7.3-3.4-11
							c-1.4-5.5-1.7-11.2-0.7-16.6c-0.4,0.1-0.9,0.2-1.3,0.4c-0.8,0.3-1.6,0.6-1.9,1.3c-0.3,0.6-0.1,1.4,0,2
							c0.8,3.8,1.3,7.7,1.5,11.6C200.3,382.2,200.3,384.4,201,386.5z"/>
					</g>
				</g>
				<g>
					<g>
						<path class="st3" d="M152.3,221.4c2.7,8.8,5.3,17.6,9.8,25.8c3.3,6,7.1,6.4,9.8,12.6c2.6,6,3.7,12.3,4.4,18.6
							c0.6,5.7,0.9,11.5,3.3,16.9c1.4,3,3.3,5.8,4.5,8.9c3,8.3-0.6,17,0.4,25.6c0.9,7.3,5.1,14.1,7.9,21.1c0.3,0.7,0.6,1.4,0.9,2.2
							c1.7,4.6,2.9,9.2,3.5,14c0.1,1.2,0.2,2.3,0.3,3.5c0.1,1,0.7,1.2,1.8,1.4c0.6,0.1,1.2,0.1,1.8,0.2c2.8,0.2,5.7-0.1,8.4-0.4
							c0.1,0,0.4,0,0.7-0.1c1.8-0.2,6.1-0.6,6-1.7c0.2-14.4,0.4-28.9-2-43.3c-0.9-5-2-10-2.9-15.1c-1.7-9.5-2.3-19.2-1.9-28.7
							c0.2-5.4,0.8-10.8,0.9-16.2c0.3-27.9-13.1-54.9-19.2-82.5c-1.9-8.9-3.8-18.9-12.1-24.3c-2-2.3-5.1-3.1-8.6-2.7
							c-12.2,1.1-29.3,15.3-22.4,23.3l3.5,30.9L152.3,221.4z"/>
					</g>
					<g>
						<path class="st5" d="M166.3,187.3c1.6,2.6,4.2,4.6,6.3,6.8c10,10.7,9.6,25.6,13.5,38.8c3.2,11,9.5,21.2,12.1,32.3
							c3.1,13.7,0.3,27.7,2.9,41.5c1.1,5.9,3.2,11.8,4.5,17.7c3.3,15.6,0.9,31.7,4.3,47.2c1.8-0.2,6.1-0.6,6-1.7
							c0.2-14.4,0.4-28.9-2-43.3c-0.9-5-2-10-2.9-15.1c-1.7-9.5-2.3-19.2-1.9-28.7c0.2-5.4,0.8-10.8,0.9-16.2
							c0.3-27.9-13.1-54.9-19.2-82.5c-1.9-8.9-3.8-18.9-12.1-24.3c-2-2.3-5.1-3.1-8.6-2.7c-3.5,5.8-5.6,12.4-5.9,19.1
							C163.8,179.9,164.2,183.9,166.3,187.3z"/>
					</g>
					<g>
						<path class="st4" d="M191.2,329.3c-0.8-5,0.1-10.1,0.3-15.1l0,0c-0.5-1.1-0.7-2.4-0.7-3.6c0-1.5-0.1-3.1-0.2-4.6
							c0-0.6-0.1-1.2-0.2-1.7c-0.4-2.3-0.9-4.6-1.5-6.9c-1.2-4.6-2.7-9.5-4.7-13.8c0.1,0.2-0.1-0.1-0.4-0.8
							c-0.2-0.6-0.5-1.1-0.8-1.6c-0.4-0.9-0.8-1.7-1.3-2.6c-1-1.9-2-3.8-3.1-5.7c-1.5-2.6-3.2-5.2-4.8-7.8c1.3,4.4,2,8.9,2.5,13.3
							c0.6,5.7,0.9,11.5,3.3,16.9c1.4,3,3.3,5.8,4.5,8.9c3,8.3-0.6,17,0.4,25.6c0.9,7.3,5.1,14.1,7.9,21.1c0.3,0.7,0.6,1.4,0.9,2.2
							c1.7,4.6,2.9,9.2,3.5,14c0.1,1.2,0.2,2.3,0.3,3.5c0.1,1,0.7,1.2,1.8,1.4c0.6,0.1,1.2,0.1,1.8,0.2c-0.9-9.9-2-19.9-5.3-29.5
							C194,338.2,191.9,333.8,191.2,329.3z"/>
					</g>
				</g>
			</g>
			<g>
				<g>
					<g>
						<path class="st6" d="M225.9,415.6c-1,2.3-3.3,3.7-5.4,4.8c-3,1.3-6.2,2.4-9.3,2.5c-2,0.1-4-0.2-6-0.8c-3.2-1-5.9-3.3-7.3-6.4
							c0,0,0,0,0-0.1c0.1-0.6,0.2-1.3,0.4-1.9c0.4-1.9,1-3.8,1.7-5.6l-0.1,1.7c0.7-0.6,1.5-1.1,2.3-1.5c1.4-0.6,2.9-0.8,4.4-1
							c3.2-0.4,6.5-0.9,9.7-0.6c1.9,0.2,3.9,0.6,5.6,1.6c1.7,1,3.1,2.5,3.7,4.3c0,0.1,0.1,0.2,0.1,0.3
							C225.9,414,225.9,414.8,225.9,415.6z"/>
					</g>
					<g>
						<path class="st7" d="M225.7,413.2c-0.1,0.1-0.1,0.2-0.2,0.2c-1.2,1.5-3,2.5-4.7,3.3c-3.7,1.7-7.6,3-11.7,3
							c-0.9,0-1.8-0.1-2.6-0.2c-1.3-0.1-2.6-0.3-3.7-0.9c-2-0.9-3.4-2.7-4.4-4.7c0.4-1.9,1-3.8,1.7-5.6L200,410
							c0.7-0.6,1.5-1.1,2.3-1.5c1.4-0.6,2.9-0.8,4.4-1c3.2-0.4,6.5-0.9,9.7-0.6c1.9,0.2,3.9,0.6,5.6,1.6c1.7,1,3.1,2.5,3.7,4.3
							C225.6,413,225.6,413.1,225.7,413.2z"/>
					</g>
				</g>
				<g>
					<path class="st3" d="M223.4,405.9c-1-5.4-3.7-10.5-4.3-15.9c-0.3-2.4-0.2-5.1-1.8-6.9c-1.8-2.1-4.9-2.3-7.6-2.2
						c-3.8,0.1-8.2,0.9-10,4.1l-0.2,0.1c1.3,8-0.4,16.1-0.6,24.3c0,1.9,0,3.9,1,5.5c1.1,1.7,3,2.7,4.9,3.2
						c5.3,1.5,11.3,0.2,15.5-3.3c1.4-1.1,2.6-2.6,3.1-4.3C223.7,408.9,223.6,407.4,223.4,405.9z"/>
				</g>
				<g>
					<path class="st4" d="M214.7,395.2c-0.3,2.5-1.4,5.2-3.7,6.2c-1.6,0.8-3.7,0.5-5.2-0.6c-2-1.5-2.6-4.2-2.6-6.7
						c-0.1-2.5,0.3-5-0.4-7.4c-0.5-1.8-1.5-3.9-0.9-5.7l0,0c1.1-1.9,2.9-3.4,5.1-3.8c2.8-0.5,5.9,1,7,3.6c0.9,2.1,0.5,4.4,0.5,6.7
						C214.4,390.2,214.9,392.7,214.7,395.2z"/>
				</g>
			</g>
		</g>
		<g>
			<g>
				<g>
					<g>
						<path class="st0" d="M126.8,93.1c-1.3,5.8-3.3,11.5-6.1,16.9l0.5-1.1c-1.3,2.1-0.9,4.6-1.3,7c-0.3,1.9-1.1,3.7-1.7,5.5
							c-0.8,2.3-1.3,4.6-1.7,6.9c-0.7,4.9-0.4,10.1-2.1,14.8l0,0c-0.2,0.5-0.4,1.1-0.7,1.6c-0.3,0.6-0.6,1.3-1,1.8
							c-0.8,1.2-1.7,2.4-2.6,3.5c-0.5,0.6-1,1.1-1.5,1.7c-0.2,0.3-0.5,0.5-0.8,0.8c-0.1,0.1-0.2,0.3-0.3,0.4
							c-0.5,0.6-1.3,1.2-1.9,1.6c-1.2,0.8-2.5,1.5-3.9,1.4c-1.7-0.2-3-1.7-3.6-3.2c-1.1-2.6-0.8-5.5-0.5-8.3
							c0.1-0.8,0.1-1.5,0.2-2.3c0.3-3.3,0.6-6.5,0.9-9.8s0.6-6.5,0.9-9.8c0.1-0.8,0.2-1.6,0.2-2.4c0.1-0.5,0.3-1,0.4-1.5
							c0.2-1.7,0.2-3.5,0.4-5.2c0.2-2,0.5-4,0.8-6c0.6-3.9,1.4-7.8,2.2-11.6c0.4-1.7,0.7-3.5,1.4-5.2c0.7-1.8,1.7-3.5,3-5
							c0.6-0.7,1.2-1.3,2-1.8s1.8-0.7,2.7-0.9c2.5-0.6,5-1.1,7.3-2.1c2.6-1.1,5-2.7,7.8-3.5l0.3-0.1
							C128.5,82.6,127.9,87.9,126.8,93.1z"/>
					</g>
					<g>
						<path class="st1" d="M122.3,79.9c-0.8,1-1.9,1.9-3,2.6c-2,1.3-4.2,2.3-6,3.9c-2.7,2.5-4,6.1-5,9.7c-0.7,2.6-1.2,5.3-1.2,8
							c0,1.6,0.2,3.1,0,4.7c-0.2,1.5-0.7,2.9-1.1,4.3c-4.3,13.7-1.7,28.5-3.7,42.7v0.1c-0.1,0-0.3,0-0.4,0c-1.7-0.2-3-1.7-3.6-3.2
							c-1.1-2.6-0.8-5.5-0.5-8.3c0.1-0.8,0.1-1.5,0.2-2.3c0.3-3.3,0.6-6.5,0.9-9.8s0.6-6.5,0.9-9.8c0.1-0.8,0.2-1.6,0.2-2.4
							c0.1-0.5,0.3-1,0.4-1.5c0.2-1.7,0.2-3.5,0.4-5.2c0.2-2,0.5-4,0.8-6c0.6-3.9,1.4-7.8,2.2-11.6c0.4-1.7,0.7-3.5,1.4-5.2
							c0.7-1.8,1.7-3.5,3-5c0.6-0.7,1.2-1.3,2-1.8s1.8-0.7,2.7-0.9c2.5-0.6,5-1.1,7.3-2.1C121,80.6,121.7,80.2,122.3,79.9z"/>
					</g>
					<g>
						<path class="st2" d="M120.7,109.9l0.5-1.1c-1.3,2.1-0.9,4.6-1.3,7c-0.3,1.9-1.1,3.7-1.7,5.5c-0.8,2.3-1.3,4.6-1.7,6.9
							c-0.7,4.9-0.4,10.1-2.1,14.8c0-0.5,0.1-1,0-1.4c-0.1-2.2-0.9-4.3-1.4-6.5c-1-4.7,0.1-9.6,0.5-14.5c0.3-3.8,0.2-7.7,0.6-11.5
							c0.2-1.8,0.5-3.6,1.2-5.2c0.6-1.4,1.5-2.6,2.5-3.7c2.5-2.9,5.5-5.3,8.9-7.1C125.6,98.9,123.5,104.6,120.7,109.9z"/>
					</g>
				</g>
			</g>
			<g>
				<g>
					<g>
						<path class="st0" d="M176,93.1c1.3,5.8,3.3,11.5,6.1,16.9l-0.5-1.1c1.3,2.1,0.9,4.6,1.3,7c0.3,1.9,1.1,3.7,1.7,5.5
							c0.8,2.3,1.3,4.6,1.7,6.9c0.7,4.9,0.4,10.1,2.1,14.8l0,0c0.2,0.5,0.4,1.1,0.7,1.6c0.3,0.6,0.6,1.3,1,1.8
							c0.8,1.2,1.7,2.4,2.6,3.5c0.5,0.6,1,1.1,1.5,1.7c0.2,0.3,0.5,0.5,0.8,0.8c0.1,0.1,0.2,0.3,0.3,0.4c0.5,0.6,1.3,1.2,1.9,1.6
							c1.2,0.8,2.5,1.5,3.9,1.4c1.7-0.2,3-1.7,3.6-3.2c1.1-2.6,0.8-5.5,0.5-8.3c-0.1-0.8-0.1-1.5-0.2-2.3c-0.3-3.3-0.6-6.5-0.9-9.8
							c-0.3-3.3-0.6-6.5-0.9-9.8c-0.1-0.8-0.2-1.6-0.2-2.4c-0.1-0.5-0.3-1-0.4-1.5c-0.2-1.7-0.2-3.5-0.4-5.2c-0.2-2-0.5-4-0.8-6
							c-0.6-3.9-1.4-7.8-2.2-11.6c-0.4-1.7-0.7-3.5-1.4-5.2c-0.7-1.8-1.7-3.5-3-5c-0.6-0.7-1.2-1.3-2-1.8s-1.8-0.7-2.7-0.9
							c-2.5-0.6-5-1.1-7.3-2.1c-2.6-1.1-5-2.7-7.8-3.5l-0.3-0.1C174.4,82.6,174.9,87.9,176,93.1z"/>
					</g>
					<g>
						<path class="st2" d="M180.5,79.9c0.8,1,1.9,1.9,3,2.6c2,1.3,4.2,2.3,6,3.9c2.7,2.5,4,6.1,5,9.7c0.7,2.6,1.2,5.3,1.2,8
							c0,1.6-0.2,3.1,0,4.7c0.2,1.5,0.7,2.9,1.1,4.3c4.3,13.7,1.7,28.5,3.7,42.7v0.1c0.1,0,0.3,0,0.4,0c1.7-0.2,3-1.7,3.6-3.2
							c1.1-2.6,0.8-5.5,0.5-8.3c-0.1-0.8-0.1-1.5-0.2-2.3c-0.3-3.3-0.6-6.5-0.9-9.8c-0.3-3.3-0.6-6.5-0.9-9.8
							c-0.1-0.8-0.2-1.6-0.2-2.4c-0.1-0.5-0.3-1-0.4-1.5c-0.2-1.7-0.2-3.5-0.4-5.2c-0.2-2-0.5-4-0.8-6c-0.6-3.9-1.4-7.8-2.2-11.6
							c-0.4-1.7-0.7-3.5-1.4-5.2c-0.7-1.8-1.7-3.5-3-5c-0.6-0.7-1.2-1.3-2-1.8s-1.8-0.7-2.7-0.9c-2.5-0.6-5-1.1-7.3-2.1
							C181.9,80.6,181.2,80.2,180.5,79.9z"/>
					</g>
					<g>
						<path class="st1" d="M182.1,109.9l-0.5-1.1c1.3,2.1,0.9,4.6,1.3,7c0.3,1.9,1.1,3.7,1.7,5.5c0.8,2.3,1.3,4.6,1.7,6.9
							c0.7,4.9,0.4,10.1,2.1,14.8c0-0.5-0.1-1,0-1.4c0.1-2.2,0.9-4.3,1.4-6.5c1-4.7-0.1-9.6-0.5-14.5c-0.3-3.8-0.2-7.7-0.6-11.5
							c-0.2-1.8-0.5-3.6-1.2-5.2c-0.6-1.4-1.5-2.6-2.5-3.7c-2.5-2.9-5.5-5.3-8.9-7.1C177.3,98.9,179.4,104.6,182.1,109.9z"/>
					</g>
				</g>
			</g>
			<path class="st0" d="M151.4,115.6c-27.4-1.1-24.8-24.6-22.7-34.1c0.6-2.4,1.1-3.9,1.1-3.9c5.8-1.3,8.3-4.5,9.3-7.8
				c1.5-5.3-0.8-11.1-0.9-11.3l26.6,0.8c0,0-1,5.8-1,9.4c0,0.5,0,0.9,0.1,1.3c0.4,3.4,9.4,7,9.4,7s0.4,1.4,0.9,3.6l0,0
				C176.2,90.3,179.4,116.7,151.4,115.6z"/>
			<g>
				<path class="st1" d="M141.7,81.6c-0.8,0.9-2.2,0.9-3.4,0.8c-3.2-0.3-6.4-0.6-9.7-0.9c0.6-2.4,1.1-3.9,1.1-3.9
					c5.8-1.3,8.3-4.5,9.3-7.8c1,3,2.6,6,3.1,9.2C142.3,79.8,142.3,80.9,141.7,81.6z"/>
			</g>
			<g>
				<path class="st1" d="M174.1,80.5L174.1,80.5c0,0.8-0.1,1.6-0.5,2.4c-1.4-1.1-3.4-1-5.1-0.6c-1.7,0.4-3.4,1.1-5.2,0.8
					c-1.7-0.2-3.3-1.5-3.5-3.1c-0.2-1.5,0.5-2.9,1.2-4.2c1.1-2.3,2.1-4.7,2.7-7.2c0,0.5,0,0.9,0.1,1.3c0.4,3.4,9.4,7,9.4,7
					S173.6,78.2,174.1,80.5z"/>
			</g>
			<g>
				<path class="st1" d="M157.1,105.2c-0.7,1.4-1.9,2.5-2.9,3.8c-0.8,0.9-1.4,2-1.7,3.2c-0.7-2.7-3-4.8-3.5-7.6
					c0-0.3-0.1-0.6,0.1-0.8c0.1-0.1,0.3-0.2,0.5-0.2c1.1-0.1,2.2,0.3,3.3,0.2c1.1-0.1,2.1-0.7,3.1-0.8c0.2,0,0.5,0,0.7,0.1
					C157.6,103.4,157.5,104.5,157.1,105.2z"/>
			</g>
			<g>
				<g>
					<path class="st0" d="M136.3,40.7l-1.3-0.6c-0.3-0.1-0.5-0.2-0.8-0.3c-0.8-0.1-1.6,0.1-2.1,0.6c-0.7,0.7-0.8,1.8-0.7,2.7
						c0.2,1,0.6,1.8,0.9,2.7c0.4,1.1,0.7,2.3,0.8,3.4c0.1,1,0.1,2,0.4,3s1,1.9,2,2.1c0.9,0.2,1.9-0.3,2.4-1.1
						c0.6-0.7,0.8-1.7,0.9-2.6C139.4,47.2,138.4,43.5,136.3,40.7z"/>
				</g>
				<g>
					<path class="st0" d="M170.4,39.2c-1.3-1.1-3.3-0.5-4.5,0.7s-1.7,2.9-2.2,4.6c-0.4,1.4-0.8,2.9-0.5,4.3c0.3,1.4,1.4,2.8,2.8,2.8
						l-0.2-1.3c0.1,0.2,0.2,0.4,0.4,0.6c0.6,0.9,1.4,1.8,2.4,1.8c0.9-0.1,1.6-1,1.8-1.9s0.1-1.9,0.2-2.8c0.1-1.5,0.8-3,1-4.5
						C171.8,41.9,171.6,40.1,170.4,39.2z"/>
				</g>
				<g>
					<g>
						<g>
							<path class="st0" d="M168,42.7c0,0.3,0,0.5-0.1,0.8c-0.1,1.7-0.5,3.4-0.7,5.1c0,0.2,0,0.3-0.1,0.5c-0.3,2.3-0.2,4.7-0.5,7.1
								c-0.3,2.3-0.9,4.7-2.3,6.6c-0.7,1-1.6,1.8-2.5,2.5c-2.1,1.7-4.6,3.1-7.2,4c-0.7,0.2-1.3,0.5-2,0.6c-0.6,0.2-1.1,0.4-1.7,0.2
								c-0.5-0.1-0.9-0.2-1.4-0.3c-1.5-0.3-2.9-0.9-4.3-1.7c-2.6-1.6-4.8-3.9-6.3-6.6c-2.6-4.5-3.5-9.7-4-14.8c0-0.1,0-0.1,0-0.2
								c-0.4-4-0.5-7.9-0.3-11.9c0-0.6,0.1-1.1,0-1.6c0-0.3,0-0.5,0-0.8c0.3-1.3,0.7-2.5,1.3-3.6c1.1-2.3,2.8-4.4,4.8-6
								c0.2-0.1,0.4-0.3,0.6-0.4c1-0.7,2-1.3,3.2-1.7c1.1-0.4,2.3-0.5,3.4-0.7c2.2-0.3,4.4-0.6,6.5-0.3c3.8,0.6,7.2,3.2,9.3,6.4
								c1.6,2.4,2.6,5.2,3.3,8c0.2,0.7,0.3,1.4,0.4,2.1c0.1,0.3,0.1,0.6,0.1,0.9s0.1,0.7,0.1,1.1C168,39.5,168.1,41.1,168,42.7z"/>
						</g>
						<g>
							<path class="st1" d="M133.2,42.8L133.2,42.8L133.2,42.8C133.2,42.9,133.2,42.9,133.2,42.8z"/>
						</g>
						<g>
							<path class="st1" d="M167.3,48.6c0,0.2,0,0.3-0.1,0.5c-0.3,2.3-0.2,4.7-0.5,7.1c-0.3,2.3-0.9,4.7-2.3,6.6
								c-0.7,1-1.6,1.8-2.5,2.5c-2.1,1.7-4.6,3.1-7.2,4c-0.7,0.2-1.3,0.5-2,0.6c-0.6,0.2-1.1,0.4-1.7,0.2c-0.5-0.1-0.9-0.2-1.4-0.3
								c-1.5-0.3-2.9-0.9-4.3-1.7c-2.6-1.6-4.8-3.9-6.3-6.6c-2.6-4.5-3.5-9.7-4-14.8c0.6,0.7,1.3,1.4,2.1,2c1.8,1.5,3.9,2.8,5.2,4.8
								c2,2.8,2.2,6.5,3.2,9.8c0.4,1.3,1,2.6,2,3.5c2.2,2,5.9,1.4,8.2-0.5s3.6-4.8,4.6-7.6c1.1-2.8,2.1-5.7,4.1-7.9
								C165.3,49.9,166.3,49.2,167.3,48.6z"/>
						</g>
						<g>
							<g>
								<g>
									<path class="st8" d="M170.2,38.2c-0.2,1.8-0.6,3.7-1,5.5c-0.2,0.8-0.3,1.5-0.7,2.2c-0.4,0-0.7-0.4-0.8-0.8
										c-0.6-1.7-0.9-3.5-1-5.3c0-1.2,0-2.4-0.3-3.5c-0.5-1.7-1.9-3.1-2.2-4.8c-0.1-0.6-0.1-1.1-0.2-1.7c-0.1-0.5-0.2-0.9-0.4-1.3
										c-0.2-0.5-0.5-1-0.9-1.5s-0.8-0.9-1.3-1.2c-0.6-0.5-1.4-0.8-2.1-1.1c-0.2-0.1-0.4-0.2-0.6-0.3c-1.6-0.7-3.3-1.3-5-1.7
										c-1.2-0.3-2.4-0.4-3.4-1s-1.9-1.7-1.6-2.9l-4.5-0.9l3.5-1.8l1.9-1c3.3-1.9,6.9-1,9.9,0.5c0.9,0.5,1.8,1,2.7,1.7
										c1.8,1.3,3.3,3,4.5,4.8l0,0c1.2,1.9,2.1,3.9,2.7,6.1l0,0c0.5,1.9,0.8,3.9,0.8,6C170.4,35.6,170.3,36.9,170.2,38.2z"/>
								</g>
								<g>
									<path class="st9" d="M170.2,38.2c-0.2,1.8-0.6,3.7-1,5.5c-0.2,0.8-0.3,1.5-0.7,2.2c-0.4,0-0.7-0.4-0.8-0.8
										c-0.6-1.7-0.9-3.5-1-5.3c0-1.2,0-2.4-0.3-3.5c-0.5-1.7-1.9-3.1-2.2-4.8c-0.1-0.6-0.1-1.1-0.2-1.7c-0.1-0.5-0.2-0.9-0.4-1.3
										c-0.2-0.5-0.5-1-0.9-1.5c-0.3-1.5-1.1-2.8-2.1-3.9c3.3,1.9,5.8,5.2,6.8,8.8c0.3-2.4-0.2-4.9-1.3-7.1
										c0.7,0.9,1.5,1.8,2.2,2.7c0.2,0.2,0.4,0.5,0.7,0.7c0.2,0.1,0.3,0.2,0.5,0.2c0.5,1.9,0.8,3.9,0.8,6
										C170.4,35.6,170.3,36.9,170.2,38.2z"/>
								</g>
								<g>
									<path class="st10" d="M170.2,38.2c-0.2,1.8-0.6,3.7-1,5.5c-0.2,0.8-0.3,1.5-0.7,2.2c-0.4,0-0.7-0.4-0.8-0.8
										c-0.6-1.7-0.9-3.5-1-5.3c0-1.2,0-2.4-0.3-3.5c-0.5-1.7-1.9-3.1-2.2-4.8c-0.1-0.6-0.1-1.1-0.2-1.7c-0.1-0.5-0.2-0.9-0.4-1.3
										c0.3,0.3,0.6,0.6,0.8,0.9c0.5,0.8,0.8,1.6,1,2.5c0.3,0.9,0.6,1.7,1.3,2.4c0.7,0.6,1.7,1,2.5,0.6c0.3-0.2,0.7-0.4,1-0.6
										C170.4,35.6,170.3,36.9,170.2,38.2z"/>
								</g>
								<path class="st11" d="M166.8,22.3c-0.7-0.5-1.3-0.9-2-1.3c-1.4-0.8-2.9-1.5-4.5-2.1s-3.2-1-4.8-1.3c-1.7-0.4-3.4-0.6-5.1-1
									c1.7-0.5,3.5-0.7,5.3-0.6c1.8,0.1,3.6,0.4,5.4,1c0.4,0.2,0.8,0.3,1.3,0.5C164.1,18.8,165.6,20.4,166.8,22.3z"/>
								<g>
									<path class="st10" d="M159.4,24.7c-0.2-0.1-0.4-0.2-0.6-0.3c-1.6-0.7-3.3-1.3-5-1.7c-1.2-0.3-2.4-0.4-3.4-1
										s-1.9-1.7-1.6-2.9l-4.5-0.9l3.5-1.8c0.6,1.4,1.6,2.6,2.8,3.6c1.6,1.3,3.5,2.1,5.5,2.8c0.7,0.2,1.5,0.4,2.1,0.9
										C158.7,23.8,159.1,24.2,159.4,24.7z"/>
								</g>
							</g>
							<g>
								<g>
									<g>
										<path class="st8" d="M150.5,21.8C150.5,21.9,150.5,21.9,150.5,21.8c-1.2,0.6-2.5,0.7-3.8,1c-3.7,0.7-7,3.1-8.9,6.2
											c-0.3,0.5-0.5,0.9-0.8,1.4c-1.1,2.4-1.5,5.1-1.8,7.8c-0.2,1.4-0.4,2.8-0.5,4.2c-0.1,0.9-0.2,1.9,0,2.8
											c0.2,0.7,0.6,1.4,1,2.1l0,0c0.2,0.3,0.4,0.6,0.5,0.9c0.5,1,0.7,2.1,0.7,3.3c-0.2-0.3-0.9-1.2-2.7-3.2
											c-2.5-2.8-2.5-9.6-2.3-13.3c0.1-1.6,0.2-2.7,0.2-2.7c1.3-6.3,3.6-10.4,6.1-13c5.6-5.9,12.4-4.5,12.4-4.5
											c-0.4,1.5-0.3,3.6-0.2,5.1C150.4,20.9,150.5,21.6,150.5,21.8z"/>
									</g>
									<g>
										<path class="st9" d="M136.8,29.9c0.3-0.2,0.6-0.5,0.9-0.8c-0.3,0.5-0.5,0.9-0.8,1.4c-1.1,2.4-1.5,5.1-1.8,7.8
											c-0.2,1.4-0.4,2.8-0.5,4.2c-0.1,0.9-0.2,1.9,0,2.8c0.2,0.7,0.6,1.4,1,2.1l0,0c0.2,0.3,0.4,0.6,0.5,0.9
											c0.5,1,0.7,2.1,0.7,3.3c-0.2-0.3-0.9-1.2-2.7-3.2c-2.5-2.8-2.5-9.6-2.3-13.3c0.5-0.1,1-0.5,1.3-1c2.2-2.9,2.8-6.9,5.4-9.5
											c-1.2,1.5-2,3.2-2.5,5c0,0.2-0.1,0.4,0,0.5l0.1,0.1C136.4,30.1,136.6,30,136.8,29.9z"/>
									</g>
									<g>
										<path class="st11" d="M150.3,20c-0.7,0-1.5-0.2-2.2-0.3c-1.1-0.1-2.2,0.1-3.2,0.5c0.7-0.8,1.6-1.4,2.5-1.9
											c-2.8,0.2-5.6,1-8.1,2.4c1.6-2.4,4.3-3.8,7-5.1c-2.9,0.8-5.7,2-8.1,3.7c5.6-5.9,12.4-4.5,12.4-4.5
											C150.1,16.3,150.2,18.4,150.3,20z"/>
									</g>
								</g>
								<g>
									<path class="st10" d="M150.5,21.9c-1.2,0.6-2.6,0.6-3.8,0.9c-3.7,0.7-7,3.1-8.9,6.2c-0.3,0.5-0.5,0.9-0.8,1.4
										c-1.1,2.4-1.5,5.1-1.8,7.8c-0.2,1.4-0.4,2.8-0.5,4.2c-0.1,0.9-0.2,1.9,0,2.8c0.2,0.7,0.6,1.4,1,2.1c-0.9-1-1.6-2-1.9-3.3
										c-0.2-1.1,0-2.3,0.2-3.4c0.3-1.7,0.6-3.3,0.9-5c0.2-1.2,0.4-2.5,0.8-3.7c0.2-0.6,0.4-1.2,0.7-1.8c0.7-1.6,1.6-3,2.7-4.3
										c1-1.2,2.3-2.2,3.9-2.7c0.6-0.2,1.3-0.2,2-0.3c1.5-0.1,3-0.2,4.4-0.5C149.6,22.1,150,22,150.5,21.9L150.5,21.9z"/>
								</g>
							</g>
						</g>
						<path class="st8" d="M136.4,23.6c-2,2.8-3,6.2-3.9,9.6c-0.9,3.4-1.6,6.8-2,10.3c-0.4,3.5-0.5,7,0,10.5c0.4,3.5,1.4,6.9,3,10.1
							c-1.7-3.1-2.8-6.5-3.4-10c-0.6-3.5-0.6-7.1-0.3-10.6c0.3-3.5,0.9-7,1.7-10.5c0.4-1.7,0.8-3.5,1.4-5.2c0.6-1.7,1.3-3.4,2.3-4.9
							L136.4,23.6z"/>
					</g>
					<g>
						<path class="st8" d="M138.5,52.1c0-0.1,0-0.1,0-0.2C138.7,52.3,138.5,52.1,138.5,52.1z"/>
					</g>
				</g>
				<g>
					<path class="st10" d="M153.8,37.7C153.8,37.7,153.9,37.7,153.8,37.7c0.2-0.1,0.2-0.2,0.3-0.2l0.1-0.1c0.4-0.2,0.8-0.3,1.2-0.4
						c0.4-0.1,0.9-0.2,1.4-0.3c0.9-0.1,1.8-0.2,2.7-0.1c1,0.1,1.9,0.3,2.8,0.6c0.9,0.4,1.7,1,2.1,1.8c-0.6-0.7-1.4-1.1-2.3-1.3
						c-0.9-0.2-1.7-0.2-2.6-0.1c-0.5,0.1-0.9,0.1-1.3,0.3c-0.7,0.2-1.3,0.4-2,0.7c-0.3,0.2-0.6,0.3-0.9,0.5
						c-0.1,0.1-0.2,0.2-0.4,0.2c-0.2,0.1-0.3,0.2-0.5,0.1c-0.2,0-0.3-0.1-0.5-0.2c-0.3-0.2-0.4-0.6-0.4-0.9c0-0.1,0-0.2,0.1-0.3
						C153.7,37.9,153.7,37.8,153.8,37.7z"/>
					<path class="st10" d="M147.7,37.7C147.7,37.7,147.6,37.7,147.7,37.7c-0.2-0.1-0.2-0.2-0.3-0.2l-0.1-0.1
						c-0.4-0.2-0.8-0.3-1.2-0.4c-0.4-0.1-0.9-0.2-1.4-0.3c-0.9-0.1-1.8-0.2-2.7-0.1c-1,0.1-1.9,0.3-2.8,0.6c-0.9,0.4-1.7,1-2.1,1.8
						c0.6-0.7,1.4-1.1,2.3-1.3c0.9-0.2,1.7-0.2,2.6-0.1c0.5,0.1,0.9,0.1,1.3,0.3c0.7,0.2,1.3,0.4,2,0.7c0.3,0.2,0.6,0.3,0.9,0.5
						c0.1,0.1,0.2,0.2,0.4,0.2c0.2,0.1,0.3,0.2,0.5,0.1c0.2,0,0.3-0.1,0.5-0.2c0.3-0.2,0.4-0.6,0.4-0.9c0-0.1,0-0.2-0.1-0.3
						C147.8,37.9,147.8,37.8,147.7,37.7z"/>
				</g>
				<g>
					<path class="st1" d="M148.8,41.1c0.3,0.3,0.4,0.7,0.5,1.1c0.1,0.4,0.1,0.8,0.1,1.1c0,0.8-0.1,1.6-0.4,2.3c0-0.8,0-1.5-0.1-2.3
						c0-0.4,0-0.7,0-1.1C149,41.9,148.9,41.5,148.8,41.1z"/>
					<path class="st1" d="M147.6,52.3c0.3,0.5,0.9,0.7,1.4,0.5c0.2-0.1,0.5-0.3,0.8-0.3c0.3-0.1,0.6,0,0.9,0
						c0.6,0.1,1.2,0.3,1.7,0.3c0.3,0,0.5,0,0.8-0.1s0.5-0.3,0.6-0.6c0,0.3-0.3,0.6-0.5,0.7c-0.3,0.2-0.6,0.3-0.9,0.3
						c-0.6,0-1.2-0.2-1.8-0.3c-0.3,0-0.5-0.1-0.8,0c-0.3,0-0.5,0.2-0.8,0.3s-0.7,0.1-1-0.1C147.9,52.8,147.7,52.5,147.6,52.3z"/>
				</g>
			</g>
			<g>
				<g>
					<path class="st0" d="M182.6,163.4c-0.3,1-0.7,2.1-1.1,3.1c-0.2,0.5-0.5,1-0.7,1.5c-0.1,0.2-0.2,0.4-0.3,0.6
						c-0.2,0.4-0.7,0.6-1,0.8c-2.7,2-5.9,3.5-9,4.6c-1.7,0.6-3.4,1.1-5.2,1.5c-2,0.5-3.9,0.9-5.9,1.2c-6.7,1-13.5,1.1-20.2,0.3
						c-1.2-0.1-2.3-0.3-3.5-0.5c-3.5-0.6-7-1.6-10.3-3c-2.8-1.2-5.5-2.8-7.7-4.9c-2.7-3-3.5-7.5-2-11.3c0.6-1.6,1.7-3.1,2.3-4.7
						c0.7-1.7,1.1-3.4,1.4-5.2c0.4-1.9,0.8-3.9,0.4-5.8l61-0.4c-1.2,4.3-0.9,9.1,0.6,13.3c0.4,1,0.8,2,1.1,3
						C183.3,159.4,183.1,161.5,182.6,163.4z"/>
				</g>
				<g>
					<path class="st1" d="M143,137.8c-0.3-1.1-1.8-1.4-3-1.5c-3.3-0.2-6.6-0.3-9.9,0.1c-3.3,0.5-6.5,1.6-9,3.7l0.8,0.8
						c3.9,5.5,6.5,12,7.5,18.6c0.3,2,0.5,4.1,1.7,5.8c0.3,0.4,0.7,0.8,1.2,0.8c0.7,0,1.1-0.7,1.3-1.3c2.1-5.1,3-10.7,5.2-15.8
						c1.4-3.3,3.3-6.4,4.1-9.9C143.1,138.8,143.1,138.3,143,137.8z"/>
				</g>
				<g>
					<path class="st1" d="M177,140.4c-0.6-0.8-1.6-1.3-2.5-1.6c-3.5-1.3-7.3-1.4-10.9-0.5l-0.1,1.1c0.8,1,1,2.3,1.1,3.6
						c0.4,4.5,0,9-1,13.4c-0.6,2.7-1.5,5.3-1.4,8.1c0,0.3,0,0.7,0.2,1c0.3,0.4,1,0.4,1.4,0.2c0.5-0.2,0.8-0.7,1.1-1.1
						c4.1-5.6,7.9-11.4,11.3-17.5C177.4,145,178.5,142.3,177,140.4z"/>
				</g>
				<g>
					<path class="st2" d="M165.3,175.5c-2,0.5-3.9,0.9-5.9,1.2c-6.7,1-13.5,1.1-20.2,0.3c0-0.3,0.1-0.5,0.1-0.8c0.4-3,0.8-6.1,2-8.9
						s3.3-5.4,6.2-6.4c1-0.3,2-0.5,2.9-1.1c0.5-0.3,1-0.8,1.6-1c1.1-0.4,2.3,0.2,3.1,1.1c0.8,0.9,1.2,2,1.8,3
						c2.3,4.1,6.8,6.9,8.3,11.3C165.1,174.6,165.2,175.1,165.3,175.5z"/>
				</g>
			</g>
			<g>
				<g>
					<g>
						<path class="st12" d="M181.6,136c0,0.2,0,0.4,0,0.6c0,1.6-0.1,3.3-0.2,4.9c0,0.4,0,0.8-0.1,1.2c0,0.3-0.1,0.3-0.4,0.4
							c-3.3,1.4-7,1.8-10.6,1.7c-0.4,0-0.8,0-1.1,0c-3.5-0.1-7-0.6-10.4-0.8c-5.8-0.3-11.6,0.3-17.4,0.6c-2.3,0.2-4.6,0.3-6.9,0.3
							c-5,0.1-10-0.2-15-0.9c-0.6-0.1-1-0.6-1-1.2l0.7-7.9v-0.5c1,0,2-0.1,3-0.2c4.9-0.4,9.7-1.2,14.6-1.8
							c7.5-0.9,15.1-1.4,22.7-1.3c6,0,12.3,0.5,17.9,2.4c1.4,0.5,2.8,1.1,4.1,1.8L181.6,136z"/>
					</g>
					<g>
						<path class="st13" d="M135.9,143c1.9,0.4,3.7,1.1,5.6,1.8c-2.3,0.2-4.6,0.3-6.9,0.3c-5,0.1-10-0.2-15-0.9
							c-0.6-0.1-1-0.6-1-1.2l0.7-7.9v-0.5c1,0,2-0.1,3-0.2c-0.2,3,2.3,5.6,5,6.7C130,142.3,133,142.4,135.9,143z"/>
					</g>
					<g>
						<path class="st13" d="M181.6,136c0,0.2,0,0.4,0,0.6c0,1.6-0.1,3.3-0.2,4.9c0,0.4,0,0.8-0.1,1.2c0,0.3-0.1,0.3-0.4,0.4
							c-3.3,1.4-7,1.8-10.6,1.7c-0.4,0-0.8,0-1.1,0c3-2,5.5-4.8,6.9-8.2c0.4-1,0.7-2,1.3-2.9c1.4,0.5,2.8,1.1,4.1,1.8L181.6,136z"/>
					</g>
				</g>
				<g class="st14">
					<path class="st13" d="M182.1,133.9c-0.1-0.2-0.3-0.3-0.4-0.3c-10.1-4.2-20.8-7.1-31.7-7.1s-22,2.9-30.7,9.6l0.1,0.4
						c3.4,2.3,7.4,3.7,11.4,3.9c7.2,0.5,14.3-2.5,21.6-2.5c1.3,0,2.7,0.1,4,0.5c1,0.3,2,0.7,3,1.1c1.6,0.5,3.2,0.9,4.9,1.2
						c3.4,0.6,6.9,1,10.2,0.1c3.3-0.8,6.4-3.1,7.5-6.3C182.1,134.2,182.1,134,182.1,133.9z"/>
				</g>
				<g>
					<path class="st6" d="M186,124.8c-0.5,6.1-2.5,10.7-5,12.8c-5.2,4.2-16.9,2.2-19.8,0.5c-2.9-1.7-17.2-0.8-17.2-0.8
						c-13.5,4.9-24.9,0-24.9,0c-2.3-2.9-3.7-6.4-4.2-10.1c-0.1-0.4-0.1-0.8-0.2-1.2c-0.4-4.1,0.3-8.2,1.6-12.1
						c1.5-4.2,3.7-8.2,5.4-12.3c0.9-2.4,1.7-5,2-7.6c0.6-5.5-0.6-10.6,2-15.5l0.1-0.4c0-0.2,1.1-0.8,2.4-1.3c0.7-0.3,1.7,0,2.4,0
						c0,0-10.3,36.8,21.1,33.2c32.4,0.8,18.3-35.1,18.3-35.1c0.1-0.3,1.7,0.3,3.1,1c1.4,0.7,2.7,1.5,2.6,1.7
						c0.2,6.5,5.4,24.1,5.4,24.1C185.2,110.2,186.4,118.3,186,124.8z"/>
					<g>
						<path class="st15" d="M186,124.8c-0.5,6.1-2.5,10.7-5,12.8c-5.2,4.2-16.9,2.2-19.8,0.5c-2.9-1.7-17.2-0.8-17.2-0.8
							c-13.5,4.9-24.9,0-24.9,0c-2.3-2.9-3.7-6.4-4.2-10.1c1.6,2.3,4.1,3.9,6.8,4.4c2.8,0.6,5.8,0,8.6-0.8c1.5-0.4,3-0.9,4.6-1
							c1.6-0.1,3.2,0.4,4.3,1.5c0.9,1,1.2,2.3,2.1,3.2c1.3,1.3,3.3,1.4,5.1,1.4c4.3,0,8.8,0,12.9-1.4c2.2-0.8,4.3-1.9,6.6-1.7
							c2.4,0.2,4.4,1.9,6.7,2.7c1.5,0.5,3.1,0.5,4.6,0.2c3.2-0.7,5.7-3.3,7.2-6.2C185,128,185.5,126.4,186,124.8z"/>
					</g>
					<g>
						<path class="st7" d="M175.2,105.1c-0.2,1.8-0.5,3.6-1.3,5.2c-1.3,2.6-3.8,4.4-6.4,5.6c-2.6,1.2-5.5,1.9-8.2,2.9
							c-4.4,1.7-9,4.5-13.6,3.4c-1.9-0.5-3.6-1.5-5.2-2.6l-8.8-5.7c-0.7-0.4-1.4-0.9-1.8-1.6c-0.8-1.1-0.7-2.6-0.7-4
							c-0.1-2.6-0.9-5.1-1.4-7.7c-1.6-8.1-0.8-15.7,0.4-23.8c0.7-0.3,1.7,0,2.4,0c0,0-10.3,36.8,21.1,33.2
							c32.4,0.8,18.3-35.1,18.3-35.1c0.1-0.3,1.7,0.3,3.1,1c0.3,5.1,2.1,10,2.7,15C176.2,95.6,175.8,100.4,175.2,105.1z"/>
					</g>
				</g>
			</g>
			<g>
				<g>
					<g>
						<g>
							<path class="st3" d="M29.4,112.2h-11c-3.5,0-6.3-8.6-6.3-19.1c0-10.6,2.8-19.2,6.3-19.2h11c-2.4,0-4.4,3.9-5.5,9.8
								c-0.5,2.8-0.8,6-0.8,9.4s0.3,6.6,0.8,9.4C24.9,108.3,27,112.2,29.4,112.2z"/>
							<path class="st4" d="M35.7,92.9L35.7,92.9c0,0.5,0,0.9,0,1.3c0,1.1-0.1,2.1-0.1,3.1c-0.6,8.5-3.2,14.8-6.1,14.8
								c-2.4,0-4.4-3.9-5.5-9.8c-0.5-2.8-0.8-6-0.8-9.4s0.3-6.6,0.8-9.4c1.1-5.8,3.1-9.8,5.5-9.8c3,0,5.5,6.4,6.2,15
								C35.6,90.2,35.7,91.6,35.7,92.9z"/>
						</g>
						<g>
							<path class="st4" d="M22.2,106.3c0.2,2.1,0.8,4.2,2,5.9h-5.8c-3.5,0-6.3-8.6-6.3-19.1c0-10.6,2.8-19.2,6.3-19.2h5.8
								c-1.4,3.3-3.8,6.2-5.3,9.6c-1.6,3.6-1.9,7.8-1,11.6c0,0.1,0.1,0.3,0.1,0.4s0,0.1,0.1,0.2v0.1c0,0.1,0.1,0.2,0.2,0.3
								c0.1,0.2,0.3,0.3,0.5,0.3c0.6,0.2,1.1-0.1,1.7,0c0.4,0.1,0.7,0.3,0.9,0.6c0.2,0.3,0.2,0.6,0.3,0.9c0,0.2,0.1,0.3,0.2,0.5
								c0,0.1,0.1,0.1,0.1,0.2s0,0.2,0.1,0.3c0,0.1,0,0.3,0,0.4C22,101.6,21.9,104,22.2,106.3z"/>
						</g>
					</g>
					<path class="st16" d="M32.1,93.1c0,4.5-1.2,8.2-2.7,8.2c-1,0-1.9-1.7-2.3-4.2c-0.2-1.2-0.3-2.5-0.3-4s0.1-2.8,0.3-4
						c0.5-2.5,1.3-4.2,2.3-4.2C30.8,84.9,32.1,88.5,32.1,93.1z"/>
					<g>
						<g>
							<path class="st3" d="M35.5,89c0.1,1.3,0.1,2.6,0.1,4v0.1c0,0.4,0,0.8,0,1.2c0,1.1-0.1,2.1-0.1,3.1h-5.4H30
								c-0.1,0-0.2-0.1-0.4-0.2c0,0,0,0-0.1-0.1c0-0.1-0.1-0.1-0.1-0.2c0,0,0-0.1-0.1-0.1c-0.2-0.4-0.4-0.9-0.5-1.6
								c0-0.2-0.1-0.4-0.1-0.5c-0.1-0.5-0.1-1-0.1-1.6c0-0.2,0-0.4,0-0.6l0,0c0-0.2,0-0.4,0-0.6c0-0.1,0-0.3,0-0.4s0-0.2,0-0.3l0,0
								c0.2-1.3,0.6-2.3,1.2-2.3L35.5,89L35.5,89z"/>
							<path class="st3" d="M152.3,92.8l0.1,0.2C152.4,93,152.3,92.9,152.3,92.8z"/>
							<path class="st3" d="M152.5,93.5L152.5,93.5L152.5,93.5z"/>
						</g>
						<path class="st4" d="M35.7,94.3c0,1.1-0.1,2.1-0.1,3.1h-5.4h-0.1c-0.1,0-0.2-0.1-0.4-0.2c0,0,0,0-0.1-0.1
							c0-0.1-0.1-0.1-0.1-0.2c0,0,0-0.1-0.1-0.1c-0.2-0.4-0.4-0.9-0.5-1.6c0-0.2-0.1-0.4-0.1-0.5c-0.1-0.5-0.1-1-0.1-1.6
							c0-0.2,0-0.4,0-0.6l0,0c0-0.2,0-0.4,0-0.6c0-0.1,0-0.3,0-0.4c0.2,1.5,0.6,2.7,1.3,2.7L35.7,94.3L35.7,94.3z"/>
						<path class="st4" d="M88.2,92.5L88.2,92.5c-0.1,0-0.2-0.1-0.3-0.1C88,92.4,88.1,92.5,88.2,92.5z"/>
						<path class="st4" d="M151.9,90.9C151.9,90.9,151.8,90.8,151.9,90.9L151.9,90.9C151.8,90.8,151.9,90.9,151.9,90.9z"/>
						<path class="st4" d="M152.4,93c0-0.1,0-0.1-0.1-0.2L152.4,93z"/>
						<path class="st4" d="M152.4,93.3L152.4,93.3L152.4,93.3L152.4,93.3z"/>
						<path class="st4" d="M152.5,93.5L152.5,93.5L152.5,93.5z"/>
						<path class="st4" d="M120.7,101.2l31.7-7.7l0,0L120.7,101.2z"/>
						<path class="st16" d="M35.7,92.9L35.7,92.9c0,0.5,0,0.9,0,1.3h-5.5c-0.7,0-1.1-1.2-1.3-2.7c0-0.1,0-0.2,0-0.3l0,0
							c0-0.1,0-0.2,0.1-0.3c0.2,1.1,0.6,2,1.2,2C30.2,92.9,35.7,92.9,35.7,92.9z"/>
					</g>
				</g>
				<g>
					<g>
						<g>
							<path class="st3" d="M275.6,112.2h11c3.5,0,6.3-8.6,6.3-19.1c0-10.6-2.8-19.2-6.3-19.2h-11c2.4,0,4.4,3.9,5.5,9.8
								c0.5,2.8,0.8,6,0.8,9.4s-0.3,6.6-0.8,9.4C280,108.3,278,112.2,275.6,112.2z"/>
							<path class="st4" d="M281.9,93.1c0,3.4-0.3,6.6-0.8,9.4c-1.1,5.8-3.1,9.8-5.5,9.8c-3,0-5.5-6.3-6.1-14.8
								c-0.1-1-0.1-2-0.1-3.1c0-0.4,0-0.8,0-1.2v-0.1c0-1.4,0.1-2.7,0.1-4c0.6-8.6,3.1-15,6.2-15c2.4,0,4.4,3.9,5.5,9.8
								C281.6,86.5,281.9,89.7,281.9,93.1z"/>
						</g>
						<g>
							<path class="st4" d="M282.8,106.3c-0.2,2.1-0.8,4.2-2,5.9h5.8c3.5,0,6.3-8.6,6.3-19.1c0-10.6-2.8-19.2-6.3-19.2h-5.8
								c1.4,3.3,3.8,6.2,5.3,9.6c1.6,3.6,1.9,7.8,1,11.6c0,0.1-0.1,0.3-0.1,0.4s0,0.1-0.1,0.2v0.1c0,0.1-0.1,0.2-0.2,0.3
								c-0.1,0.2-0.3,0.3-0.5,0.3c-0.6,0.2-1.1-0.1-1.7,0c-0.4,0.1-0.7,0.3-0.9,0.6c-0.2,0.3-0.2,0.6-0.3,0.9c0,0.2-0.1,0.3-0.2,0.5
								c0,0.1-0.1,0.1-0.1,0.2s0,0.2-0.1,0.3c0,0.1,0,0.3,0,0.4C282.9,101.6,283.1,104,282.8,106.3z"/>
						</g>
					</g>
					<path class="st16" d="M272.9,93.1c0,4.5,1.2,8.2,2.7,8.2c1,0,1.9-1.7,2.3-4.2c0.2-1.2,0.3-2.5,0.3-4s-0.1-2.8-0.3-4
						c-0.5-2.5-1.3-4.2-2.3-4.2C274.1,84.9,272.9,88.5,272.9,93.1z"/>
					<g>
						<g>
							<path class="st3" d="M269.4,89c-0.1,1.3-0.1,2.6-0.1,4h-26c-1.4,0-2.7-0.2-4.1-0.5l-17.8-4.6c-1.5-0.4-3.2-0.3-4.7,0.2
								l-23.2,8.2c-1.8,0.6-3.6,0.9-5.5,0.9c-1.3,0-2.6-0.2-3.9-0.5l-30.7-7.4h-2l-30.7,7.4c-1.3,0.3-2.6,0.5-3.9,0.5
								c-1.9,0-3.7-0.3-5.5-0.9l-23.2-8.2c-1.5-0.5-3.1-0.6-4.7-0.2l-17.7,4.5c-1.3,0.3-2.7,0.5-4.1,0.5h-26c0-1.4-0.1-2.7-0.1-4
								h26.1c0.7,0,1.3-0.1,2-0.3L81.4,84c3.2-0.8,6.5-0.7,9.6,0.4l23.2,8.2c1.5,0.5,3,0.6,4.6,0.2l31.7-7.7h4l31.7,7.7
								c1.5,0.4,3.1,0.3,4.6-0.2l23.2-8.2c3.1-1.1,6.4-1.2,9.6-0.4l17.8,4.6c0.6,0.2,1.3,0.3,2,0.3L269.4,89L269.4,89z"/>
							<path class="st3" d="M152.5,93.5L152.5,93.5L152.5,93.5L152.5,93.5z"/>
							<path class="st3" d="M152.6,93.2L152.6,93.2C152.6,93.1,152.6,93.1,152.6,93.2C152.6,93.1,152.6,93.2,152.6,93.2
								C152.5,93.2,152.5,93.2,152.6,93.2C152.5,93.2,152.5,93.2,152.6,93.2z"/>
							<path class="st3" d="M152.7,92.5L152.7,92.5C152.7,92.4,152.7,92.4,152.7,92.5L152.7,92.5L152.7,92.5z"/>
							<path class="st3" d="M276.2,93.2c0,0.5,0,1.1-0.1,1.6c0,0.2,0,0.4-0.1,0.5c0,0.1,0,0.2-0.1,0.3c0,0.1-0.1,0.2-0.1,0.3
								c0,0.1-0.1,0.2-0.1,0.3c-0.1,0.2-0.2,0.4-0.3,0.6c0,0,0,0.1-0.1,0.1c0,0.1-0.1,0.1-0.1,0.2c0,0,0,0.1-0.1,0.1
								c0,0,0,0-0.1,0.1l-0.1,0.1h-0.1h-0.1h-5.4c-0.1-1-0.1-2-0.1-3.1c0-0.4,0-0.8,0-1.2V93c0-1.4,0.1-2.7,0.1-4h5.4
								c0.6,0,1,1,1.2,2.3l0,0c0,0.1,0,0.2,0,0.3c0,0.1,0,0.2,0,0.4c0,0.2,0,0.4,0,0.6l0,0C276.2,92.8,276.2,93,276.2,93.2z"/>
						</g>
						<path class="st4" d="M269.3,94.3h-26c-1.4,0-2.7-0.2-4.1-0.5l-17.8-4.6c-1.5-0.4-3.2-0.3-4.7,0.2l-23.2,8.2
							c-1.8,0.6-3.6,0.9-5.5,0.9c-1.3,0-2.6-0.2-3.9-0.5l-31-7.5h-1.4l-31,7.5c-1.3,0.3-2.6,0.5-3.9,0.5c-1.9,0-3.7-0.3-5.5-0.9
							l-23.1-8.2c-1.5-0.5-3.1-0.6-4.7-0.2l-17.8,4.6c-1.3,0.3-2.7,0.5-4.1,0.5h-26c0,1.1-0.1,2.1-0.1,3.1h26.1
							c1.4,0,2.7-0.2,4.1-0.5l17.8-4.6c1-0.3,2-0.3,3.1-0.2c0.1,0,0.2,0,0.3,0c0,0,0,0,0.1,0c0.2,0,0.4,0.1,0.6,0.1
							c0.1,0,0.2,0.1,0.3,0.1c0.1,0,0.2,0.1,0.3,0.1l0,0l23.2,8.2c1.8,0.6,3.6,0.9,5.5,0.9c0.3,0,0.6,0,1,0c0.2,0,0.5,0,0.7-0.1
							c0.2,0,0.5-0.1,0.7-0.1s0.3-0.1,0.5-0.1c0.1,0,0.3-0.1,0.4-0.1c0.2,0,0.3-0.1,0.5-0.1l31.7-7.7l0,0l0,0l0,0l31.7,7.7
							c0.2,0,0.3,0.1,0.5,0.1c0.1,0,0.3,0.1,0.4,0.1c0.2,0,0.3,0.1,0.5,0.1s0.5,0.1,0.7,0.1s0.5,0,0.7,0.1c0.3,0,0.6,0,1,0
							c1.9,0,3.7-0.3,5.5-0.9l23.2-8.2l0,0c0.1,0,0.2-0.1,0.3-0.1s0.2-0.1,0.3-0.1c0.2-0.1,0.4-0.1,0.6-0.1c0,0,0,0,0.1,0
							s0.2,0,0.3,0c1-0.1,2-0.1,3.1,0.2l17.8,4.6c1.3,0.3,2.7,0.5,4.1,0.5h26.1C269.4,96.4,269.3,95.3,269.3,94.3z M151.8,90.8
							L151.8,90.8L151.8,90.8C151.8,90.8,151.9,90.9,151.8,90.8C151.9,90.9,151.8,90.8,151.8,90.8z M152.3,92.8l0.1,0.2
							C152.4,93,152.3,92.9,152.3,92.8z M152.4,93.3L152.4,93.3C152.4,93.2,152.4,93.3,152.4,93.3L152.4,93.3L152.4,93.3z
							 M152.6,93.1C152.6,93.1,152.6,93.2,152.6,93.1C152.6,93.2,152.6,93.2,152.6,93.1C152.5,93.2,152.5,93.2,152.6,93.1
							L152.6,93.1L152.6,93.1z M152.7,92.5L152.7,92.5L152.7,92.5L152.7,92.5C152.7,92.4,152.7,92.4,152.7,92.5z M153.1,90.8
							C153.1,90.8,153.1,90.9,153.1,90.8C153.1,90.9,153.1,90.8,153.1,90.8L153.1,90.8L153.1,90.8z"/>
						<path class="st4" d="M152.5,93.5L152.5,93.5L152.5,93.5L152.5,93.5z"/>
						<path class="st4" d="M152.6,93.1C152.6,93.1,152.6,93.2,152.6,93.1L152.6,93.1L152.6,93.1z"/>
						<path class="st4" d="M153.1,90.8C153.1,90.8,153.1,90.9,153.1,90.8C153.1,90.9,153.1,90.8,153.1,90.8L153.1,90.8z"/>
						<path class="st4" d="M152.5,93.5l31.7,7.7L152.5,93.5L152.5,93.5z"/>
						<path class="st4" d="M216.8,92.5c0.1,0,0.2-0.1,0.3-0.1C217,92.4,216.9,92.5,216.8,92.5L216.8,92.5z"/>
						<path class="st4" d="M276.2,93.2c0,0.5,0,1.1-0.1,1.6c0,0.2,0,0.4-0.1,0.5c0,0.1,0,0.2-0.1,0.3c0,0.1-0.1,0.2-0.1,0.3
							c0,0.1-0.1,0.2-0.1,0.3c-0.1,0.2-0.2,0.4-0.3,0.6c0,0,0,0.1-0.1,0.1c0,0.1-0.1,0.1-0.1,0.2c0,0,0,0.1-0.1,0.1c0,0,0,0-0.1,0.1
							l-0.1,0.1h-0.1h-0.1h-5.4c-0.1-1-0.1-2-0.1-3.1h5.5c0.7,0,1.1-1.2,1.3-2.7c0,0.1,0,0.2,0,0.4c0,0.2,0,0.4,0,0.6l0,0
							C276.2,92.8,276.2,93,276.2,93.2z"/>
						<path class="st5" d="M269.3,94.3h-26c-1.4,0-2.7-0.2-4.1-0.5l-17.8-4.6c-1.5-0.4-3.2-0.3-4.7,0.2l-23.2,8.2
							c-1.8,0.6-3.6,0.9-5.5,0.9c-1.3,0-2.6-0.2-3.9-0.5l-31-7.5h-1.4l-31,7.5c-1.3,0.3-2.6,0.5-3.9,0.5c-1.9,0-3.7-0.3-5.5-0.9
							l-23.1-8.2c-1.5-0.5-3.1-0.6-4.7-0.2l-17.8,4.6c-1.3,0.3-2.7,0.5-4.1,0.5h-26c0-0.4,0-0.8,0-1.2V93h26c1.4,0,2.7-0.2,4.1-0.5
							l17.8-4.6c1.5-0.4,3.2-0.3,4.7,0.2l23.2,8.2c1.8,0.6,3.6,0.9,5.5,0.9c1.3,0,2.6-0.2,3.9-0.5l30.7-7.4h2l30.7,7.4
							c1.3,0.3,2.6,0.5,3.9,0.5c1.9,0,3.7-0.3,5.5-0.9l23.2-8.2c1.5-0.5,3.1-0.6,4.7-0.2l17.8,4.6c1.3,0.3,2.7,0.5,4.1,0.5h26v0.1
							C269.3,93.5,269.3,93.9,269.3,94.3z"/>
						<path class="st16" d="M276.1,91.6c-0.2,1.5-0.6,2.7-1.3,2.7h-5.5c0-0.4,0-0.8,0-1.2V93h5.6c0.6,0,1-0.8,1.2-2
							c0,0.1,0,0.2,0.1,0.3l0,0C276.1,91.4,276.1,91.5,276.1,91.6z"/>
					</g>
				</g>
				<path class="st4" d="M152.3,92.8l0.1,0.2C152.4,93,152.3,92.9,152.3,92.8z"/>
				<path class="st4" d="M152.5,93.5L152.5,93.5L152.5,93.5L152.5,93.5z"/>
				<path class="st4" d="M152.6,93.2L152.6,93.2C152.6,93.1,152.6,93.1,152.6,93.2C152.6,93.1,152.6,93.2,152.6,93.2
					C152.5,93.2,152.5,93.2,152.6,93.2C152.5,93.2,152.5,93.2,152.6,93.2z"/>
				<path class="st4" d="M152.7,92.4L152.7,92.4C152.7,92.5,152.7,92.5,152.7,92.4L152.7,92.4z"/>
			</g>
			<g>
				<g>
					<g>
						<path class="st1" d="M74.5,84.2c0.1,0.3,0.2,0.7,0.3,1L74.5,84.2z"/>
					</g>
					<g>
						<path class="st1" d="M74.5,84.2c0-0.1,0-0.1,0-0.2l0,0V84.2z"/>
					</g>
					<g>
						<path class="st1" d="M97,82.7c-0.1-0.3-0.1-0.6-0.3-0.9c-0.2-0.3-0.5-0.6-0.7-0.8c-0.8-0.7-1.7-1.2-2.7-1.6
							c-0.4-0.2-0.9-0.5-1.4-0.6s-1,0-1.5,0c-1,0-2-0.2-2.8-0.7c-0.4-0.2-0.9-0.5-1.4-0.7c-1.1-0.3-2.1,0.3-3.2,0.6
							c-0.3,0.1-0.5,0.2-0.8,0.2c-0.8,0-1.5-0.8-2.4-0.8s-1.5,0.7-2.1,1.4C76.9,79.9,76,81,75.2,82c-0.4,0.5-0.8,1.1-0.9,1.7
							c0,0.1,0,0.2,0,0.2c2.9,0.4,5.9,0.5,8.8,0.8s5.9,1,8.4,2.6c0.9,0.6,1.8,1.4,2.4,2.3C96.2,88.3,97.4,85.4,97,82.7z"/>
					</g>
				</g>
				<g>
					<path class="st0" d="M108.1,152.8c-1.9,2.1-5,3.8-8,3c-0.9-0.3-1.7-0.7-2.4-1.4c-0.9-0.8-1.6-1.9-2.1-3c-0.8-1.9-1.1-4-1.9-5.9
						c-1.5-3.5-4.6-6.2-6.4-9.6c-4.4-8.4,0.6-18.6-2.7-27.4c-0.5-1.2-1.1-2.3-1.4-3.6c-0.5-1.9-0.4-4-1-5.9l0,0
						c-0.3-0.9-0.7-1.7-1.4-2.4c-0.1-1.1,1.1-1.9,2.7-2.4c1.3-0.4,2.9-0.7,4.6-0.7c3.9-0.2,7.8,0.7,7.9,2.7l0,0
						c-0.1,0.2-0.1,0.4-0.2,0.6l0,0c-1.2,4.7-0.3,9.6,1.7,14.2c2,4.7,5.1,9,7.9,13.5c1.2,1.9,2.4,3.9,3.4,5.9l0,0
						c1.3,2.6,2.3,5.3,2.9,8.1C112.6,143.5,111.7,148.9,108.1,152.8z"/>
				</g>
				<g>
					<path class="st0" d="M96.1,96.3L96.1,96.3c0,0.2-0.1,0.4-0.2,0.6l0,0c-0.1,0.2-0.2,0.4-0.3,0.6l-5.5,0.7l-4.4,0.5l-3.4,0.4l0,0
						c-0.8-2.2-3.2-3.5-4.9-5.3c-1.5-1.6-2.6-3.6-3-5.7c-0.2-1.1-0.3-2.2-0.2-3.3c0-0.5,0.1-0.9,0.3-1.3c0,0,0-0.1,0.1-0.1l0,0
						c0.2-0.3,0.4-0.5,0.6-0.7c0.5-0.5,1-1,1.6-1.3c1.2-0.7,2.7-0.9,4.1-0.9s2.8,0.2,4.2,0.3c2.2,0,4.3-0.4,6.5-0.4
						c0.2,0,0.5,0,0.7,0.2c0.2,0.1,0.3,0.3,0.4,0.4c0.8,1.1,1.7,2.2,2.2,3.5c0.4,1,0.5,2,0.6,3c0,0.3,0.1,0.5,0.1,0.8
						s0.1,0.6,0.1,0.8c0.1,1.1,0.2,2.3,0.4,3.4C96.1,93.8,96.3,95.1,96.1,96.3z"/>
				</g>
				<g>
					<path class="st1" d="M97.8,154.4c-0.9-0.8-1.6-1.9-2.1-3c-0.8-1.9-1.1-4-1.9-5.9c-1.5-3.5-4.6-6.2-6.4-9.6
						c-4.4-8.4,0.6-18.6-2.7-27.4c-0.5-1.2-1.1-2.3-1.4-3.6c-0.5-1.9-0.4-4-1-5.9l0,0c-0.8-2.2-3.2-3.5-4.9-5.3
						c-1.5-1.6-2.6-3.6-3-5.7c0.2,0.1,0.4,0.3,0.6,0.4c1.3,0.7,2.7,1.1,4,1.7c1.5,0.7,2.9,1.8,3.9,3.1c0.2,0.3,0.5,0.6,0.7,0.9
						c0.9,1.4,1.5,2.9,2.1,4.4c0.2,0.4,0.3,0.8,0.4,1.2c2,5.4,4.1,10.9,4.7,16.7c0.6,4.9,0.1,9.9,1.1,14.6c0.5,2.5,1.4,5,2.7,7.2
						c1.5,2.7,3.6,5.3,3.9,8.4C98.8,149.3,97.7,151.9,97.8,154.4z"/>
				</g>
				<g>
					<path class="st2" d="M108.9,130.5L108.9,130.5c-0.3,0.6-0.7,1-1.3,1c-0.5,0-0.9-0.3-1.3-0.6c-1.5-1.3-2.3-3.2-3.2-4.9
						c-1.6-3.1-3.6-5.9-6-8.4c-1.3-1.3-2.7-2.6-3.5-4.2s-1-3.5-1.3-5.3c-0.5-3-1.2-6-1.9-8.9c-0.1-0.3-0.1-0.6-0.2-0.9
						c-0.4-1.6-0.9-3.3-1.9-4.6c-0.1-0.1-0.2-0.3-0.3-0.4c-1.2-1.4-3.1-2.5-3.3-4.3c-0.2-1.4,0.6-2.7,1.8-3.4l0,0
						c0.2-0.1,0.3-0.2,0.5-0.2c1.4-0.6,3.1-0.3,4.5,0.3c1.6,0.7,2.8,1.9,3.9,3.3c0.1,0.2,0.3,0.3,0.4,0.5c0.1,1.1,0.2,2.3,0.4,3.4
						c0.1,1.1,0.3,2.5,0.1,3.6l0,0c0,0.2-0.1,0.4-0.2,0.6l0,0c-1.2,4.7-0.3,9.6,1.7,14.2c2,4.7,5.1,9,7.9,13.5
						C106.7,126.5,107.8,128.4,108.9,130.5z"/>
				</g>
			</g>
			<g>
				<g>
					<g>
						<path class="st1" d="M228.4,84.2c-0.1,0.3-0.2,0.7-0.3,1L228.4,84.2z"/>
					</g>
					<g>
						<path class="st1" d="M228.4,84.2c0-0.1,0-0.1,0-0.2l0,0V84.2z"/>
					</g>
					<g>
						<path class="st2" d="M205.9,82.7c0.1-0.3,0.1-0.6,0.3-0.9s0.5-0.6,0.7-0.8c0.8-0.7,1.7-1.2,2.7-1.6c0.4-0.2,0.9-0.5,1.4-0.6
							s1,0,1.5,0c1,0,2-0.2,2.8-0.7c0.4-0.2,0.9-0.5,1.4-0.7c1.1-0.3,2.1,0.3,3.2,0.6c0.3,0.1,0.5,0.2,0.8,0.2
							c0.8,0,1.5-0.8,2.4-0.8s1.5,0.7,2.1,1.4c0.8,1.1,1.7,2.2,2.5,3.2c0.4,0.5,0.8,1.1,0.9,1.7c0,0.1,0,0.2,0,0.2
							c-2.9,0.4-5.9,0.5-8.8,0.8c-2.9,0.3-5.9,1-8.4,2.6c-0.9,0.6-1.8,1.4-2.4,2.3C206.6,88.3,205.4,85.4,205.9,82.7z"/>
					</g>
				</g>
				<g>
					<path class="st0" d="M194.7,152.8c1.9,2.1,5,3.8,8,3c0.9-0.3,1.7-0.7,2.4-1.4c0.9-0.8,1.6-1.9,2.1-3c0.8-1.9,1.1-4,1.9-5.9
						c1.5-3.5,4.6-6.2,6.4-9.6c4.4-8.4-0.6-18.6,2.7-27.4c0.5-1.2,1.1-2.3,1.4-3.6c0.5-1.9,0.4-4,1-5.9l0,0c0.3-0.9,0.7-1.7,1.4-2.4
						c0.1-1.1-1.1-1.9-2.7-2.4c-1.3-0.4-2.9-0.7-4.6-0.7c-3.9-0.2-7.8,0.7-7.9,2.7l0,0c0.1,0.2,0.1,0.4,0.2,0.6l0,0
						c1.2,4.7,0.3,9.6-1.7,14.2c-2,4.7-5.1,9-7.9,13.5c-1.2,1.9-2.4,3.9-3.4,5.9l0,0c-1.3,2.6-2.3,5.3-2.9,8.1
						C190.2,143.5,191.1,148.9,194.7,152.8z"/>
				</g>
				<g>
					<path class="st0" d="M206.8,96.3L206.8,96.3c0,0.2,0.1,0.4,0.2,0.6l0,0c0.1,0.2,0.2,0.4,0.3,0.6l5.5,0.7l4.4,0.5l3.4,0.4l0,0
						c0.8-2.2,3.2-3.5,4.9-5.3c1.5-1.6,2.6-3.6,3-5.7c0.2-1.1,0.3-2.2,0.2-3.3c0-0.5-0.1-0.9-0.3-1.3c0,0,0-0.1-0.1-0.1l0,0
						c-0.2-0.3-0.4-0.5-0.6-0.7c-0.5-0.5-1-1-1.6-1.3c-1.2-0.7-2.7-0.9-4.1-0.9c-1.4,0-2.8,0.2-4.2,0.3c-2.2,0-4.3-0.4-6.5-0.4
						c-0.2,0-0.5,0-0.7,0.2c-0.2,0.1-0.3,0.3-0.4,0.4c-0.8,1.1-1.7,2.2-2.2,3.5c-0.4,1-0.5,2-0.6,3c0,0.3-0.1,0.5-0.1,0.8
						s-0.1,0.6-0.1,0.8c-0.1,1.1-0.2,2.3-0.4,3.4C206.8,93.8,206.6,95.1,206.8,96.3z"/>
				</g>
				<g>
					<path class="st2" d="M205.1,154.4c0.9-0.8,1.6-1.9,2.1-3c0.8-1.9,1.1-4,1.9-5.9c1.5-3.5,4.6-6.2,6.4-9.6
						c4.4-8.4-0.6-18.6,2.7-27.4c0.5-1.2,1.1-2.3,1.4-3.6c0.5-1.9,0.4-4,1-5.9l0,0c0.8-2.2,3.2-3.5,4.9-5.3c1.5-1.6,2.6-3.6,3-5.7
						c-0.2,0.1-0.4,0.3-0.6,0.4c-1.3,0.7-2.7,1.1-4,1.7c-1.5,0.7-2.9,1.8-3.9,3.1c-0.2,0.3-0.5,0.6-0.7,0.9
						c-0.9,1.4-1.5,2.9-2.1,4.4c-0.2,0.4-0.3,0.8-0.4,1.2c-2,5.4-4.1,10.9-4.7,16.7c-0.6,4.9-0.1,9.9-1.1,14.6
						c-0.5,2.5-1.4,5-2.7,7.2c-1.5,2.7-3.6,5.3-3.9,8.4C204.1,149.3,205.1,151.9,205.1,154.4z"/>
				</g>
				<g>
					<path class="st1" d="M194,130.5L194,130.5c0.3,0.6,0.7,1,1.3,1c0.5,0,0.9-0.3,1.3-0.6c1.5-1.3,2.3-3.2,3.2-4.9
						c1.6-3.1,3.6-5.9,6-8.4c1.3-1.3,2.7-2.6,3.5-4.2s1-3.5,1.3-5.3c0.5-3,1.2-6,1.9-8.9c0.1-0.3,0.1-0.6,0.2-0.9
						c0.4-1.6,0.9-3.3,1.9-4.6c0.1-0.1,0.2-0.3,0.3-0.4c1.2-1.4,3.1-2.5,3.3-4.3c0.2-1.4-0.6-2.7-1.8-3.4l0,0
						c-0.2-0.1-0.3-0.2-0.5-0.2c-1.4-0.6-3.1-0.3-4.5,0.3c-1.6,0.7-2.8,1.9-3.9,3.3c-0.1,0.2-0.3,0.3-0.4,0.5
						c-0.1,1.1-0.2,2.3-0.4,3.4c-0.1,1.1-0.3,2.5-0.1,3.6l0,0c0,0.2,0.1,0.4,0.2,0.6l0,0c1.2,4.7,0.3,9.6-1.7,14.2
						c-2,4.7-5.1,9-7.9,13.5C196.2,126.5,195,128.4,194,130.5z"/>
				</g>
			</g>
		</g>
		<g>
			<path class="st17" d="M189.2,177.5c0,0-30.4,23.7-60.8,7.4c0,0-14.5-8.2-18-8.5c-0.4-0.1-0.6-0.7-0.6-1.4
				c-0.2-3.8,3.4-13.5,5.4-12.8c0,0,11.5,8.5,27.9,10.9c11.6,1.7,25.6,0.2,39.7-9.6c0,0,1.8,0.6,3.5,3.6c1,1.7,1.9,4.1,2.6,7.5
				C188.9,175.4,189.1,176.4,189.2,177.5z"/>
			<g>
				<path class="st16" d="M188.7,174.5c-2.7,2.2-6.1,3.6-9.5,4.1c-1.9,0.3-3.8,0.2-5.7,0.5c-2.2,0.3-4.4,1.1-6.6,1.7
					c-10.4,3-21.7,2.9-32.1-0.1c-0.8-0.2-1.6-0.6-1.9-1.3c-0.3-0.8,0.4-1.7,1.2-2c0.8-0.3,1.7-0.2,2.6,0c17,2.5,34.9-1.2,49.5-10.3
					C187.1,168.6,188.1,171,188.7,174.5z"/>
			</g>
			<g>
				<path class="st4" d="M142.9,173c-2.5,1.4-5.6,1.5-8.4,1.2c-4.6-0.5-9.2-1.6-13.5-3.4c-1.2-0.5-2.4-1-3.6-1
					c-2.2,0.1-3.9,1.9-5.5,3.5c-0.6,0.6-1.4,1.3-2.2,1.8c-0.2-3.8,3.4-13.5,5.4-12.8C115,162.2,126.6,170.7,142.9,173z"/>
			</g>
		</g>
	</g>
</g>
</svg>
