<?xml version="1.0" encoding="utf-8"?>
<!-- Generator: Adobe Illustrator 23.0.2, SVG Export Plug-In . SVG Version: 6.00 Build 0)  -->
<svg version="1.1" xmlns="http://www.w3.org/2000/svg" xmlns:xlink="http://www.w3.org/1999/xlink" x="0px" y="0px"
	 viewBox="0 0 243.6 252.5" style="enable-background:new 0 0 243.6 252.5;" xml:space="preserve">
<style type="text/css">
	.st0{fill:#C4997A;}
	.st1{fill:#8A6249;}
	.st2{fill:#9E775A;}
	.st3{opacity:0.5;fill:#9E775A;}
	.st4{opacity:0.5;fill:#E8C09E;}
	.st5{fill:#242424;}
	.st6{fill:#101010;}
	.st7{fill:#1C1C1C;}
	.st8{fill:#BDA990;}
	.st9{fill:#A4937D;}
	.st10{fill:#343434;}
	.st11{fill:#191919;}
	.st12{fill:#403429;}
	.st13{fill:#2E251D;}
	.st14{fill:#7D6650;}
	.st15{opacity:0.5;fill:#1F1913;}
	.st16{fill:#35291E;}
</style>
<g id="Camada_1">
</g>
<g id="Camada_2">
	<g>
		<g>
			<g>
				<g>
					<path class="st0" d="M195.9,60.8C195.9,60.8,195.8,60.8,195.9,60.8c-0.2,0.4-0.9,1.4-1.4,1c-0.2-0.1-0.3-0.5-0.3-0.7
						c-0.1-0.4-0.2-0.8-0.3-1.1c-0.5-1.5-1.2-3-1.9-4.4c-0.4-0.9-0.8-1.8-1.2-2.7c-0.8-2-1.4-4.1-2.1-6.2c-0.2-0.6-0.4-1.2-0.6-1.8
						c-0.5-1.3-1-2.6-1.7-3.8c-0.3-0.5-0.6-1-0.9-1.4c-0.1-0.1-0.2-0.2-0.2-0.3c-0.2-0.5,0.4-0.8,0.8-0.9c0.5-0.1,1-0.1,1.5,0.2
						c0.9,0.5,1.4,1.4,1.9,2.2c3.2,5.7,6.1,11.7,6.8,18.1C196.1,59.4,196.1,60.1,195.9,60.8z"/>
					<path class="st1" d="M195.9,60.8c-0.7-1.8-1-3.7-1.6-5.5c-0.4-1.1-0.9-2.1-1.4-3.1c-0.8-1.6-1.7-3.2-3-4.4
						c-0.4-0.4-0.8-0.8-1.3-1.1c-0.2-0.6-0.4-1.2-0.6-1.8c-0.5-1.3-1-2.6-1.7-3.8c-0.3-0.5-0.6-1-0.9-1.4c-0.1-0.1-0.2-0.2-0.2-0.3
						c-0.2-0.5,0.4-0.8,0.8-0.9c0.5-0.1,1-0.1,1.5,0.2c0.9,0.5,1.4,1.4,1.9,2.2c3.2,5.7,6.1,11.7,6.8,18.1
						C196.1,59.4,196.1,60.1,195.9,60.8z"/>
				</g>
				<g>
					<path class="st0" d="M208.9,94.1c-0.1,0.5-0.1,0.8-0.1,1.3c0.1,0.8,0.1,1.4,0,2.1c-0.1,0.5,0,1.1,0,1.6c0,1.3,0,2.5,0,3.8
						c0,1-0.1,2-0.1,3c0,0.2,0,0.3,0,0.5c0.1,0.3,0.1,0.6,0.1,1c0,0.9-0.1,1.7-0.1,2.6c-0.1,1.6-0.2,3.2-0.4,4.7
						c0,0.2,0,0.3-0.1,0.5c-0.4,3.5-1,6.9-1.7,10.3c-0.1,0.4-0.2,0.7-0.2,1.1c-0.1,0.3-0.1,0.6-0.2,0.8v0c0,0,0,0,0,0
						c-0.1,0.4-0.2,0.9-0.4,1.3c-0.1,0.2-0.1,0.4-0.2,0.6c-0.2,0.6-0.4,1.3-0.7,1.9c-0.1,0.3-0.3,0.6-0.4,0.9
						c-0.1,0.3-0.2,0.6-0.4,0.9c-0.2,0.3-0.3,0.6-0.6,0.8c-0.3,0.2-0.6,0.2-0.9,0.2c-0.2,0-0.3,0-0.5,0c-1.3,0.1-2.6,0.2-3.9,0.2
						c-0.2,0-0.4,0-0.5,0c0,0,0,0,0,0c0,0,0,0,0,0c-0.1,0-0.2,0-0.4,0c-0.1,0-0.3,0-0.4,0c-0.8-0.1-1.7-0.1-2.4-0.4
						c-0.6-0.3-1.4-0.3-2.1-0.4c-2.1-0.5-4.1-1.3-6.1-2c-8.3-2.7-17.4-2.4-25.7-5c-4.1-1.3-8.1-3.3-12.4-3.3c-2.2,0-4.4,0.7-6.3,1.7
						l2.2-2.5l17.2-19.2c3.3,1.7,6.6,3.6,10.1,5.1c1.1,0.5,2.3,0.9,3.5,1.3c5.8,1.7,12.1,1.7,17.4,4.5c0.2-0.4,0.4-0.8,0.7-1.2
						c0.1-0.3,0.3-0.5,0.4-0.8c0.1-0.3,0.3-0.6,0.4-0.9c0.1-0.3,0.2-0.6,0.3-0.9c0.1-0.2,0.1-0.5,0.1-0.7c0.4-1.2,0.7-2.5,0.9-3.7
						c0.2-1.3,0.4-2.5,0.6-3.8c0.1-0.6,0.1-1.3,0.2-1.9c0-0.3,0.1-0.5,0.1-0.7c0.1-0.3,0.1-0.6,0.1-0.8c0.1-0.8,0.2-1.5,0.3-2.3
						c0.1-0.9,0.2-1.8,0.3-2.8c0-0.4,0.1-0.8,0.1-1.2c0.1-0.7,0.1-1.3,0.2-2c0-0.3,0.1-0.6,0-0.9c-0.1-0.6,0-1.3,0.1-1.9
						c0.2-2.7,0.4-5.3,0.6-8c0.1-1.3,0.2-2.7,0.2-4c0-0.7,0.1-1.3,0.1-2c0-0.3,0.1-0.5,0-0.8c-0.2-0.7-0.2-1.4-0.2-2.1
						c-0.2-1.6-0.5-3.1-1-4.6c-0.3-0.8-0.7-1.6-1.1-2.4c-0.2-0.4-0.5-0.8-0.7-1.1c-0.1-0.2-0.2-0.4-0.4-0.5
						c-0.2-0.3-0.3-0.4-0.4-0.8c-1.2-3.3-1.3-6.8-1.9-10.4c-0.3-1.4-0.6-2.8-1-4.2c-0.7-2.3-1.5-4.7-2.3-6.9c-0.4-1-0.7-2.1-1.4-2.9
						c-0.5-0.6,0.4-1.4,1.1-1.3c0.3,0,0.8,0.2,1.1,0.4c0.2,0.1,0.3,0.2,0.4,0.3c0.4,0.3,0.7,0.6,1,0.9c1.3,1.6,1.8,3.5,2.6,5.4
						c0.6,1.6,1.3,3.1,2,4.6c0.6,1.3,1.2,2.5,1.9,3.8c0.3,0.6,0.7,1.2,1,1.8c0,0.1,0.1,0.2,0.1,0.3c0.1,0.4,0.3,0.7,0.5,1.1
						c0.3,0.6,0.5,1.3,0.8,1.9c0-1.8,0.1-3.6,0.6-5.3c0.3-0.9,0.8-2,1.8-2c0.8,0,1.3,0.7,1.6,1.5c1.1,2.2,0.2,4.9,0.6,7.4
						c0.4,2.7,2.1,5,2.5,7.7c0.2,1.3,0.2,2.6,0.1,3.9c-0.1,1.1-0.1,2.2-0.2,3.4c-0.1,1.7,0.2,3.4,0.4,5c0.4,2.7,0.9,5.5,1.2,8.2
						c0.2,1.5,0.2,2.9,0.3,4.4C208.9,91.2,209.1,92.7,208.9,94.1z"/>
					<path class="st2" d="M203.7,80.6c-0.8,3.7-3.1,7.2-2.8,11c0.3,3.7,0.3,7.5-0.2,11.2c-0.8,6.6-2.8,13-6,18.7
						c-0.1,0.1-0.1,0.2-0.2,0.3c-0.4,0.7-0.8,1.3-1.4,1.8c-0.7,0.5-1.6,0.8-2.5,0.5c-0.7-0.3-1.2-0.9-1.6-1.5
						c-1.8-2.5-3.8-4.8-5.9-7.1c-0.9-1-1.8-1.9-2.9-2.6c-1.7-1.2-3.6-1.8-5.4-2.7c-1.2-0.5-2.3-1.2-3.3-2c1.1,0.5,2.3,0.9,3.5,1.3
						c5.8,1.7,12.1,1.7,17.4,4.5c0.2-0.4,0.4-0.8,0.7-1.2c0.1-0.3,0.3-0.5,0.4-0.8c0.1-0.3,0.3-0.6,0.4-0.9c0.1-0.3,0.2-0.6,0.3-0.9
						c0.1-0.2,0.1-0.5,0.1-0.7c0.4-1.2,0.7-2.5,0.9-3.7c0.2-1.3,0.4-2.5,0.6-3.8c0.1-0.6,0.1-1.3,0.2-1.9c0-0.3,0.1-0.5,0.1-0.7
						c0.1-0.3,0.1-0.6,0.1-0.8c0.1-0.8,0.2-1.5,0.3-2.3c0.1-0.9,0.2-1.8,0.3-2.8c0-0.4,0.1-0.8,0.1-1.2c0.1-0.7,0.1-1.3,0.2-2
						c0-0.3,0.1-0.6,0-0.9c-0.1-0.6,0-1.3,0.1-1.9c0.2-2.7,0.4-5.3,0.6-8c0.1-1.3,0.2-2.7,0.2-4c0-0.7,0.1-1.3,0.1-2
						c0-0.3,0.1-0.5,0-0.8c-0.2-0.7-0.2-1.4-0.2-2.1c-0.2-1.6-0.5-3.1-1-4.6c-0.3-0.8-0.7-1.6-1.1-2.4c-0.2-0.4-0.5-0.8-0.7-1.1
						c-0.1-0.2-0.2-0.4-0.4-0.5c-0.2-0.3-0.3-0.4-0.4-0.8c-1.2-3.3-1.3-6.8-1.9-10.4c-0.3-1.4-0.6-2.8-1-4.2
						c-0.7-2.3-1.5-4.7-2.3-6.9c-0.4-1-0.7-2.1-1.4-2.9c-0.5-0.6,0.4-1.4,1.1-1.3c0.3,0,0.8,0.2,1.1,0.4c0.6,1.5,1,3,1.4,4.6
						c0.7,2.5,1.3,5.1,1.8,7.7c0.9,4.8,1.1,9.9,3.9,13.9c0.6,0.8,1.3,1.6,1.8,2.4c1.2,2,1.6,4.8,3.6,6c0.3,0.2,0.6,0.3,0.9,0.6
						c0.4,0.4,0.5,1.1,0.5,1.7C204.1,75.1,204.3,77.9,203.7,80.6z"/>
					<path class="st1" d="M208.4,114.7c0,0.2,0,0.3-0.1,0.5c-0.4,3.5-1,6.9-1.7,10.3c-0.1,0.4-0.2,0.7-0.2,1.1
						c-0.1,0.3-0.1,0.6-0.2,0.8v0c0,0,0,0,0,0c-0.1,0.4-0.2,0.9-0.4,1.3c-0.1,0.2-0.1,0.4-0.2,0.6c-0.2,0.6-0.4,1.3-0.7,1.9
						c-0.1,0.3-0.3,0.6-0.4,0.9c-0.1,0.3-0.2,0.6-0.4,0.9c-0.2,0.3-0.3,0.6-0.6,0.8c-0.3,0.2-0.6,0.2-0.9,0.2c-0.2,0-0.3,0-0.5,0
						c-1.3,0.1-2.6,0.2-3.9,0.2c-0.2,0-0.4,0-0.5,0c0,0,0,0,0,0c0,0,0,0,0,0c-0.1,0-0.2,0-0.4,0c-0.1,0-0.3,0-0.4,0
						c-0.8-0.1-1.7-0.1-2.4-0.4c-0.6-0.3-1.4-0.3-2.1-0.4c-2.1-0.5-4.1-1.3-6.1-2c-8.3-2.7-17.4-2.4-25.7-5
						c-4.1-1.3-8.1-3.3-12.4-3.3c-2.2,0-4.4,0.7-6.3,1.7l2.2-2.5c1.9-1.5,3.9-2.8,5.5-4.6c1-1.1,1.7-2.4,2.7-3.6
						c1-1.1,2.3-2,3.8-2.1c-1.6,1.3-3.1,2.7-4.4,4.3c-0.5,0.6-1,1.5-0.7,2.2c0.4,0.7,1.3,0.8,2,0.8c3.7-0.1,7.7-1.2,10.9,0.7
						c1.5,0.9,2.6,2.4,4.2,3.1c1.2,0.5,2.6,0.6,3.9,0.7c6.6,0.7,12.3,4.8,18.7,6.4c1.8,0.4,3.6,0.7,5.4,0.5c0.6-0.1,1.2-0.2,1.8-0.3
						c3-0.8,5.3-3,6.9-5.8c0.9-1.5,1.5-3.1,2-4.8C207.4,118.2,207.7,116.3,208.4,114.7z"/>
					<path class="st3" d="M206.1,127.4L206.1,127.4C206.1,127.4,206.1,127.4,206.1,127.4c-0.1,0.4-0.2,0.9-0.4,1.3
						c-0.1,0.2-0.1,0.4-0.2,0.6c-0.2,0.6-0.4,1.3-0.7,1.9c-0.1,0.3-0.3,0.6-0.4,0.9c-0.1,0.3-0.2,0.6-0.4,0.9
						c-0.2,0.3-0.3,0.6-0.6,0.8c-0.3,0.2-0.6,0.2-0.9,0.2c-0.2,0-0.3,0-0.5,0c-1.3,0.1-2.6,0.2-3.9,0.2c-0.2,0-0.4,0-0.5,0
						c0,0,0,0,0,0c-0.6-1.1-1.1-2.3-1.5-3.5c-0.7-2.1-1.1-4.3-1.4-6.5c-0.1-0.8-0.2-1.6-0.3-2.4c-0.3-3.3-0.5-6.7-1.2-9.9
						c0.1-0.3,0.3-0.6,0.4-0.9c0.1-0.3,0.2-0.6,0.3-0.9c0.1-0.2,0.1-0.5,0.1-0.7c0.4-1.2,0.7-2.5,0.9-3.7c0.2-1.3,0.4-2.5,0.6-3.8
						c0.1-0.6,0.1-1.3,0.2-1.9c0-0.3,0.1-0.5,0.1-0.7c0.1-0.3,0.1-0.6,0.1-0.8c0.1-0.8,0.2-1.5,0.3-2.3c0.1-0.9,0.2-1.8,0.3-2.8
						c0.2,1,0.5,2,0.8,2.9c0.9,2.2,2.1,4.3,3.1,6.5c0.1,0.1,0.1,0.3,0.2,0.4c0.6,1.3,1.1,2.7,1.4,4.1c0.7,3.5,0.1,7.1,0.6,10.6
						c0.3,2.3,1.1,4.6,2,6.7c0.2,0.5,0.4,1,0.6,1.5C205.8,126.6,205.9,127,206.1,127.4z"/>
				</g>
			</g>
			<g>
				<path class="st0" d="M209.8,164.2c-0.7,0.7-1.5,1.3-2.5,1.6c-0.7,0.2-1.4,0.2-2.2,0.2c-1.5,0-2.9-0.1-4.4-0.1
					c-0.8,0-1.7,0-2.5-0.2c0,0,0,0,0,0c-0.7-0.1-1.4-0.2-2-0.6c-0.9-0.5-0.7-1.8-0.8-2.7c-0.1-1.6-0.2-3.2-0.3-4.8
					c-0.1-1.1-0.2-2.1-0.3-3.2c-0.1-0.8-0.1-1.6-0.2-2.3c0-0.2-0.2-0.5-0.2-0.7c-0.1-0.3-0.1-0.7-0.2-1c-0.4-1.3-1.2-2.5-2.2-3.5
					c-0.8-0.8-1.6-1.6-2.5-2.3c-0.5-0.4-1-0.8-1.4-1.3h0c-1.1-1.1-2.2-2.3-2.8-3.6c-0.3-0.7-0.5-1.5-0.5-2.3c0-2.3,1.4-4.4,2.5-6.5
					c0.8-1.6,1.4-3.3,1.6-5.1c0.8-6.2-2.9-12.2-2.9-18.4c0-1.8,0.3-3.6,0.2-5.4c-0.1-1.5-0.6-3-0.3-4.5c0.3-1.5,1.4-2.9,2.8-3.5
					c0.1,0,0.2-0.1,0.3-0.1c0.5-0.2,1.1-0.2,1.6,0.1c0.5,0.3,0.7,1,0.6,1.6c-0.1,0.3-0.1,0.6,0,1c0.2,0.7,0.7,1.3,1.3,1.8
					c0.9,0.7,1.9,1,2.8,1.5c3.7,1.9,6.2,5.9,6.3,10c0.1,1.8-0.3,3.7-0.1,5.5c0.2,1.7,0.8,3.3,1.2,5c0.6,2.4,0.9,4.8,1.4,7.3
					c0.9,4.7,2.4,9.3,3.9,13.9c1.3,3.9,2.6,7.8,4.3,11.6c0.6,1.2,1.2,2.5,1.3,3.8C214,159.7,212,162.3,209.8,164.2z"/>
				<path class="st4" d="M198.8,115.3c-0.1,3.9-0.8,7.8-1.4,11.6c-0.2,1-0.4,2-0.6,3.1c-0.4,1.6-0.7,3.2-1.1,4.8
					c-0.3,1.4-0.7,2.7-1.2,4c-0.6,1.3-1.5,2.3-2.7,3.1c-1.1,0.8-2.3,1.4-3.6,1.6c-1.8-1.7-3.3-3.6-3.3-5.9c0-2.3,1.4-4.4,2.5-6.5
					c0.8-1.6,1.4-3.3,1.6-5.1c0.8-6.2-2.9-12.2-2.9-18.4c0-1.8,0.3-3.6,0.2-5.4c-0.1-1.5-0.6-3-0.3-4.5c0.3-1.5,1.4-2.9,2.8-3.5
					c0.1,0,0.2-0.1,0.3-0.1c0,1.3,0.1,2.7,0.9,3.8c0.7,1,1.8,1.6,2.9,2.3c0.7,0.5,1.4,0.9,1.9,1.5c0.2,0.3,0.5,0.5,0.7,0.8
					c0.4,0.6,0.8,1.2,1.1,1.8c0.7,1.2,1.2,2.6,1.5,3.9c0.6,2.3,0.8,4.7,0.8,7C198.8,115.2,198.8,115.3,198.8,115.3z"/>
				<path class="st0" d="M188.5,95.2c-0.7,0.3-0.9,1.3-1,2.1c0,0.7,0.1,1.5,0.7,1.8c0.3,0.1,0.6,0.1,0.8,0.3c0.6,0.4,0.1,1.5,0.6,2
					c0.4,0.4,1.3,0.1,1.7,0.6c0.4,0.4,0.2,1.2,0.6,1.5c0.4,0.2,0.9,0,1.2,0.4c0.3,0.4-0.1,0.9-0.2,1.3c-0.1,0.6,0.6,1.1,1.3,1.1
					c0.6,0,1.2-0.3,1.8-0.5c0.6-0.2,1.3-0.2,1.8,0.2c0.3,0.3,0.5,0.9,1,1c0.3,0,0.6-0.2,0.7-0.6c0.1-0.3,0-0.6,0-0.9
					c-0.2-1-0.6-2-1.1-3c-0.5-1-1.1-1.8-1.8-2.7c-0.7-0.8-1.5-1.5-2.4-2.2c-0.4-0.3-0.8-0.6-1.3-0.6c-0.4-0.1-0.8-0.1-1.1-0.3
					c-1-0.5-1.7-1.8-2.9-1.7C188.8,95.2,188.6,95.2,188.5,95.2z"/>
				<path class="st2" d="M198,105.6c0,0.1-0.1,0.1-0.2,0.1c-0.1,0-0.2,0-0.3,0c-0.4,0-0.8,0-1.1,0c-0.1,0-0.2,0-0.3,0
					c-0.3,0-0.5,0.2-0.7,0.3c-0.3,0.1-0.6,0.2-0.9,0.2c-0.6,0-1.3-0.5-1.3-1.1c0.1-0.5,0.5-1,0.2-1.3c-0.3-0.3-0.8-0.1-1.2-0.4
					c-0.5-0.3-0.3-1.1-0.6-1.5c-0.4-0.4-1.3-0.2-1.7-0.6c-0.5-0.5,0-1.6-0.6-2c-0.2-0.2-0.6-0.2-0.8-0.3c-0.6-0.3-0.8-1.1-0.7-1.8
					c0-0.2,0-0.5,0.1-0.7c0.1,0.5,0.3,0.9,0.8,1c0.3,0.1,0.7,0.1,0.9,0.3c0.6,0.5,0.1,1.7,0.7,2.3c0.5,0.5,1.5,0.2,1.9,0.7
					c0.4,0.5,0.2,1.3,0.7,1.7c0.4,0.3,1.1,0,1.4,0.4c0.3,0.4-0.2,1-0.2,1.5c-0.1,0.7,0.7,1.3,1.4,1.3c0.7,0,1.4-0.3,2.1-0.5
					c0.1,0,0.1-0.1,0.2-0.1c0.1,0,0.2,0,0.3,0.1c0.1,0.1,0.2,0.2,0.2,0.3C198,105.5,198,105.5,198,105.6z"/>
				<path class="st1" d="M198.3,165.7C198.3,165.7,198.3,165.7,198.3,165.7c-0.7-0.1-1.4-0.2-2-0.6c-0.9-0.5-0.7-1.8-0.8-2.7
					c-0.1-1.6-0.2-3.2-0.3-4.8c-0.1-1.1-0.2-2.1-0.3-3.2c-0.1-0.8-0.1-1.6-0.2-2.3c0-0.2-0.2-0.5-0.2-0.7c-0.1-0.3-0.1-0.7-0.2-1
					c-0.4-1.3-1.2-2.5-2.2-3.5c-0.8-0.8-1.6-1.6-2.5-2.3c-0.5-0.4-1-0.8-1.4-1.3h0c-1.1-1.1-2.2-2.3-2.8-3.6c0.5,0.2,1,0.4,1.4,0.8
					c0.5,0.4,0.9,1,1.4,1.5c2.2,2.3,5.8,2.5,8.8,1.8c0.4-0.1,1-0.1,1.1,0.3c0.1,0.3-0.1,0.6-0.3,0.8c-0.7,0.8-1.5,1.5-2,2.5
					c-1.1,2.3,0.2,4.9,0.4,7.4c0.1,1,0,2,0,3c0.1,2.2,1.1,4.3,1.7,6.4C198.1,164.8,198.2,165.3,198.3,165.7z"/>
			</g>
			<g>
				<path class="st5" d="M125.4,221.7l-8.1,3.7l-9.8,4.5h0c-0.2-0.1-9.7-4.2-18.4-2.1c-8.7,2.1-11,14.3-11.1,14.7c0,0,0,0,0,0
					c0,0,0,0.1,0,0.1c-0.1,0-0.2-0.1-0.4-0.2c-7.7-2.7-16-2-24.1-2.7c-4-0.3-8-1-11.9-1.8c-4.2-0.8-8.5-1.8-11.9-4.2
					c-1.7-1.2-3.2-2.7-5.1-3.4c-1.8-0.7-3.9-0.6-5.9-0.7c-0.6,0-1.2,0-1.7-0.2c-0.6-0.2-1.2-0.4-1.8-0.6c-1.2-0.5-2.3-1.1-3.3-1.9
					c-0.7-0.6-1.2-1.4-2-1.9c-0.8-0.5-1.8-0.8-2.6-0.2c-0.5,0.4-0.7,1-0.8,1.6c-0.1,0.6,0.1,1.2,0.2,1.8c0.1,0.7,0.3,1.4,0.4,2.1
					c0,0.2,0.1,0.5,0.2,0.7c0,0,0,0.1,0.1,0.1c-0.9-0.9-1.6-1.8-2.3-2.9c-1.7-2.7-2.4-6.1-1.8-9.3c0.2-0.9,0.4-1.8,0.8-2.7
					c0.2-0.4,0.4-0.8,0.6-1.2c0.1-0.2,0.2-0.4,0.4-0.6c0.2-0.3,0.5-0.6,0.8-0.8c0.5-0.5,1.1-1,1.6-1.5c1.2-1,2.4-1.8,3.8-2.4
					c0.3-0.1,0.7-0.3,0.9-0.4c0.4-0.3,0.8-0.4,1.2-0.5c0.9-0.3,1.8-0.6,2.7-0.8c0.6-0.1,1.3-0.2,1.9-0.4c1.3-0.2,2.6-0.5,3.9-0.7
					c2.6-0.5,5.2-0.9,7.8-1.3c5.2-0.8,10.5-1.5,15.7-2.2c5.2-0.6,10.5-1.2,15.8-1.6c5.3-0.5,10.5-0.8,15.8-1.1
					c1.1-0.1,2.2-0.1,3.3-0.2c8.5-0.4,16.5,3.7,23.6,8.3C110.8,213.3,117.5,218.7,125.4,221.7z"/>
				<path class="st6" d="M126.2,221.2c-0.1,0.6-0.4,1.2-0.7,1.7c-0.5,0.7-1.2,1.3-1.9,1.8c-1.3,0.8-2.7,1.2-4.1,1.6
					c-3,0.8-6.2,1.5-9.2,0.7c-4.7-1.3-7.6-5.9-10.8-9.5c-2.5-2.8-5.5-5.2-8.8-7c-4.7-2.6-9.9-4-14.6-6.5c-1.5-0.8-3.1-2-3.1-3.7
					c0-0.6,0.2-1.2,0.4-1.8c0,0,0,0,0,0c0.5-1.3,0.8-2.7,1.1-4c0.3-1.2,0.4-2.5,0.5-3.7c0.1-0.6-0.1-1.6,0.4-2.1
					c0.6-0.7,2-0.5,2.8-0.3c1.1,0.4,2,1.1,3,1.7c5.4,3.4,12.2,3.4,17.9,6.3c4.9,2.5,8.5,7,12.9,10.4c3.7,2.9,8.1,5.1,11.5,8.4
					C125.2,216.9,126.7,219,126.2,221.2z"/>
				<path class="st7" d="M68,215.6c0.9-0.4,1.7-1.2,2.6-1.7c3.1-2,7-1.5,10.4-0.3c3.4,1.2,6.7,3,10.2,3.5c1.3,0.2,2.6,0.2,3.9,0.5
					c3.6,0.8,6.5,3.9,8.4,7.5c0.3,0.6,0.6,1.3,0.3,1.9c-0.2,0.4-0.7,0.6-1.1,0.7c-1.8,0.4-3.7,0-5.6-0.4c-5.8-1.4-11.4-3.5-17.3-4.4
					c-1.2-0.2-2.3-0.3-3.4-0.6c-1.1-0.3-2.2-0.7-3.3-1.2c-2.4-1-4.8-1.9-7.3-2.9c-0.6-0.2-1.2-0.5-1.8-0.7c-0.4-0.2-0.8-0.3-1.1-0.8
					c-0.1-0.2-0.4-0.6-0.2-0.8c0.2-0.2,1.2,0.1,1.5,0.1c0.7,0.1,1.3,0.1,2,0.1C66.4,216,68,215.9,68,215.6z"/>
				<path class="st8" d="M81.9,225c-0.1,0-0.2,0-0.2,0c-0.3,0-0.6-0.2-1-0.3c0,0,0,0,0,0L81.9,225z"/>
				<path class="st6" d="M78,243.7c0,0.2,0,0.4-0.1,0.6c-0.1,0.2-0.4,0.3-0.6,0.2c-0.2,0-0.4-0.1-0.7-0.2c-0.7-0.3-1.4-0.7-2.1-1.1
					c-0.3-0.1-0.6-0.4-0.9-0.3c-0.1,0-0.1,0-0.2,0c-0.1,0-0.2,0-0.4,0c-0.2,0-0.4,0-0.6-0.1h0c-0.2,0-0.4,0-0.6,0
					c-0.1,0-0.2,0-0.3,0c-0.8-0.1-1.5-0.1-2.3-0.2c-0.9-0.1-1.7-0.1-2.6-0.2c-2.6-0.2-5.2-0.5-7.8-0.7c-3.3-0.3-6.6-0.6-9.9-1
					c-2.2-0.2-4.3-0.4-6.5-0.7c0,0-0.1,0-0.1,0c-1.7-0.2-3.5-0.4-5.2-0.6c-1.6-0.2-3.2-0.3-4.7-0.5c-4.3-0.5-8.6-1-12.9-2
					c-2.3-0.5-4.6-1.2-6.8-2.1c-0.8-0.3-1.7-0.5-2.4-1.1c-0.7-0.6-1.4-1.1-2-1.7c-0.4-0.3-0.8-0.7-1.1-1.1c0,0,0,0,0-0.1
					c0,0,0-0.1-0.1-0.1C7,230.7,7,230.4,7,230.2c-0.1-0.7-0.3-1.4-0.4-2.1c-0.1-0.6-0.2-1.2-0.2-1.8c0.1-0.6,0.3-1.2,0.8-1.6
					c0.8-0.5,1.8-0.3,2.6,0.2c0.8,0.5,1.3,1.3,2,1.9c0.9,0.9,2.1,1.5,3.3,1.9c0.6,0.2,1.2,0.4,1.8,0.6c0.6,0.2,1.1,0.1,1.7,0.2
					c2,0.1,4,0,5.9,0.7c1.9,0.7,3.4,2.2,5.1,3.4c3.5,2.4,7.8,3.4,11.9,4.2c3.9,0.8,7.9,1.4,11.9,1.8c8.1,0.7,16.4,0.1,24.1,2.7
					c0.1,0.1,0.3,0.1,0.4,0.2C77.9,242.9,78,243.3,78,243.7z"/>
				<path class="st6" d="M78.2,243.4c0,0.2,0,0.4-0.1,0.6c-0.1,0.2-0.4,0.3-0.6,0.2c-0.2,0-0.4-0.1-0.7-0.2
					c-0.7-0.3-1.4-0.7-2.1-1.1c-0.3-0.1-0.6-0.4-0.9-0.3c-0.1,0-0.1,0-0.2,0c-0.1,0-0.2,0-0.4,0c-0.2,0-0.4,0-0.6-0.1h0
					c-0.2,0-0.4,0-0.6,0c-0.1,0-0.2,0-0.3,0c-0.8-0.1-1.5-0.1-2.3-0.2c-0.9-0.1-1.7-0.1-2.6-0.2c-2.6-0.2-5.2-0.5-7.8-0.7
					c-3.3-0.3-6.6-0.6-9.9-1c-2.2-0.2-4.3-0.4-6.5-0.7c0,0-0.1,0-0.1,0c-1.7-0.2-3.5-0.4-5.2-0.6c-1.6-0.2-3.2-0.3-4.7-0.5
					c-4.3-0.5-8.6-1-12.9-2c-2.3-0.5-4.6-1.2-6.8-2.1c-0.8-0.3-1.7-0.5-2.4-1.1c-0.7-0.6-1.4-1.1-2-1.7c-0.4-0.3-0.8-0.7-1.1-1.1
					c0,0,0,0,0-0.1c0,0,0-0.1-0.1-0.1c-0.1-0.2-0.1-0.5-0.2-0.7c-0.1-0.7-0.3-1.4-0.4-2.1c-0.1-0.6-0.2-1.2-0.2-1.8
					c0.1-0.6,0.3-1.2,0.8-1.6c0.8-0.5,1.8-0.3,2.6,0.2c0.8,0.5,1.3,1.3,2,1.9c0.9,0.9,2.1,1.5,3.3,1.9c0.6,0.2,1.2,0.4,1.8,0.6
					c0.6,0.2,1.1,0.1,1.7,0.2c2,0.1,4,0,5.9,0.7c1.9,0.7,3.4,2.2,5.1,3.4c3.5,2.4,7.8,3.4,11.9,4.2c3.9,0.8,7.9,1.4,11.9,1.8
					c8.1,0.7,16.4,0.1,24.1,2.7c0.2,0.1,0.3,0.1,0.4,0.2C78.1,242.7,78.2,243.1,78.2,243.4z"/>
				<path class="st9" d="M7.3,231.1c0.4,0.4,0.7,0.7,1.1,1.1C8,231.8,7.5,231.5,7.3,231.1C7.2,231,7.3,231.1,7.3,231.1z"/>
				<path class="st9" d="M72.3,242.9c-0.2,0-0.4,0-0.6,0C72,242.8,72.2,242.9,72.3,242.9z"/>
				<path class="st8" d="M81.9,225c-0.1,0-0.2,0-0.2,0c-0.3,0-0.6-0.2-1-0.3c0,0,0,0,0,0L81.9,225z"/>
			</g>
			<g>
				<path class="st5" d="M233.9,226.9c-0.1,0.4-0.1,0.7-0.2,1.1c-0.3,1.5-0.6,3-1.2,4.4c-0.8,1.7-2.1,3.3-3.9,3.9
					c-2.9,1.1-5.5,0.1-8.7,0.1c-27.8-0.2-55.4-4.2-82.9-8.2c-7.3-1.1-14.5-2.1-21.5-4.4c-2-0.6-3.9-1.4-5.7-2.3
					c-0.7-0.3-1.4-0.7-1.8-1.3c-0.4-0.5-0.6-1.2-0.8-1.8c-0.8-2.4-2.4-4.6-4.5-6c-0.6-0.4-1.2-0.8-1.6-1.3c-2.3-2.5-0.6-7.7-3.8-8.9
					l6.9-4.6l31.7-21.2c2-1.2,4.8-0.7,6.3,1c0.5,0.6,0.8,1.2,1.3,1.8c0.7,0.8,1.6,1.3,2.5,1.8c3.4,2.1,6.2,5.1,9,8
					c0.3,0.3,0.7,0.7,1.1,1c0.5,0.4,1.1,0.6,1.7,0.9c2.6,1,5.1,2,7.7,3c11.8,4.5,23.7,8.9,35.7,13c1.3,0.4,2.5,0.9,3.8,1.3
					c-3.3-9.7-3.2-19.9-5.1-30c-0.3-1.4-0.6-2.8-0.9-4.2c-0.2-0.7-0.4-1.4-0.5-2.2c-0.1-0.4-0.2-0.8-0.3-1.1
					c-0.1-0.2-0.1-0.5-0.2-0.7c-0.2-0.5-0.4-1-0.6-1.5c-0.4-0.7-0.9-1.4-1.2-2.2c-0.3-0.8-0.3-1.8,0.3-2.4c-0.1,0.1,0.3,0.5,0.3,0.5
					c0.1,0.2,0.3,0.3,0.5,0.4c0.3,0.1,0.5,0.1,0.8,0.1c1.4,0.1,2.8-0.2,4.2-0.6c2.4-0.6,4.8-1.3,6.9-2.5c2.2-1.2,4.1-2.9,5.1-5.2
					c1.2,2.4,2.2,4.9,3.1,7.4c5.2,14.2,10.3,28.3,15.3,42.6c0.8,2.3,1.6,4.6,2,6.9C235.4,217.7,234.6,222.4,233.9,226.9z"/>
				<path class="st5" d="M228.3,219.2c-3.9,0-7.6-1.6-10.9-3.6c-0.8-0.4-1.5-0.9-2.2-1.4c-1.4-0.9-2.8-1.8-4.2-2.7
					c-0.7-0.4-1.4-0.9-2.1-1.3c-0.4-0.2-0.7-0.4-1.1-0.6c-0.9-0.4-1.8-1.1-2.7-1.6c-3.3-9.7-3.2-19.9-5.1-30
					c-0.3-1.4-0.6-2.8-0.9-4.2c-0.2-0.7-0.4-1.4-0.5-2.2c-0.1-0.4-0.2-0.8-0.3-1.1c-0.1-0.2-0.1-0.5-0.2-0.7c-0.2-0.5-0.4-1-0.6-1.5
					c-0.3-0.5-0.6-1-0.9-1.5c0.8,0.6,1.6,1.1,2.3,1.8c0.8,0.9,1.4,1.9,1.9,3c3.5,6.9,5.5,14.6,6,22.3c0.1,1.6,0.1,3.3,0.5,4.9
					c0.9,3.5,3.4,6.3,6.2,8.5c0.7,0.5,1.4,1,1.8,1.8c0.3,0.4,0.4,1,0.6,1.4c0.7,1.3,2.3,1.8,3.7,2.4c2.5,1,4.9,2.2,7.1,3.6
					C227.6,217,228.8,218.1,228.3,219.2z"/>
				<path class="st10" d="M234.8,214c-1.1-2.4-2.4-4.7-3.9-6.9c-0.9-1.2-1.8-2.4-2.4-3.8c-1-2-1.3-4.2-1.9-6.4
					c-1.2-4.4-3.3-8.4-4.3-12.8c-0.5-2.5-0.7-5-1-7.5c-0.2-1.4-0.4-2.8-0.7-4.2c4.1,11.3,8.2,22.6,12.2,33.9c0.8,2.3,1.6,4.6,2,6.9
					C234.7,213.5,234.7,213.8,234.8,214z"/>
				<path class="st11" d="M233.7,227.9c-0.3,1.5-0.6,3-1.2,4.4c-0.8,1.7-2.1,3.3-3.9,3.9c-2.9,1.1-5.5,0.1-8.7,0.1
					c-27.8-0.2-55.4-4.2-82.9-8.2c-7.3-1.1-14.5-2.1-21.5-4.4c-2-0.6-3.9-1.4-5.7-2.3c-0.7-0.3-1.4-0.7-1.8-1.3
					c-0.4-0.5-0.6-1.2-0.8-1.8c-0.8-2.4-2.4-4.6-4.5-6c-0.6-0.4-1.2-0.8-1.6-1.3c-2.3-2.5-0.6-7.7-3.8-8.9l6.9-4.6
					c0.9,0.7,1.6,1.6,2.1,2.7c1.2,2.7,1.6,6,3.9,7.7c1.5,1.1,3.5,1.4,5.4,1.4c5.3,0.2,10.6-0.8,15.5-2.7c0.8,1.7-0.9,3.4-2.6,4.1
					c-1.7,0.7-3.7,1.3-4.4,2.9c2.5,2,6.4,0.1,9.5,0.9c2.7,0.7,4.7,3.3,7.5,3.5c1.3,0.1,2.5-0.4,3.8-0.5c1.3-0.1,2.8,0.5,3,1.8
					c0.1,0.6-0.1,1.3,0.2,1.8c0.2,0.4,0.7,0.7,1.2,0.8c9.8,3.9,21.1-1.7,31.3,1.1c5.1,1.4,9.6,4.7,14.8,5.6c3.4,0.5,6.9,0,10.3,0.1
					c8.7,0.3,18,4.7,25.6,0.6C231.9,229,232.8,228.4,233.7,227.9z"/>
				<path class="st10" d="M203.6,219.1c-0.5,0.2-1.1-0.2-1.5-0.6c-1.3-1.4-2.1-3.3-3.1-5c-1-1.7-2.4-3.4-4.3-3.8
					c-1.2-0.3-2.6-0.1-3.8-0.5c-0.8-0.3-1.5-0.9-2.2-1.5c-4.4-3.8-9.4-7-14.7-9.4c-2.7-1.2-5.6-2.2-7.9-4c-0.2-0.2-0.4-0.3-0.6-0.5
					c0,0,0,0-0.1,0c11.8,4.5,23.7,8.9,35.7,13c1.4,3.4,2.3,7.1,2.8,10.7C204.1,218.1,204.1,218.8,203.6,219.1z"/>
			</g>
			<g>
				<g>
					<path class="st0" d="M138.5,127.2c1.1-0.9,2.2-1.7,3.5-2.3l-9.8,11C133.8,132.6,135.8,129.5,138.5,127.2z"/>
					<g>
						<path class="st0" d="M192.3,39.6c-0.1,0.3-0.3,0.6-0.6,0.7c-0.1,0.1-0.3,0.1-0.5,0.1c-0.1,0-0.1,0-0.2,0c-0.2,0-0.3,0-0.5,0
							c-0.3-0.1-0.5-0.3-0.7-0.6c0,0,0-0.1-0.1-0.1c-1.5-2.1-2.6-4.4-4.3-6.4c-1.9-2.2-4.6-3.7-7.4-4.2c-0.3-0.1-0.7-0.1-1,0.1
							c-0.3,0.2-0.3,0.8-0.2,1.1c0.2,0.4,0,0.2,0.3,0.4c1.7,1,3.1,2.5,4.1,4.2c0.2,0.3,0.3,0.6,0.4,0.8c0.6,1.2,0.9,2.7,0.4,3.8
							c-0.1,0.2-0.2,0.4-0.4,0.5c-0.6,0.4-1.3-0.3-1.8-0.8c-1.2-1.4-2.8-2.2-4.5-2.8c-2.5-0.9-5.2-1.5-7.4-2.8
							c-0.2-0.1-0.4-0.2-0.6-0.4c-0.1-0.1-0.2-0.1-0.3-0.2c0,0-0.1-0.1-0.1-0.1c-0.1-0.1-0.1-0.1-0.2-0.2c-1.8-1.4-3-3.5-4.4-5.4
							c-0.8-1.2-1.7-2.3-2.7-3.4c-0.4-0.4-0.8-0.9-1.2-1.3c-0.1-0.1-0.2-0.2-0.3-0.3c-0.1-0.1-0.2-0.2-0.3-0.3
							c-0.8-0.8-1.7-1.6-2.6-2.3l1-1.6l4.2-6.5c1-0.1,2,0.1,3,0.4c2.3,0.8,4.5,2.6,6.7,3.9c1.5,0.9,3,1.5,4.5,2.3
							c2.4,1.3,4.5,3.1,6.6,4.9c1.2,1.1,2.3,2.2,3.4,3.3c2.2,2.3,4.1,4.8,5.7,7.6c0.6,1.2,1.2,2.4,1.7,3.6
							C192.3,38.4,192.5,39,192.3,39.6z"/>
						<path class="st0" d="M168.7,110.2c-0.6-1.5-1.7-2.8-2.9-3.9c-0.9-0.8-1.8-1.6-2.8-2.2c0,0,0,0,0,0c-0.3-0.2-0.5-0.3-0.8-0.5
							c-3.3-2.1-7.1-3.5-11.1-4.4c-3.2-0.7-6.5-1.2-9.7-1.4c-1.8-0.1-3.6-0.3-5.2-1.1c-2.1-1.1-3.3-3.3-5.2-4.6
							c-0.5-0.4-1-0.7-1.6-0.9c0,0-0.1,0-0.1-0.1c0,0,0,0,0,0c-1.5-0.7-3.1-1.1-4.8-1.4l-2.5-1.1l-9.1-4.1l-5.5-2.4l-0.4-0.2h0
							l-1.9-0.9c-0.2-0.3-0.4-0.5-0.5-0.9c-0.3-0.7-0.4-1.4-0.4-2.2c-0.3-4.7,0.6-9.4,0.2-14.1c-0.3-3-1-5.9-1-8.9
							c0-3.6,1.3-7.1,2-10.6c1.4-6.3,1.4-13.2,4.7-18.7c0,0,13.1-7.5,47.7-3.2h0c0.8,0.1,1.6,0.2,2.4,0.3l1.9-2.7l0.6-0.8l3.6-5.2
							c-0.9-0.7-1.9-1.2-2.9-1.6c-0.4-0.2-0.8-0.3-1.3-0.4c-1-0.3-2.1-0.5-3.1-0.5c-0.1,0-0.3,0-0.4,0c-0.3,0-0.6,0-0.9,0
							c-0.9-0.2-1.8-0.3-2.6-0.5c-1.3-0.2-2.6-0.5-3.9-0.7c-2.2-0.4-4.5-0.8-6.7-1.2c-2.4-0.4-4.8-0.9-7.2-1.3
							c-0.7-0.1-1.3-0.3-1.9-0.4c-1.8-0.2-3.5-0.4-5.3-0.6c-0.9-0.1-1.8-0.2-2.7-0.3c-0.4,0-0.9-0.1-1.3-0.1c-0.2,0-0.4,0-0.7-0.1
							c-0.6-0.1-1.1-0.1-1.7-0.2c-2-0.2-4-0.4-6-0.6c-3.5-0.3-7.1-0.6-10.6-0.7c-1.2-0.1-2.3-0.1-3.5,0.1c-1.9,0.3-3.6,1.2-4.9,2.6
							c-0.5,0.5-0.9,1.1-1.3,1.7c-0.1,0.2-0.2,0.4-0.3,0.6C97.1,9.7,97,9.9,96.9,10c-0.2,0.3-0.3,0.6-0.5,0.8
							c-0.1,0.2-0.3,0.5-0.4,0.7c-0.2,0.3-0.4,0.6-0.6,1c-1.3,2.3-2.5,4.7-3.5,7.2c-1.8,4.6-3.2,9.3-4.5,14.1
							C86.1,38.8,85,43.9,84,49c-0.5,2.9-1,5.9-1.4,8.8c-0.2,1.5-0.4,3-0.5,4.4c-0.2,1.5-0.4,3.1-0.4,4.6c0,1-0.2,2-0.4,3
							c-0.1,0.5-0.2,1-0.2,1.5c-0.1,0.6-0.2,1.2-0.3,1.9c-0.4,2.3-0.7,4.5-1.1,6.8c-0.1,0.8-0.2,1.5-0.4,2.3
							c-0.2,0.9-0.3,1.7-0.6,2.6c-0.7,2.4-1.8,4.7-2.8,7c-0.5,1-0.9,2.1-1.3,3.1c-1.9,4.6-3.5,9.3-4.6,14.1c-0.7,3-1.2,6.1-1.6,9.1
							c-0.1,0.9-0.2,1.7-0.2,2.6c0,0.6-0.1,1.2-0.1,1.8c0,0.5,0,0.9,0.1,1.3c0.2,0.8-0.1,1.6,0,2.4c0,0.3,0,0.5,0,0.8
							c-0.1,0.7-0.1,1.3-0.2,2c-0.1,1.3-0.2,2.6-0.2,3.9c-0.1,2.6-0.2,5.2-0.2,7.9c0,1.3,0,2.7,0.1,4c0.1,3.9,0.4,7.8,0.7,11.6
							c0.2,2.1,0.5,4.3,0.8,6.4c0.2,1.1,0.3,2.2,0.5,3.3c0.3,1.6,0.6,3.3,0.9,4.9c0.5,2.5,1,3.2,1.5,5.8c0.2,1.3,0.4,2.6,0.5,3.9
							c0.1,0.6,0,1.3,0.2,1.8c0.1,0.6,0.3,1.2,0.4,1.8c0.1,1.1,0.3,2.1,0.4,3.2c0.4,4.1,3.4,8.1,6.5,10.8c0.9,0.8,1.9,1.4,3,2
							c0.8,0.4,1.6,0.8,2.4,1.1c6.8,2.8,14.6,2.8,21.7,1c0.7-0.2,1.4-0.4,2.1-0.6c6.3-2,12.2-5.4,17.5-9.4c3.6-2.8,7.1-6.1,9.7-9.8
							c1.2-1.7,2.2-3.5,3-5.4c-1.9-1.1-3.6-2.5-5-4.1c-1.2-1.2-2.1-2.7-3.2-4c-0.2-0.2-0.3-0.4-0.5-0.6c-1.2-1.4-2.6-2.6-3.6-4
							c-0.7-0.9-1.2-1.9-1.5-3c0-0.2-0.1-0.4-0.1-0.7c0-0.3,0-0.7,0.1-0.9c0.1-0.2,0.2-0.3,0.3-0.4c0.3-0.4,0.5-0.8,0.8-1.2
							c0.5-0.8,1.1-1.6,1.7-2.4c3.2-4.3,6.1-8.8,7.3-14c0.8-3.6,0.8-7.3,2.2-10.7c0.7-1.8,1.8-3.5,3.1-4.8c0.7-0.7,1.4-1.3,2.2-1.9
							c0.2-0.1,0.3-0.2,0.5-0.4c1.2-0.9,2.4-1.7,3.8-2.4c3-1.4,6.3-2,9.6-2.7c0,0,0,0,0,0c2.3-0.4,4.7-0.8,6.9-1.5
							c1.7-0.5,3.5-1.2,4.4-2.7C169.2,113.5,169.2,111.7,168.7,110.2z"/>
						<path class="st2" d="M189.8,39.8C189.8,39.8,189.8,39.8,189.8,39.8c-1.6-2.1-2.7-4.5-4.3-6.4c-1.9-2.2-4.6-3.7-7.4-4.2
							c-0.3-0.1-0.7-0.1-1,0.1c-0.3,0.2-0.3,0.8-0.2,1.1c0.2,0.4,0,0.2,0.3,0.4c1.7,1,3.1,2.5,4.1,4.2c-1.6-1.1-3.5-1.9-5.5-1.9
							c-0.2,0-0.5,0-0.7,0.2c-0.4,0.3-0.5,0.9-0.4,1.4c0.1,0.5,0.4,0.9,0.6,1.4c0,0.1,0.1,0.3,0.1,0.4c-2.5-0.9-5.2-1.5-7.4-2.8
							c-0.2-0.1-0.4-0.2-0.6-0.4c-0.1-0.1-0.2-0.1-0.3-0.2c0,0-0.1-0.1-0.1-0.1c-0.1-0.1-0.1-0.1-0.2-0.2c-1.8-1.4-3-3.5-4.4-5.4
							c-0.8-1.2-1.7-2.3-2.7-3.4c-0.4-0.4-0.8-0.9-1.2-1.3c-0.1-0.1-0.2-0.2-0.3-0.3c-0.1-0.1-0.2-0.2-0.3-0.3
							c-34.6-4.3-47.7,3.2-47.7,3.2c-3.4,5.5-3.3,12.4-4.7,18.7c-0.8,3.5-2,7-2,10.6c0,3,0.7,5.9,1,8.9c0.4,4.7-0.5,9.4-0.2,14.1
							c0,0.7,0.1,1.5,0.4,2.2c0.1,0.3,0.3,0.6,0.5,0.9c-0.1,0.3-0.3,0.6-0.4,0.9c0,0.1,0,0.1-0.1,0.2c-0.1,0.2-0.3,0.3-0.4,0.4
							c-0.3,0.3-0.6,0.6-1,0.9c-0.6,0.6-1.3,1.3-1.9,1.9c-0.8,0.8-1.6,1.6-2.4,2.4c-1.1,1.1-2.2,2.2-3.1,3.5c-0.3,0.4-0.6,0.9-1,1.2
							c-0.1,0.1-0.2,0.2-0.3,0.2c-0.2,0-0.3-0.2-0.3-0.4c0-0.2,0-0.4,0.1-0.5c0.6-1.5,1.3-2.9,2.2-4.1c0.8-1.2,1.8-2.2,2.5-3.4
							c0.7-1.2,1.3-2.4,1.7-3.7c0.4-1.3,0.8-2.7,1-4.1c0.2-1.4,0.4-2.8,0.4-4.3c0.1-1.4,0.1-2.9,0.1-4.3c0-0.6,0-1.3,0-1.9
							c0-2.8-0.1-5.7-0.8-8.4c-0.4-1.6-1.1-3.2-1.2-4.9c-0.2-3.5,2.1-6.7,3.6-9.9c2.6-5.5,2.8-11.8,3.7-17.8
							c0.2-1.4,0.5-2.8,1.4-3.9c1.4-1.6,3.8-1.9,6-2c10.1-0.3,20.3,1,30.4,0.1c3.6-0.3,7.4-0.9,11-0.6c0.4,0,0.9,0,1.4,0.2
							c0.1,0,0.2,0.1,0.3,0.1c0.3,0,0.5-0.1,0.8-0.1c0.5,0,1.1-0.1,1.6-0.1c0.8,0,1.7,0.2,2.4,0.6c0.2,0.1,0.3,0.2,0.5,0.3
							c0,0,0.1,0.1,0.1,0.1c0.5,0.4,0.9,0.9,1.3,1.4c1.8,2,4.6,2.8,7.2,3.4c1,0.2,2.1,0.5,2.7,1.4c0.2,0.3,0.3,0.5,0.4,0.8
							c0.7,1.2,2.3,1.4,3.6,1.6c3.2,0.6,6.5,2.2,8.3,4.9c0.6,1,1.1,2.1,1.5,3.1c0.5,1.2,1,2.3,1.3,3.5
							C189.8,39.7,189.8,39.7,189.8,39.8z"/>
						<path class="st4" d="M151.3,10.2c-3.5,0.6-7.1,1-10.7,1c-10.8,0-21.6-3.6-32.3-1.9c-1.9,0.3-3.9,0.8-5.5,2
							c-2.1,1.4-3.7,3.8-6.2,4c-0.3,0-0.7,0-0.9-0.3c-0.3-0.3-0.2-0.7-0.2-1.1c0.1-0.8,0.3-1.6,0.5-2.3c0.1-0.2,0.3-0.5,0.4-0.7
							c0.2-0.3,0.3-0.6,0.5-0.8c0.1-0.1,0.2-0.3,0.3-0.4c0.1-0.2,0.2-0.4,0.3-0.6c0.4-0.6,0.8-1.2,1.3-1.7c1.3-1.3,3-2.3,4.9-2.6
							c1.1-0.2,2.3-0.1,3.5-0.1c3.5,0.2,7.1,0.4,10.6,0.7c2,0.2,4,0.4,6,0.6c0.6,0.1,1.2,0.1,1.7,0.2c0.2,0,0.4,0,0.7,0.1
							c0.4,0,0.9,0.1,1.3,0.1c0.9,0.1,1.8,0.2,2.7,0.3c1.8,0.2,3.5,0.4,5.3,0.6c0.7,0.1,1.3,0.3,1.9,0.4c2.4,0.4,4.8,0.9,7.2,1.3
							C146.8,9.4,149.1,9.8,151.3,10.2z"/>
						<path class="st3" d="M136.5,182.7c-2.6,3.8-6.1,7-9.7,9.8c-5.3,4-11.1,7.4-17.5,9.4c0-1.6,0.5-3.3,1-4.9c0.8-2.6,2-5.1,2-7.9
							c0.1-3-1.1-5.9-1-8.8c0-0.3,0-0.5,0.1-0.8c0.3-2.2,1.2-4.2,2.4-6c1.2-1.9,2.6-1.8,3.9-3.7c1.3-1.8,2.4-3.7,3.1-5.8
							c0.2-0.7,0.4-1.6,0.9-2.3c0.5-0.7,1.5-0.9,2.3-1c0.5-0.1,1-0.1,1.5-0.1c0,0.2,0.1,0.5,0.1,0.7c0.2,1.1,0.8,2.1,1.5,3
							c1.1,1.4,2.5,2.6,3.6,4c0.2,0.2,0.3,0.4,0.5,0.6c-0.3,2-1,2-2,3.8c-0.7,1.3-1.6,2.5-2.2,3.8c-0.6,1.3-0.9,2.9-0.3,4.3
							c0.7,1.8,2.7,2.8,4.7,2.8C133.1,183.8,134.8,183.3,136.5,182.7z"/>
						<path class="st4" d="M93,153.3c-0.2,0.3-0.4,0.5-0.7,0.7c-4.2,3.2-8.4,6.3-12.8,9.1c-1.3,0.9-2.7,1.7-4.2,2
							c-2.2,0.4-4.5-0.6-6-2.1c-0.3-2.1-0.6-4.3-0.8-6.4c-0.4-3.9-0.6-7.8-0.7-11.6c3.1-1.5,7-0.3,10.3,0.8c4.2,1.5,8.4,3,12.7,4.5
							c0.7,0.2,1.4,0.5,1.9,1C93.1,151.8,93.4,152.7,93,153.3z"/>
						<path class="st4" d="M102.4,170.2c0.1,2-0.5,2.1-0.5,4.2c0,1.1,0.4,2.6,1.6,2.6c0.7,0,1.2-0.5,1.7-1c3.1-3.1,6.2-4.4,9.3-7.5
							c0.6-0.6,1.3-1.3,1.7-2.1c0.7-1.6,0.3-3.5-0.6-5c-1-1.4-2.5-2.4-4-3.3c-1.8-0.9-3.7-1.6-5.6-2.1c-1-0.2-2-0.4-3-0.5
							c-0.8-0.1-1.7-0.2-2.4,0c-1.6,0.4-1.4,2-1.2,3.3c0.4,1.8,1.1,3.6,1.7,5.3C101.6,166,102.4,168,102.4,170.2z"/>
						<path class="st4" d="M96.8,71.2c-3,6.5-5.4,13.3-7.1,20.2c-0.9,3.5-1.6,7.1-3.1,10.5c-3.5,8.2-10.8,14.1-18.3,18.9
							c0.1-0.9,0.1-1.8,0.2-2.6c0.3-3.1,0.8-6.1,1.6-9.1c1.1-4.8,2.7-9.5,4.6-14.1c0.4-1,0.9-2.1,1.3-3.1c1-2.3,2.1-4.6,2.8-7
							c0.2-0.9,0.4-1.7,0.6-2.6c0.1-0.8,0.3-1.5,0.4-2.3c0.4-2.3,0.7-4.5,1.1-6.8c0.1-0.6,0.2-1.2,0.3-1.9c0.5,0,1.1-0.1,1.6,0
							c1.8,0.1,3.7,0.4,5.4-0.3c2-0.7,3.4-2.6,4.9-4.2c1.5-1.6,3.6-3,5.7-2.4C98.9,66.7,97.8,69,96.8,71.2z"/>
						<path class="st2" d="M83,200.5c-1.1-0.6-2.1-1.2-3-2c-3.2-2.7-6.1-6.7-6.5-10.8c-0.1-1.1-0.2-2.1-0.4-3.2
							c-0.1-0.7-0.3-1.2-0.4-1.8c-0.1-0.6-0.1-1.3-0.2-1.8c-0.1-1.3-0.3-2.6-0.5-3.9c-0.4-2.6-1-3.2-1.5-5.8
							c-0.3-1.6-0.6-3.3-0.9-4.9c0.1,0.2,0.2,0.3,0.3,0.5c0.2,0.3,0.3,0.6,0.5,0.8c1.9,3.1,4.1,4,5.9,7.1c1.6,2.8,2.8,5.9,3.6,9.1
							C81.3,189.3,81.3,195.1,83,200.5z"/>
					</g>
					<g>
						<g>
							<g>
								<path class="st12" d="M171,66.8c-0.2,0.2-0.4,0.4-0.5,0.6c-0.1,0.4-0.1,0.8-0.1,1.2c-0.1,0.7-0.7,1.2-1.1,1.8
									c-0.1,0.2-0.3,0.5-0.3,0.8c0,0.1,0,0.1-0.1,0.2c0,0.1,0,0.2-0.1,0.3c0,0.1,0,0.1,0,0.2c-0.1,0.2-0.1,0.5-0.2,0.7
									c0,0.1,0,0.1-0.1,0.2c0,0.1,0,0.2-0.1,0.2c-0.4,1.3-1.4,2.4-2.4,3.5c-0.3,0.3-0.5,0.6-0.9,0.7c-0.6,0.2-1.2,0-1.9,0.1
									c-0.9,0.1-1.6,0.6-2.4,1c-0.1,0.1-0.3,0.1-0.4,0.2c-0.2,0.1-0.3,0.1-0.5,0.2c-1.3,0.4-2.8,0.2-3.9-0.7
									c-0.6-0.5-1-1.2-1.2-1.9c-0.3-1.1-0.1-2.2,0.2-3.3c0,0,0,0,0-0.1c0.2-0.8,0.5-1.5,0.9-2.2c0.2-0.4,0.5-0.8,0.7-1.1
									c0.2-0.3,0.3-0.5,0.5-0.8c0.3-0.6,0.6-1.2,0.9-1.8c0.3-0.7,0.6-1.5,0.9-2.2c0.7-1.6,1.6-3.1,2.6-4.6
									c0.4-0.6,0.9-1.2,1.5-1.5c0.4-0.2,0.9-0.3,1.3-0.2c0.4,0.1,0.7,0.3,1,0.6c0.1,0.1,0.2,0.2,0.3,0.3c0.3,0.3,0.6,0.6,1,0.8
									c0.1,0,0.2,0.1,0.3,0.1c0.4,0.1,0.7,0.1,1.1,0.2c0.4,0.1,0.7,0.2,1,0.5c0.4,0.3,0.8,0.7,1.1,1.2c0.1,0.2,0.2,0.3,0.3,0.5
									c0.3,0.5,0.6,1,0.7,1.5C171.5,65,171.6,66,171,66.8z"/>
								<path class="st13" d="M171,66.8c-0.2,0.2-0.4,0.4-0.5,0.6c-0.1,0.4-0.1,0.8-0.1,1.2c-0.1,0.7-0.7,1.2-1.1,1.8
									c-0.5,0.8-0.5,1.7-0.8,2.6c-0.4,1.3-1.4,2.4-2.4,3.5c-0.3,0.3-0.5,0.6-0.9,0.7c-0.6,0.2-1.2,0-1.9,0.1
									c-0.9,0.1-1.6,0.6-2.4,1c-2.2-1.7-3.4-4.6-4-7.3c-0.1-0.5-0.2-1-0.2-1.5c0.2-0.3,0.3-0.5,0.5-0.8c0.3-0.6,0.6-1.2,0.9-1.8
									c0.1,0.1,0.2,0.1,0.4,0.2c0.4,0.2,0.9,0.4,1.4,0.5c1.1,0.3,2.3,0.3,3.5,0.3c2.1-0.1,4.4-0.3,6.1-1.6c0.4-0.3,0.7-0.6,1-1
									c0.2-0.4,0.4-0.8,0.6-1.2c0-0.1,0.1-0.1,0.1-0.2C171.5,65,171.6,66,171,66.8z"/>
								<path class="st14" d="M170.1,62C170.1,62,170.1,62,170.1,62c-1,1.1-2.4,1.7-3.8,2.2c-0.7,0.3-1.5,0.6-2.3,0.6
									c0.3,0,0.7-0.3,0.9-0.4c0.3-0.1,0.6-0.3,1-0.5c0.6-0.4,1.2-0.8,1.7-1.2c0.5-0.4,0.9-0.9,1.2-1.4c0.1-0.1,0.1-0.3,0.2-0.4
									C169.5,61.1,169.8,61.5,170.1,62z"/>
							</g>
							<path class="st15" d="M165.7,59.3c0,0.1,0,0.2,0,0.2c-0.1,1.6-0.2,3.3-0.6,4.8c0,0.1-0.1,0.2-0.1,0.3
								c-0.3,1.2-0.8,2.2-1.6,3.2l0,0c-0.9,1-2.2,1.9-2.5,3.2c-0.1,0.6-0.1,1.2-0.1,1.7c-0.1,1-0.5,2-1.2,2.7
								c-0.2,0.2-0.4,0.4-0.6,0.6c-0.3,0.3-0.5,0.7-0.4,1.1c0.1,0.3,0.3,0.5,0.5,0.7c0.3,0.2,0.6,0.4,0.9,0.6
								c-1.3,0.4-2.8,0.2-3.9-0.7c-0.6-0.5-1-1.2-1.2-1.9c-0.3-1.1-0.1-2.2,0.2-3.3c0.7-0.6,1.3-1.3,1.8-2.1
								c0.8-1.1,1.5-2.2,2.2-3.4c0.5-0.8,0.9-1.7,1.4-2.5c0.7-1.3,1.4-2.6,1.9-4c0.3-0.7,0.5-1.5,0.7-2.2c0.4-0.2,0.9-0.3,1.3-0.2
								c0.4,0.1,0.7,0.3,1,0.6C165.5,59.1,165.6,59.2,165.7,59.3z"/>
						</g>
						<g>
							<path class="st12" d="M133.2,33.8c1-0.6,2.2-0.9,3.4-1.3c1.1-0.4,2.2-1.2,2.6-2.3c0.1,0.9-0.6,1.8-1.4,2.3
								c-0.8,0.5-1.7,0.7-2.6,1.1c-0.9,0.4-1.7,1-1.9,2c-0.1,0.4-0.2,0.8-0.6,1c-0.3,0.2-0.7,0.3-0.9,0c-0.6-0.5,0-1.5,0.3-2
								C132.4,34.4,132.8,34.1,133.2,33.8z"/>
							<g>
								<path class="st12" d="M133.7,83.8c0.6,1.9,2.2,3.6,4.2,4c1.6,0.2,3.2-0.4,4.4-1.4c1.2-1,2-2.4,2.6-3.9
									c0.6-1.4,1.1-2.8,1.4-4.3c0.2-1,0.3-2,0.2-3c-0.1-1-0.4-2-1.1-2.7c-0.4-0.5-0.9-0.8-1.5-1.1c-1.6-0.8-3.6-0.7-5.3,0
									c-1,0.4-1.8,1-2.6,1.7c-0.5,0.5-1,0.9-1.4,1.5c-0.4,0.6-0.6,1.4-0.7,2.1c-0.3,1.1-0.4,2.3-0.5,3.4c-0.1,1.1,0,2.3,0.3,3.3
									C133.6,83.5,133.7,83.6,133.7,83.8z"/>
								<path class="st13" d="M149.4,78.2c-0.9,3.2-4,5.7-7.4,5.8c-1.2,0-2.5-0.2-3.5-0.9c-1.4-0.9-2.3-2.4-2.8-4
									c-0.7-2.1-0.7-4.5-0.1-6.6c0.2-0.7,0.5-1.4,0.9-1.9c2.8-0.9,5.8-0.9,8.5,0.3c0.5,0.2,1,0.5,1.4,0.8c0.7,0.6,1.2,1.4,1.7,2.1
									C149.1,75.3,149.9,76.6,149.4,78.2z"/>
								<path class="st16" d="M139,73.9c-0.5,1-0.8,2.1-1,3.3c-0.3,1.4-0.4,2.9,0.2,4.1c0.8,1.7,2.8,2.6,4.6,2.5
									c1.9-0.1,3.6-1.1,4.9-2.4c1.2-1.1,2.2-2.5,2.4-4.2c0.2-1.6-0.5-3.4-1.9-4.2c-0.8-0.4-1.7-0.5-2.5-0.5
									c-1.6,0-3.2,0.1-4.7,0.7c-1.5,0.6-2.7,1.9-3,3.4L139,73.9z"/>
							</g>
							<path class="st12" d="M165,60.1c-0.2,1.7-0.5,3.2-1.4,4.6c-1,1.5-2.7,2.6-3.6,4.1c-0.2,0.3-0.3,0.6-0.4,0.9
								c-0.2,0.5-0.2,1.1-0.3,1.7c0,0,0,0,0,0c-0.1,0.4-0.1,0.9-0.3,1.3c0,0.1-0.1,0.2-0.1,0.3c-0.4,0.8-1,1.5-1.7,2
								c-1,0.8-2.3,1.5-3.2,2.3c-0.1,0.1-0.1,0.1-0.2,0.2c-0.5,0.4-0.9,0.9-1.3,1.4c-0.4,0.5-0.9,1-1.4,1.5c-1.9,1.6-4.5,2.3-7,1.7
								c-0.7-0.2-1.4-0.5-1.9-1c-0.7-0.8-0.8-2.1-1.3-3.1c-0.4-0.9-1.1-1.5-1.9-2c-0.2-0.1-0.3-0.2-0.5-0.3
								c-0.5-0.3-1.1-0.6-1.7-0.9c0,0-0.1,0-0.1-0.1c-1.5-0.7-2.9-1.6-4.3-2.5c-0.2-0.1-0.4-0.3-0.6-0.4c-0.9-0.6-1.8-1.3-2.3-2.3
								c-0.6-1.1-0.6-2.3-0.6-3.5c0-0.9,0.1-1.8,0.3-2.6c0,0,0,0,0-0.1c0.1-0.2,0.1-0.3,0.1-0.6c0-0.4,0.2-0.8,0.3-1.1
								c0.3-0.8,0.6-1.5,0.8-2.3c0.4-1.5,0.5-3,0.5-4.5c0-3.1-0.2-6.2-0.3-9.3c0-1.1-0.1-2.1,0-3.2c0-0.9,0.1-1.9,0.4-2.7
								c0-0.1,0.1-0.2,0.1-0.3c0-0.2,0-0.3,0-0.5c0.1-0.7,0.3-1.3,0.6-1.9c0.2-0.4,0.5-0.8,0.8-1.2c1.7-1.9,4.4-2.8,6.9-3.1
								c0.4-0.1,0.9-0.1,1.3-0.1c0.6,0,1.1-0.1,1.7-0.1c1,0,2-0.1,3.1,0c0.1,0,0.1,0,0.2,0c0.2,0,0.4,0,0.5,0.1
								c2.1,0.3,4.1,1.1,5.8,2.3c0.6,0.4,1.1,0.9,1.7,1.3c0.3,0.2,0.6,0.5,0.9,0.7c0.1,0,0.1,0.1,0.2,0.1c0.1,0.1,0.2,0.1,0.2,0.2
								c0.2,0.1,0.3,0.1,0.5,0.2c0.3,0.1,0.6,0.4,0.9,0.6c0.3,0.2,0.5,0.5,0.8,0.7c0.2,0.1,0.4,0.2,0.6,0.4c0.4,0.2,0.9,0.5,1.3,0.7
								c0.4,0.2,0.8,0.4,1.1,0.8c0.2,0.2,0.4,0.5,0.5,0.8c0.1,0.4,0.2,0.8,0.3,1.1c0.1,0.2,0.1,0.4,0.2,0.7c0.2,0.6,0.4,1.1,0.6,1.7
								c0.2,0.4,0.3,0.8,0.5,1.1c0.2,0.3,0.3,0.7,0.4,1c0.2,0.4,0.3,0.7,0.4,1.1c0.3,1,0.5,2.1,0.4,3.1c0,0.5-0.1,1,0.2,1.4
								c0.1,0.2,0.3,0.3,0.4,0.5c0.3,0.4,0.2,0.9,0.1,1.4c0,0.1,0,0.1-0.1,0.2v0c-0.1,0.4-0.3,0.8-0.3,1.2c0,0.4,0.1,0.8,0.3,1.1
								c0.1,0.3,0.3,0.5,0.4,0.8C165,58.2,165.1,59.2,165,60.1z"/>
							<path class="st14" d="M155.1,36.7c-0.6,0.2-1.2,0.3-1.7,0.3c-2.3-0.1-4.4-1.8-6.6-1.3c-0.6,0.1-1.1,0.4-1.7,0.7
								c-0.3,0.1-0.6,0.2-0.9,0.3c-0.2,0-0.5,0.1-0.6-0.1c-0.2-0.3,0.1-0.7,0.2-0.9c0.4-0.4,0.9-0.5,1.4-0.6
								c0.7-0.1,1.4-0.1,2.1-0.1c1.6,0.2,3.1,0.8,4.6,1.2c0.9,0.2,1.9,0.3,2.8,0.2c0.1,0,0.1,0.1,0.2,0.1
								C155,36.6,155.1,36.7,155.1,36.7z"/>
							<path class="st13" d="M153.7,77.4c-0.5,0.4-0.9,0.9-1.3,1.4c-1.5-0.4-3-0.4-4.4-0.8c-1.9-0.6-3.5-2-4.7-3.7
								c-1.1-1.7-1.9-3.6-2.5-5.5L141,71c-0.4-1.3-0.6-2.7-0.6-4c1.6,4.1,5.2,7.4,9.4,8.8c0.9,0.3,1.8,0.5,2.6,0.9
								C152.9,76.8,153.4,77.1,153.7,77.4z"/>
							<path class="st13" d="M145.7,32.1c-0.9,0.2-1.8,0.5-2.6,1c-1,0.6-1.8,1.5-2.8,2.1c-1.1,0.7-2.4,1.2-3.7,1.2
								c-1.3,0.1-0.9-1.2-0.2-1.8c0.5-0.5,1.2-1,1.8-1.3c0.9-0.5,1.8-0.9,2.7-1.1c0.6,0,1.1-0.1,1.7-0.1
								C143.6,32.1,144.7,32,145.7,32.1z"/>
							<path class="st13" d="M160,68.7c-0.2,0.3-0.3,0.6-0.4,0.9c-0.2,0.5-0.2,1.1-0.3,1.7c0,0,0,0,0,0c-0.1,0.4-0.1,0.9-0.3,1.3
								c0,0.1-0.1,0.2-0.1,0.3c-0.4,0.8-1,1.5-1.7,2c-1.1-2.3-3.2-4.2-5.8-4.6c-1.9-0.3-3.8,0.2-5.7,0.2c-1.9,0.1-4-0.5-5-2.1
								c-0.6-0.9-0.6-2.1-0.6-3.2c0.1-1.8,0.6-3.5,1.2-5.2c0.6-1.6,1.2-3.1,2.1-4.5c0.8-1.4,1.8-2.7,3-3.9c0.7-0.6,1.4-1.2,2.2-1.7
								c-0.2,0.3-0.3,0.5-0.4,0.8c-0.1,0.2-0.1,0.3-0.2,0.5c-0.1,0.3-0.2,0.7-0.2,1.1c-0.1,0.4,0,0.8-0.1,1.1c0,0.1-0.1,0.2-0.1,0.3
								c0,0.3,0.2,0.7,0.2,1.1c0.2,0.7,0.5,1.4,0.8,2.1c0.6,1.3,1.5,2.6,2.4,3.7c0.2,0.2,0.4,0.5,0.7,0.7c0.3,0.2,0.6,0.5,0.9,0.7
								c1.5,1,3.1,1.7,4.5,2.9C158.3,65.9,159.3,67.3,160,68.7z"/>
							<path class="st14" d="M155,47.5c-2.5-0.8-5.3-1.7-6.5-3.6c0.3,0.9,0.9,1.8,1.8,2.6l-0.3-0.4c0.9,1.1,2.4,2,4,2.4
								c0.9,0.2,2,0.3,2.9,0.5c1.7,0.4,3.3,1.2,4.4,2.3C160.3,49.3,157.5,48.3,155,47.5z"/>
							<path class="st13" d="M147.9,48.1c-0.1,2.4,1.5,4.6,3.5,6c1.9,1.5,4.2,2.5,6,4c1.6,1.4,2.9,3.2,3.6,5.3
								c0.1-2.5-1.6-4.8-3.5-6.4c-1.9-1.6-4.2-2.8-5.9-4.7c-1.4-1.5-2.4-3.3-2.9-5.3c-0.6,0.1-0.9,0.8-0.9,1.4
								c0,0.6,0.2,1.1,0.5,1.7L147.9,48.1z"/>
							<path class="st16" d="M161.3,42.7c-0.1,0-0.2-0.1-0.3-0.1c-1.1-0.4-2.4-0.5-3.6-0.6c-1.3-0.1-2.5-0.2-3.8-0.3
								c-0.4,0-0.7-0.1-1.1-0.1c-0.6-0.1-1.3-0.2-1.9-0.4c-0.3-0.1-0.6-0.2-0.8-0.4c-0.2-0.1-0.5-0.3-0.6-0.5
								c0.6,0.3,1.2,0.5,1.9,0.5c0.7,0,1.4,0,2.1-0.1c1.5-0.2,3-0.7,4.5-0.6c1.1,0.1,2.1,0.4,3,1c0.1,0.4,0.2,0.8,0.3,1.1
								C161.2,42.3,161.3,42.5,161.3,42.7z"/>
							<path class="st13" d="M164.4,54.2c-0.1,0.4-0.3,0.8-0.3,1.2c0,0.4,0.1,0.8,0.3,1.1c-0.6-0.6-1.2-1.1-1.9-1.5
								c-2.1-1.3-4.5-1.7-6.8-2.5c-0.4-0.1-0.8-0.3-1.2-0.5c-0.7-0.3-1.4-0.7-2.1-1.2c-0.3-0.2-1-0.7-1-1.2c0.2,0.1,0.5,0.4,0.7,0.6
								c0.3,0.2,0.7,0.4,1,0.5c0.7,0.3,1.5,0.4,2.2,0.6c1.6,0.3,3.1,0.7,4.6,1c1.1,0.3,2.3,0.5,3.3,1
								C163.6,53.7,164,53.9,164.4,54.2L164.4,54.2z"/>
							<path class="st12" d="M159.3,71.3C159.3,71.3,159.3,71.3,159.3,71.3c-0.1,0.4-0.1,0.9-0.3,1.3c0,0.1-0.1,0.2-0.1,0.3
								c0-0.1-0.1-0.2-0.1-0.4c-0.4-1.1-1.1-2.1-1.8-2.9c-0.4-0.5-0.9-1-1.4-1.4c-1.9-1.6-4.4-2.8-5.2-5.2c2.2,2.6,5.9,3.6,7.9,6.3
								C158.7,70,159,70.6,159.3,71.3z"/>
						</g>
						<g>
							<path class="st0" d="M140.4,73.6c0,0.3,0,0.5,0.1,0.5l0,0c-0.1,0-0.8,0.5-1.9,1.4c0,0-0.1,0.1-0.1,0.1c0,0,0,0,0,0
								c0,0,0,0,0,0c-0.8,0.6-1.8,1.5-2.8,2.5c-0.6,0.6-1.2,1.3-1.8,2c-0.1,0.2-0.3,0.3-0.4,0.5c-2,2.7-3.8,6.1-3.8,10.1
								c0,1.4,0.1,2.9,0.6,4.5l-6.7-1.6l-3.9-1l-7.6-1.9l-3.7-0.9l-9.2-2.2c3.2-1.6,6-3.8,8.4-6.5c2.2-2.4,4-5.1,5.3-8
								c0.3-0.7,0.6-1.4,0.9-2.2c0.3-0.9,0.6-1.8,0.4-2.7l0,0c0,0,0,0,0,0c-0.2-0.7-0.6-1.2-1-1.8l1.1-0.2l15.3-3.2v0l3.2-0.7h0
								l8-1.7c0,0,0,1.1,0,2.6c0,0.4,0,0.8,0,1.3c0,0.9,0,1.9,0,2.9c0,0.8,0,1.6,0,2.3c0,0.1,0,0.1,0,0.2v0.6
								C140.3,72,140.3,73,140.4,73.6C140.4,73.6,140.4,73.6,140.4,73.6z"/>
							<path class="st3" d="M119.8,80.1c-0.4,1.6-1,3.1-1.3,4.7c0,0.2,0,0.3,0,0.5c0.2,0.4,0.8,0.3,1.1,0.1c1.6-0.8,2.5-2.7,3.5-4.2
								c2.4-3.4,6.5-5.5,8.8-9c0.2-0.2,0.3-0.5,0.3-0.8c-0.1-0.5-0.6-0.7-1.1-0.8c-1.6-0.3-3.2-0.5-4.8-0.7
								c-0.8-0.1-1.6-0.2-2.4-0.3c-0.7-0.1-1.4-0.4-2.2-0.4c-1,0-1.8,0.6-2,1.6c-0.3,1.3,0.3,2.7,0.4,4
								C120.3,76.6,120.2,78.4,119.8,80.1z"/>
							<g>
								<path class="st0" d="M150.1,46.4c0,0,0,0.1,0,0.1c0,0.2,0,0.4,0,0.6c0,0.2-0.1,0.4-0.1,0.6c0,0.1,0,0.1,0,0.2
									c-0.1,0.4-0.2,0.8-0.4,1.2c-0.3,0.8-0.7,1.5-1,2.3c-0.8,1.6-1.7,3.1-2.2,4.8c-0.3,0.8-0.5,1.6-0.6,2.5
									c-0.1,0.6-0.2,1.2-0.4,1.7c-0.5,1.4-1.7,2.2-2.4,3.5c-0.3,0.5-0.5,1.1-0.5,1.7c0,0,0,0,0,0c0,0.1,0,0.2,0,0.3
									c0,0.5,0,1,0.3,1.5c0.2,0.4,0.7,0.8,1.2,0.7l0.2-0.1c-0.5,0.4-1.1,0.7-1.6,1c-0.7,0.4-1.4,0.8-2.1,1.1
									c-0.4,0.2-0.7,0.3-1.1,0.5c-0.5,0.2-1,0.4-1.5,0.5c0,0-0.1,0-0.1,0c0,0,0,0,0,0c-0.1,0-0.2,0-0.3,0.1c0,0,0,0,0,0
									c0,0-0.1,0-0.1,0c-0.4,0.1-0.8,0.2-1.3,0.3c-0.4,0.1-0.8,0.2-1.3,0.2c-0.4,0.1-0.9,0.1-1.3,0.1c-0.1,0-0.2,0-0.3,0
									c-0.1,0-0.2,0-0.3,0c-0.1,0-0.2,0-0.2,0c-0.1,0-0.3,0-0.4,0c-0.3,0-0.5,0-0.8,0c-0.5,0-1.1,0-1.6,0
									c-2.2-0.1-4.3-0.3-6.5-0.7c-2-0.4-3.9-0.9-5.8-1.6c-0.9-0.3-1.9-0.7-2.8-1.1c-0.2-0.1-0.4-0.2-0.7-0.3
									c-0.1-0.1-0.2-0.1-0.3-0.2c-0.6-0.3-1.1-0.6-1.6-1c-0.1-0.1-0.2-0.2-0.4-0.3c-0.1-0.1-0.2-0.1-0.3-0.2c0,0-0.1-0.1-0.1-0.1
									c-0.2-0.1-0.3-0.3-0.5-0.4c-0.1-0.1-0.3-0.3-0.4-0.4c-0.4-0.3-0.6-0.8-0.8-1.2c-0.1-0.1-0.1-0.3-0.1-0.4
									c-0.3-1.4,0.2-2.8,0.8-4c0-0.1,0.1-0.1,0.1-0.2c0.6-1.4,1-2.8,1.6-4.2c0.3-0.7,0.6-1.4,0.9-2c0.2-0.3,0.4-0.6,0.6-0.9
									c0.1-0.1,0.1-0.2,0.1-0.3c0.1-0.4,0.3-0.7,0.5-1c0.1-0.2,0.2-0.4,0.3-0.6c0.1-0.2,0.2-0.4,0.3-0.5c1.1-1.6,2.3-3.1,3.8-4.3
									c1.3-1.1,2.7-1.9,3.9-3c0.9-0.8,1.7-1.7,2.5-2.6c4.3-4.3,10.4-6.5,16.4-6.1c1,0.1,1.9,0.3,2.8,0.7c0.2,0.1,0.4,0.2,0.7,0.3
									c0.1,0.1,0.2,0.1,0.3,0.2c0.1,0.1,0.2,0.1,0.3,0.2c0,0,0,0.1,0.1,0.1c0,0,0.1,0.1,0.1,0.1c0.2,0.1,0.3,0.3,0.4,0.4
									c0.3,0.3,0.5,0.6,0.8,0.9c0.2,0.2,0.4,0.5,0.5,0.7c0,0,0,0,0,0c0.1,0.1,0.1,0.2,0.2,0.2c0,0,0,0,0,0
									c0.4,0.6,0.6,1.2,0.7,1.9c0.2,0.9,0.3,1.9,0.5,2.8c0.1,0.3,0.2,0.6,0.3,0.8c0.2,0.6,0.5,1.1,0.7,1.7
									C149.9,45.6,150,46,150.1,46.4z"/>
								<path class="st0" d="M149.6,71.4c-0.2,0.7-0.7,1.3-1.2,1.8c-1.9,1.8-4.5,2.9-7.1,2.9c-1,0-1.9-0.2-2.8-0.5c0,0-0.1,0-0.1,0
									c-0.5-0.2-1.1-0.5-1.5-0.9c-0.1-0.1-0.2-0.3-0.3-0.4c-0.2-0.4-0.3-0.9-0.2-1.3c0.2-0.7,0.8-1.2,1.2-1.8c0,0,0,0,0,0
									c0.5-0.8,0.6-1.7,0.8-2.6c0.3-1.3,0.8-2.5,1.6-3.5c0.1-0.1,0.2-0.3,0.3-0.4c0.3-0.3,0.7-0.7,1-0.9c0.3-0.2,0.5-0.3,0.8-0.5
									c0.1-0.1,0.3-0.1,0.4-0.2c0.1,0,0.3-0.2,0.4-0.1c0.2,0.1-0.1,0.3-0.2,0.4c-0.1,0.2-0.2,0.3-0.3,0.5
									c-0.2,0.4-0.3,0.8-0.3,1.2c0,0.2,0,0.4,0.1,0.6c0,0,0,0,0,0c0.1,0.6,0.4,1.1,0.9,1.5c0.5,0.5,1.2,0.7,1.9,0.9
									c0.9,0.3,1.9,0.6,2.8,0.9c0.4,0.1,0.9,0.3,1.2,0.6C149.7,69.9,149.9,70.7,149.6,71.4z"/>
							</g>
							<path class="st2" d="M150.1,46.4c0,0,0,0.1,0,0.1c0,0.2,0,0.4,0,0.6c0,0.2-0.1,0.4-0.1,0.6c0,0.1,0,0.1,0,0.2
								c-0.1,0.4-0.2,0.8-0.4,1.2c-0.3,0.8-0.7,1.5-1,2.3c-0.8,1.6-1.7,3.1-2.2,4.8c-0.3,0.8-0.5,1.6-0.6,2.5
								c-0.1,0.6-0.2,1.2-0.4,1.7c-0.5,1.4-1.7,2.2-2.4,3.5c-0.3,0.5-0.5,1.1-0.5,1.7c0,0,0,0,0,0c0.1,0.6,0.4,1.1,0.9,1.5
								c0.5,0.5,1.2,0.7,1.9,0.9c0.9,0.3,1.9,0.6,2.8,0.9c0.4,0.1,0.9,0.3,1.2,0.6c0.5,0.5,0.6,1.3,0.4,2c-0.2,0.7-0.7,1.3-1.2,1.8
								c-1.9,1.8-4.5,2.9-7.1,2.9c-1,0-1.9-0.2-2.8-0.5c0,0-0.1,0-0.1,0c-0.5-0.2-1.1-0.5-1.5-0.9c-0.1-0.1-0.2-0.3-0.3-0.4
								c-0.2-0.4-0.3-0.9-0.2-1.3c0.2-0.7,0.8-1.2,1.2-1.8c-0.1,0-0.2,0-0.3,0.1c0,0,0,0,0,0c0,0-0.1,0-0.1,0
								c-0.4,0.1-0.8,0.2-1.3,0.3c-0.4,0.1-0.8,0.2-1.3,0.2c-0.4,0.1-0.9,0.1-1.3,0.1c-0.1,0-0.2,0-0.3,0c-0.1,0-0.2,0-0.3,0
								c-0.1,0-0.2,0-0.2,0c-0.1,0-0.3,0-0.4,0c-0.3,0-0.5,0-0.8,0c-0.5,0-1.1,0-1.6,0c-2.2-0.1-4.3-0.3-6.5-0.7
								c-2-0.4-3.9-0.9-5.8-1.6c-0.9-0.3-1.9-0.7-2.8-1.1c-0.2-0.1-0.4-0.2-0.7-0.3l0,0c-0.1,0-0.2-0.1-0.3-0.1
								c-0.6-0.3-1.1-0.6-1.6-1c-0.1-0.1-0.2-0.2-0.4-0.3c-0.1-0.1-0.2-0.1-0.3-0.2c0,0-0.1-0.1-0.1-0.1c-0.2-0.1-0.3-0.3-0.5-0.4
								c-0.1-0.1-0.3-0.3-0.4-0.4c-0.4-0.3-0.6-0.8-0.8-1.2c0.4,0,0.8,0.1,1.1,0.2c0.2,0.1,0.4,0.1,0.6,0.2c0.1,0,0.6,0.2,0.6,0.3
								c0.7,0.4,1.4,0.7,2.1,1.1c1.7,1,3.5,1.9,5.3,2.7c2.6,1.1,5.4,1.7,8.1,1.2c1.4-0.3,3-1.1,3.2-2.6c0.1-0.8-0.3-1.7-0.2-2.5
								c0.1-1,0.8-1.9,1.7-2.4c0.1-0.1,0.2-0.1,0.3-0.2h0c0.8-0.4,1.7-0.6,2.6-0.9c2.2-0.6,4.3-1.5,6.2-2.6c2.1-1.2,4.1-2.7,5.1-4.9
								c0.9-1.9,0.9-4.1,1.1-6.2c0.2-1.6,0.6-3.2,1.5-4.4c0.2,0.6,0.5,1.1,0.7,1.7C149.9,45.6,150,46,150.1,46.4z"/>
						</g>
						<path class="st12" d="M129.6,42.7c-0.2-0.6-0.6-1.1-1-1.6c-0.6-0.7-1.3-1.3-2.1-1.6c-0.1,0-0.1-0.1-0.2-0.1
							c-0.1-0.1,0-0.2,0-0.3c0.2-0.5,0.9-0.9,1.4-0.6c0.2,0.1,0.3,0.1,0.5,0.3c0.8,0.6,1.4,1.5,1.5,2.5
							C129.8,41.7,129.8,42.2,129.6,42.7z"/>
						<path class="st12" d="M141.6,52.7c-0.4-2-1.1-4-2.4-5.6c-1.2-1.6-2.9-2.9-4.9-3.5c-0.3-0.1-0.7-0.1-0.9,0.2
							c-0.2,0.3-0.2,0.7,0,1c0.2,0.3,0.5,0.5,0.8,0.6C137.4,47.2,139.9,49.5,141.6,52.7z"/>
						<path class="st1" d="M120.1,48.4c-0.2,0.7-0.2,1.5-0.1,2.2c0.2,0.8,0.4,1.6,0.1,2.3c-0.3-0.8-0.6-1.7-0.6-2.6
							c0-0.6,0-1.2,0.2-1.7c0-0.1,0.1-0.2,0.1-0.4c0.1-0.2,0.2-0.5,0.4-0.7c0,0,0.1-0.1,0.1-0.1c0.1-0.1,0.2-0.2,0.3-0.3
							c0.2-0.2,0.5-0.3,0.7-0.4c0,0,0,0,0,0C120.7,47.1,120.3,47.7,120.1,48.4z"/>
						<path class="st1" d="M129.6,42.7c-0.2,0.5-0.4,1-0.8,1.4c-0.3,0.3-0.7,0.6-1.1,0.8c0.8-0.7,1.4-1.8,1.7-2.9
							C129.4,42.2,129.5,42.4,129.6,42.7z"/>
						<path class="st2" d="M141.3,76.1c-1,0-1.9-0.2-2.8-0.5c0,0-0.1,0-0.1,0c0,0,0,0,0,0c-0.8,0.6-1.8,1.5-2.8,2.5
							c-0.6,0.6-1.2,1.3-1.8,2c-0.1,0.2-0.3,0.3-0.4,0.5c-2,2.7-3.8,6.1-3.8,10.1c-0.1,0.1-0.2,0.1-0.4,0.2
							c-1.2,0.6-2.5,0.9-3.7,1.5c-0.7,0.3-1.4,0.7-2.1,1.2c-0.7,0.5-1.3,1.1-1.9,1.7c-1.5,1.7-2.8,4-5.1,4.2c0.1,0,0.3-0.9,0.4-1
							c0.7-2,1.6-3.9,2.6-5.8c0.4-0.8,0.9-1.6,1.3-2.3c1.6-2.6,3.4-5,5.4-7.3c2-2.2,4.3-4.3,6.7-6.1c1.2-0.9,2.5-1.8,3.7-2.6
							c0,0,0,0,0,0c1-0.6,2.1-1,3.3-0.8c0.2,0,0.3,0.1,0.5,0.1C141.5,74,141.6,75,141.3,76.1z"/>
					</g>
					<path class="st4" d="M111.9,90.2c0,0.2-0.1,0.4-0.1,0.6c-0.5,2.1-1.2,4.2-2.1,6.2c-0.3,0.7-1,1.4-1.5,0.9
						c-0.2-0.2-0.2-0.6-0.2-0.9c0.2-2.4,0.2-4.7,0.1-7.1c-0.1-2.2-0.2-4.4-0.5-6.6c-0.1-0.7-0.2-1.4-0.3-2.1c2.2-2.4,4-5.1,5.3-8
						c0,0.4,0.1,0.7,0.1,1.1c0.1,1.1,0.2,2.1,0.3,3.2C113.3,81.8,112.9,86.1,111.9,90.2z"/>
					<path class="st3" d="M104.5,117.6c-0.7-1.5-1.7-2.9-2.4-4.4c-0.6-1.2-1-2.5-1.1-3.9c-0.1-1.2,0.3-2.7,1.9-2.5
						c1.5,0.2,2.3,1.7,2.8,3.1c0.5,1.4,1,3,2.3,3.6c0.3,0.1,0.6,0.2,0.8,0.4c0.3,0.2,0.4,0.6,0.5,1c0.1,0.5,0.2,0.9,0.3,1.4
						c0.3,2.2,0.1,4.5-0.6,6.6c-0.3,1.1-0.8,2.1-1.4,3c-0.3,0.6-0.4,1.8-1.4,1.5c0-0.8,0.2-1.6,0.2-2.4c0-0.8-0.1-1.6-0.2-2.4
						c-0.2-1.6-0.7-3.1-1.3-4.5C104.7,118,104.6,117.8,104.5,117.6z"/>
				</g>
				<g>
					<path class="st5" d="M132.9,122.3c0.5-5.3,0.7-10.6,0.4-16c-0.1-2.7-0.2-5.3-0.7-8c-0.2-1.3-0.6-2.6-1.1-3.8
						c-0.5-1.2-1.1-2.4-1.9-3.5c0.9,1,1.6,2.2,2.2,3.4c0.6,1.2,1,2.5,1.4,3.8c0.7,2.6,1,5.3,1.3,8c0.6,5.4,0.8,10.8,0.7,16.2
						L132.9,122.3z"/>
					<g>
						<path class="st5" d="M138.2,142.3c-1.4,4.8-5.6,8.4-7.6,13c-0.5,1.2-1.3,2.7-2.6,2.4c-0.1,0.1-0.1,0.3-0.2,0.4
							c-0.5,1.3-0.4,2.6-0.4,3.9c0,0.9,0,1.9-0.3,2.8c-0.5,1.7-2.8,2.2-4.6,2.1c-8.8-0.3-16.1-6.1-24-10c-4-2-8.3-3.5-12.7-4.6
							c-2.4-0.6-4.9-1.1-7.4-1.4c-1.2-0.2-2.5-0.3-3.7-0.4c-0.6-0.1-1.2-0.1-1.7-0.1c-0.6,0-7.1-1.5-7.1-1.4
							c0.7-3.2,1.1-5.8,0.8-8.9c0-0.4-0.1-0.8-0.2-1.3c-0.1-0.7-0.3-1.4-0.4-2.1c-0.1-0.4-0.1-0.8-0.2-1.2c-0.1-1.1-0.2-2.2-0.3-3.4
							c-0.1-2.4-0.1-4.8,0.1-7.2c0.2-1.7,0.4-3.5,1-5.1c0.1-0.3,0.2-0.7,0.4-1c0.7-1.6,1.7-3,2.8-4.3c2.9-3.4,6.5-6.2,10-9
							c3-2.4,6-4.7,9.1-7.1c0.9-0.7,2.1-1.5,3.2-1.1c-1.9,3.6-2.2,8.2-1.1,12.1c0.9,3.5,3.5,6.5,6.4,8.7c1.6,1.2,3.2,2.2,5,3.1
							c1.8,0.9,3.8,1.5,5.7,2.2c0.1,0,0.2,0.1,0.3,0.1c0.5,0.2,1,0.3,1.6,0.5c2,0.3,4,0.9,6,1.2c3.4,0.6,6.9,1.1,10.2,0.3
							c3.3-0.8,6.5-3.3,6.7-6.6c0.1-0.6,0-1.3,0.5-1.8c0.1-0.1,0.2-0.2,0.3-0.2c0.3-0.1,0.6-0.1,0.9,0.1c0.2,0.2,0.4,0.4,0.5,0.7
							c0.3,0.9,0.7,1.8,0.9,2.8c0.7,2.8,1.5,5.5,2,8.3c0.1,0.7,0.2,1.3,0.3,2c0.2,1.4,0.3,2.9,0.4,4.3
							C138.9,137.5,138.9,140,138.2,142.3z"/>
						<path class="st6" d="M138.2,142.3c-1.4,4.8-5.6,8.4-7.6,13c-0.5,1.2-1.3,2.7-2.6,2.4c-0.1,0.1-0.1,0.3-0.2,0.4
							c-0.5,1.3-0.4,2.6-0.4,3.9c-3.9,1-8.1,1.6-12,0.9c-4-0.7-7.5-2.7-11-4.7c-4-2.3-8.1-4.5-12.1-6.8c-3.8-2.1-7.7-4.3-11.8-5.8
							c-3.6-1.3-7.4-2.1-10.8-3.8c-1-0.5-2-1.1-2.9-1.8c0-0.4-0.1-0.8-0.2-1.3c-0.1-0.7-0.3-1.4-0.4-2.1c-0.1-0.4-0.1-0.8-0.2-1.2
							c0.5-0.2,1-0.5,1.5-0.8c1.2-0.7,2.4-1.4,3.6-2.1c3.3-1.9,7.2-3,11-2.6c3.8,0.4,7.5,2.7,8.9,6.2c0.6,1.5,0.7,3.1,1.6,4.5
							c1.1,1.8,3.3,2.6,5.2,3.4c0.7,0.3,1.4,0.5,2.1,0.3c0.7-0.2,1.3-1,0.8-1.6c1.4,1.9,3,3.9,5.4,4.4c2,0.4,4.1-0.4,6.2-0.5
							c2.1-0.1,4.1,0.5,6.1,0.8c4.4,0.6,9-0.6,12.6-3.1c3.6-2.6,6.1-6.5,6.8-10.8c0.2-0.9,0.3-1.9,0.5-2.8c0.2,1.4,0.3,2.9,0.4,4.3
							C138.9,137.5,138.9,140,138.2,142.3z"/>
						<path class="st11" d="M128,157.7c-0.8,2-0.2,4.6-0.7,6.8c0,0.1-0.1,0.3-0.1,0.4c-0.5,1.7-2.8,2.2-4.6,2.1
							c-6.7-0.2-12.5-3.6-18.3-6.9c-1.9-1.1-3.7-2.1-5.6-3c-4-2-8.3-3.5-12.7-4.6c-0.9-0.2-1.9-0.4-2.8-0.6c-1.3-0.3-2.7-0.5-4-0.7
							c-0.2,0-0.5,0-0.7,0c-0.3,0-0.5,0-0.8-0.1c-0.6-0.1-1.3-0.1-2-0.2c-0.8,0-1.5,0-2.3,0c-0.6,0-1.1,0-1.7,0
							c-1.4-0.1-2.7-0.3-4.1-0.6c-0.5-0.1-1-0.2-1.4-0.5c-0.1,0-0.1-0.1-0.2-0.2c-0.1-0.2-0.2-0.4-0.2-0.6c0-0.1,0-0.2,0.1-0.3
							c0-0.1,0.1-0.1,0.1-0.1c0.1-0.2,0.1-0.4,0.2-0.6c0.3-1.5,0.5-3,0.6-4.5c0.1-1.5,0-3-0.3-4.5c-0.1-0.7-0.3-1.4-0.4-2.1
							c0.4,0.1,0.7,0.3,1.1,0.4c1.2,0.5,2.4,0.9,3.7,1.2c1.4,0.4,2.8,0.7,4.2,1.1c4.8,1.1,9.6,2.3,14.3,3.8c5.9,1.8,11.7,4.1,17,7.3
							c3.1,1.9,6.1,4,9.6,5.2c3.5,1.2,5.9,1.1,10.9,2C127.3,157.6,127.8,157.6,128,157.7z"/>
						<path class="st6" d="M128,157.7c-0.8,2-0.2,4.6-0.7,6.8c-0.3,0.2-0.6,0.4-0.9,0.3c-0.5-0.1-0.8-0.5-1.1-1
							c-1.4-2.3-3-4.7-5.6-5.7c-0.9-0.3-1.8-0.5-2.7-0.6c-1.5-0.3-3-0.6-4.4-1c-1-0.3-2-0.5-2.9-1.1c-1-0.7-1.7-1.8-2.5-2.7
							c-1.6-1.8-3.8-3-6.2-3.3c-1.5-0.2-2.9-0.1-4.4-0.2c-1.5-0.2-3-0.7-3.9-1.8c-0.5-0.7-0.8-1.6-1.3-2.3c-0.5-0.7-1.2-1.3-2-1.9
							c0,0,0,0,0,0c5.9,1.8,11.7,4.1,17,7.3c3.1,1.9,6.1,4,9.6,5.2c3.5,1.2,5.9,1.1,10.9,2C127.3,157.6,127.8,157.6,128,157.7z"/>
						<path class="st10" d="M85.7,111.9c0,0.6,0,1.1-0.2,1.6c-0.5,2.1-2.8,3.7-4.6,4.7c-1.9,1.1-3.8,2.3-4.7,4.2
							c-0.4,0.8-0.5,1.7-1.1,2.5c-0.8,1.1-2.3,1.5-3.5,2.2c-2,1.1-3.5,2.9-5.2,4.4c-0.2,0.2-0.5,0.4-0.7,0.6
							c-0.1-2.4-0.1-4.8,0.1-7.2c0.2-1.7,0.4-3.5,1-5.1c2.2-1.7,4.7-3,6.8-4.8c1-0.8,1.9-1.7,2.9-2.6c1-0.9,2.1-2.1,3.3-2.7
							c0.5-0.3,1.1-0.5,1.7-0.8c1.2-0.6,2.5-1.1,3.7-1.6C85.8,108.8,85.7,110.3,85.7,111.9z"/>
						<path class="st10" d="M134,122.5c-1.1,5.8-5.3,10.9-10.9,13.2c-1.9,0.8-3.9,1.3-5.9,1.8c-2.4,0.6-4.8,1.2-7.2,1.8
							c-1,0.3-2.1,0.5-3.1,0.2c-1-0.3-1.9-1.4-1.5-2.3c0.2-0.5,0.6-0.8,0.9-1.1c1.5-1.4,2.8-3,3.8-4.8c0.7-1.4,1.3-2.9,0.9-4.4
							c-0.3-1.3-1.4-2.3-2.4-3.2c0.5,0.2,1,0.3,1.6,0.5c2,0.3,4,0.9,6,1.2c3.4,0.6,6.9,1.1,10.2,0.3c3.3-0.8,6.5-3.3,6.7-6.6
							c0.1-0.6,0-1.3,0.5-1.8c0.1-0.1,0.2-0.2,0.3-0.2C134.4,118.7,134.4,120.7,134,122.5z"/>
						<path class="st5" d="M104.3,160c-1.9-1.1-3.7-2.1-5.6-3c-4-2-8.3-3.5-12.7-4.6c-0.9-0.2-1.9-0.4-2.8-0.6
							c-1.3-0.3-2.7-0.5-4-0.7c-0.2,0-0.5,0-0.7,0c-0.3,0-0.5,0-0.8-0.1c-0.6-0.1-1.3-0.1-2-0.2c-0.8,0-1.5,0-2.3,0
							c0.2-0.2,0.4-0.3,0.5-0.4c0.8-0.5,1.7-1,2.6-1.6c0.9-0.6,1.9-1.2,3-1.5c2.1-0.5,4.3,0.2,6.2,1.1c3.5,1.5,6.9,3.5,10.7,4
							c1.5,0.2,3.1,0.2,4.4,0.9c1.5,0.8,2.3,2.3,2.9,3.8C104.1,158,104.4,159,104.3,160z"/>
					</g>
					<path class="st5" d="M85.5,101.5c0.9-0.6,1.8-1.5,2.7-2.3c0.9-0.8,1.7-1.7,2.5-2.6c1.6-1.8,3.2-3.7,4.8-5.6l1.2-1.4
						c0.4-0.5,0.8-1,1.2-1.4c0.8-0.9,1.7-1.8,2.7-2.7c1-0.8,2-1.6,3-2.2c1.1-0.6,2.2-1.2,3.4-1.6c-1.1,0.5-2.2,1.2-3.2,1.9
						c-1,0.7-1.9,1.5-2.8,2.4c-0.8,0.9-1.6,1.8-2.3,2.8l-2.1,3c-1.4,2-2.9,4-4.5,6c-0.8,1-1.6,1.9-2.4,2.9c-0.9,0.9-1.7,1.9-2.8,2.7
						c-0.5,0.4-1.2,0.3-1.6-0.2C84.9,102.6,85,101.9,85.5,101.5C85.5,101.5,85.5,101.5,85.5,101.5L85.5,101.5z"/>
				</g>
			</g>
			<g>
				<path class="st10" d="M139.8,179.5c-0.1,1.6-0.3,3.3-0.6,4.9c-0.4,2.1-1.1,4.1-2,6.1c-2.5,5.1-6.8,9.2-11.7,12.1
					c-0.6,0.3-1.1,0.6-1.7,0.9c-3.5,2.2-7.1,4.4-10.9,6c-0.7,0.3-1.5,0.6-2.2,0.8c-4.8,1.7-10.2,2.2-15,0.4
					c-3.6-1.3-6.7-3.9-10.3-5.3c-1.7-0.7-3.6-1.1-5.3-1.8c-0.9-0.3-1.7-0.7-2.5-1.2c-0.4-0.2-0.8-0.5-1.1-0.8
					c-0.8-0.9-1.8-1.5-2.7-2.3c-0.3-0.3-0.8-0.6-0.9-1.1c0-0.2,0-0.4,0-0.6c0.1-1.5,0.1-3,0.1-4.5c0-1.3-0.2-2.6-0.3-3.9
					c0-0.2,0-0.5,0-0.7c0-0.1,0-0.1,0-0.2c0-0.6,0-1.2,0.3-1.8c0-0.1,0.1-0.2,0.2-0.2c0.2-0.1,0.6,0.3,0.7,0.4
					c0.2,0.2,0.4,0.3,0.6,0.5c0.4,0.4,0.7,0.8,1.1,1.2c0.7,0.8,1.3,1.7,1.9,2.6c0.5,0.7,1,1.4,1.5,2c1.3,1.6,3,3,4.8,4.1
					c1.8,1.1,3.9,1.8,6,2.2c0.5,0.1,1.1,0.2,1.6,0.2c0.3,0,0.7,0.1,1.1,0.1c0.4,0,0.8,0.1,1.2,0.1c0.8,0.1,1.6,0.1,2.4,0.2
					c1,0.1,2,0.2,3,0.2c5.1,0.3,10.3-0.5,15.1-2.3c0.9-0.3,1.7-0.8,2.6-1.1c0.2-0.1,0.5-0.3,0.7-0.4c0.5-0.3,0.9-0.6,1.4-0.9
					c2.7-1.9,5-4.3,7-6.8c0.5-0.7,1-1.3,1.5-2c0.5-0.7,1.1-1.4,1.3-2.1c0.1-0.3,0.3-0.5,0.4-0.7c0.8-1.2,1.4-2.4,1.9-3.7
					c0.6-1.4,1-2.8,1.4-4.3c0.2-0.7,0.3-1.5,0.5-2.2c0.1-0.8,0.4-1.7,0.1-2.5c0-0.1-0.1-0.2,0-0.3c0.1-0.1,0.2-0.1,0.4-0.1
					c0.4,0,0.8,0,1.2,0.1c1,0.4,1.3,1.6,2,2.4c0.3,0.3,0.7,0.6,1.1,0.8c0.2,0.1,0.4,0.2,0.7,0.2c0.2,0,0.4,0.2,0.6,0.3
					C140.3,175.9,139.9,177.9,139.8,179.5z"/>
				<path class="st6" d="M112.8,209.5c-0.7,0.3-1.5,0.6-2.2,0.8c-4.8,1.7-10.2,2.2-15,0.4c-3.6-1.3-6.7-3.9-10.3-5.3
					c-1.7-0.7-3.6-1.1-5.3-1.8c-0.9-0.3-1.7-0.7-2.5-1.2c-0.4-0.2-0.8-0.5-1.1-0.8c-0.8-0.9-1.8-1.5-2.7-2.3
					c-0.3-0.3-0.8-0.6-0.9-1.1c0-0.2,0-0.4,0-0.6c0.1-1.5,0.1-3,0.1-4.5c0-1.3-0.2-2.6-0.3-3.9c0-0.2,0-0.5,0-0.7c0,0,0.1,0,0.1,0
					c1.2,0.6,2.2,1.5,3,2.5c0.7,1,1.2,2.2,1.9,3.2c1,1.4,2.4,2.4,3.8,3.4c3.3,2.4,6.5,4.7,9.8,7.1c1.6,1.2,3.2,2.3,5,3.1
					C101.4,210.2,107.2,209.4,112.8,209.5z"/>
			</g>
		</g>
		<g>
			<path class="st0" d="M140.8,238.2c-0.1-0.3,0-0.6-0.1-0.8c0-0.1-0.1-0.1-0.1-0.2c-0.2-0.2-0.5-0.2-0.8-0.2c-0.1,0-0.2,0-0.4-0.1
				c-0.1,0-0.2,0-0.2-0.1c0,0-0.1,0-0.1,0c-0.1,0-0.2-0.1-0.2-0.2c-0.1-0.1-0.1-0.1-0.1-0.2c0,0,0,0,0-0.1c0,0,0-0.1-0.1-0.1
				c0,0,0-0.1,0-0.1c-0.1-0.2-0.1-0.4-0.1-0.6c0-0.3,0-0.7-0.1-1c-0.1-0.6-0.4-1.1-0.8-1.4c-0.2-0.2-0.5-0.4-0.7-0.5
				c-0.2-0.1-0.3-0.2-0.5-0.3c-0.1,0-0.2-0.1-0.2-0.1c-0.2-0.1-0.3-0.2-0.5-0.2c-0.1,0-0.2-0.1-0.2-0.1c-0.3-0.2-0.6-0.3-0.9-0.4
				c-0.4-0.1-0.9-0.2-1.3-0.2c-0.5,0-1-0.1-1.5-0.3c-0.3-0.1-0.6-0.2-0.9-0.4c-0.5-0.2-0.9-0.5-1.3-0.8c-0.1-0.1-0.2-0.2-0.3-0.2
				c-0.3-0.2-0.5-0.5-0.8-0.7c-0.3-0.2-0.5-0.5-0.8-0.7c-0.1-0.1-0.2-0.2-0.3-0.2c-0.1-0.1-0.2-0.1-0.3-0.2c-0.1,0-0.1-0.1-0.2-0.1
				c-0.1-0.1-0.2-0.1-0.3-0.2c-0.2-0.1-0.3-0.2-0.4-0.3c0,0-0.1-0.1-0.1-0.1c0,0-0.1-0.1-0.1-0.1c-0.1-0.1-0.3-0.2-0.4-0.2
				c0,0-0.1,0-0.1-0.1c0,0-0.1,0-0.1,0c-0.1,0-0.1,0-0.2-0.1c-0.2-0.1-0.5-0.1-0.7-0.2c-0.1,0-0.1,0-0.2,0c-0.1,0-0.2,0-0.3,0
				c-0.1,0-0.1,0-0.2,0c0,0-0.1,0-0.1,0l-0.2,0c-0.4,0-0.7,0-1.1,0c-1.2,0-2.5,0.3-3.6,0.8c-0.6,0.2-1.1,0.5-1.6,0.9
				c-0.2,0.2-0.5,0.4-0.7,0.5c-0.5,0.4-1,0.8-1.5,1.2c-0.3,0.2-0.6,0.4-0.9,0.6c-0.7,0.5-1.7,0.7-2.6,0.8c-3,0.4-6,0.3-8.9-0.5
				c-2.3-0.6-4.4-1.7-6.7-2.5c-3.7-1.2-7.5-1.8-11.4-2.1c0,0.1-0.1,0.1-0.1,0.2c0,0.3-0.1,0.5-0.3,0.7c-0.5,0.7-1,1.3-1.4,2
				c-2.6,4.5-4.4,9.3-5,14.4c10.2,1.3,20.3,2.7,30.5,4c3.1,0.4,6.3,0.8,9.4,0.5c3.3-0.3,6.5-1.5,9.8-1.9c3.1-0.4,6.3-0.1,9.3-0.6
				c2.3-0.4,4.7-1.4,6.2-3c0.1-0.1,0.1-0.1,0.2-0.2c0.1-0.1,0.1-0.1,0.2-0.2c0,0,0.1-0.1,0.1-0.1c0-0.1,0.1-0.1,0.1-0.2
				c0-0.1,0.1-0.1,0.1-0.2c0,0,0-0.1,0.1-0.1c0-0.1,0.1-0.1,0.1-0.2c0.1-0.1,0.1-0.2,0.2-0.3c0-0.1,0.1-0.2,0.1-0.2
				c0-0.1,0.1-0.2,0.1-0.3C144.4,239.2,141.1,239.5,140.8,238.2z"/>
			<path class="st4" d="M143.9,240.4c-0.3,0.6-0.6,1.2-1.1,1.7c-2.4,0-4.9-1.3-5.8-3.5c-0.2-0.5-0.4-1.1-0.8-1.5
				c-0.4-0.3-0.9-0.5-1.1-0.9c-0.2-0.4,0-0.8,0-1.3c0-1.3-1.2-2.3-2.6-2.5c-1.3-0.2-2.6,0.2-3.9,0.5c-1.3,0.3-2.7,0.6-3.9,0.1
				c-0.2-0.1-0.4-0.2-0.6-0.3c-0.6-0.7,0.5-1.7,0.3-2.5c-0.2-0.8-1.3-1.1-1.7-1.9c-0.3-0.6,0-1.5,0.6-1.9c1,0,2,0.2,2.8,0.8
				c0.4,0.3,0.8,0.5,1.2,0.8c0.8,0.6,1.5,1.3,2.2,1.9c1.1,0.9,2.4,1.4,3.8,1.5c0.4,0,0.9,0.1,1.3,0.2c0.3,0.1,0.6,0.2,0.9,0.4
				c1.2,0.7,2.7,1.3,2.9,2.8c0.1,0.8,0,1.8,0.7,2.2c0.5,0.3,1.4,0,1.6,0.6c0.1,0.2,0,0.5,0.1,0.8
				C141.1,239.5,144.4,239.2,143.9,240.4z"/>
			<path class="st1" d="M138.1,242.1c-2.1,0.4-4.1,1.1-6.3,1.2c-2.1,0.1-4.5-0.5-5.7-2.2c-0.7-1.1-1.3-2.8-2.7-2.7
				c-0.8,0-1.4,0.8-2.1,1.1c-1.4,0.7-3.1-0.1-4.7,0c-1.9,0.1-3.5,1.5-5.4,2c-1.9,0.5-3.9,0-5.9,0.3c-1.5,0.2-2.8,0.8-4.2,1.2
				c-2.1,0.5-4.4,0.5-6.6,0.4c-0.3,0-0.7,0-1,0c-2.8-0.1-5.6-0.2-8.4-0.5c-1.4-0.1-2.8-0.3-4.2-0.5c-1.1-0.2-2.1-0.4-3.2-0.5
				c-0.1,0.5-0.1,1-0.2,1.5c10.2,1.3,20.3,2.7,30.5,4c3.1,0.4,6.3,0.8,9.4,0.5c3.3-0.3,6.5-1.5,9.8-1.9c3.1-0.4,6.3-0.1,9.3-0.6
				c2.3-0.4,4.7-1.4,6.2-3C141.3,241.8,139.6,241.8,138.1,242.1z"/>
			<g>
				<path class="st0" d="M131.5,231.1c1-0.4,2-0.6,3-0.6c1.4-0.1,2.9,0.3,4.1,1.1c1,0.6,1.9,1.6,2.2,2.8c0.3,1.2-0.1,2.5-1.1,3.2
					c-0.6,0.4-1.4,0.5-2.1,0.6c-1.6,0.2-3.3,0.4-4.9,0.6c-0.3,0-0.5,0-0.7,0c-0.6-0.1-1.1,0.1-1.7,0.2c-1.4,0.1-2.8-0.1-4.1-0.6
					c-1.8-0.8-3.3-2.2-4.1-3.9c-0.4-0.9-0.7-2-0.2-2.9c0.4-0.9,1.7-1.4,2.5-0.8c0.2,0.2,0.3,0.4,0.5,0.5c0.6,0.6,1.6,0.5,2.4,0.5
					c0.7,0,1.3-0.1,2-0.2c0.6,0,1.3,0,1.9-0.2C131.2,231.2,131.4,231.1,131.5,231.1z"/>
				<path class="st0" d="M141.8,236.7c0.2,0.6-0.2,1.4,0.2,1.9c0.7,0.8,2.4-0.2,2.9,0.7c0.2,0.4-0.1,0.9,0,1.4
					c0.2,0.8,1.4,0.8,2,1.4c0.6,0.5,0.5,1.5,0,2.1s-1.2,0.9-1.9,1.2c-2.5,1-5.3,1.6-7.7,0.6c-2-0.8-3.4-2.4-5.1-3.6
					c-1.2-0.9-2.5-1.6-3.3-2.8c-0.8-1.2-1-3,0.1-3.9c0.4-0.4,1-0.5,1.5-0.6c1.9-0.4,3.7,0,5.4,0.7c0.6,0.2,1.2,0.5,1.9,0.4
					c0.8-0.1,1.5-0.4,2.3-0.4C140.7,235.7,141.6,236,141.8,236.7z"/>
			</g>
		</g>
		<path class="st11" d="M117.4,225.3c0.4,0.1,0.8,0.5,0.9,0.9c0.2,0.4,0.2,0.9,0.1,1.4c-0.3,0.9-1.1,1.6-1.9,2.1
			c-0.7,0.4-1.5,0.7-2.2,1c-2.2,0.7-4.5,0.8-6.8,0.7c-2-0.1-4-0.1-6-0.4c-5.3-0.8-10.4-2.4-15.4-4.2c-3.1-1.1-5.2-2-5.3-2
			c0.3,0.1,0.6,0.2,1,0.3c0.1,0,0.2,0,0.2,0l-1.2-0.3c-1-0.3-2-0.6-3-1c-4.2-1.3-8.4-2.7-12.7-3.8c-13.4-3.7-27.4-6.1-41-3.4
			c-0.4,0.5-1.8,0-1.5-0.6c1.2,0.5,2.7-0.2,3.2-1.4c0.1-0.3,0.2-0.7,0.5-1c0.2-0.2,0.5-0.2,0.8-0.3c2.7-0.4,5.4,0.8,8,0
			c0.8-0.2,1.5-0.6,2.3-0.9c2.6-1,5.5-0.6,8.2-0.3c4.1,0.5,8.2,1.1,12.2,2c10.2,2.5,19.7,7.7,30.2,8.8c1.2,0.1,2.4,0.2,3.5-0.1
			c0.7-0.2,1.4-0.5,2.1-0.8c2-0.6,4.1-0.3,6.2,0.1c4.7,0.8,9.4,1.7,14.1,2.5c0,0,0.1,0,0.1,0c0.7,0.1,1.3,0.2,2,0.4
			c0.3,0.1,0.6,0.1,1,0.2C117,225.3,117.2,225.3,117.4,225.3C117.4,225.3,117.4,225.3,117.4,225.3z"/>
		<path class="st6" d="M125.6,222.9c-0.5,0.7-1.2,1.3-1.9,1.8c-1.3,0.8-2.7,1.2-4.1,1.6c-3,0.8-6.2,1.5-9.2,0.7
			c-4.7-1.3-7.6-5.9-10.8-9.5c-2.5-2.8-5.5-5.2-8.8-7c-4.7-2.6-9.9-4-14.6-6.5c-1.5-0.8-3.1-2-3.1-3.7c0-0.6,0.2-1.2,0.4-1.8
			c1.5,1.4,3,2.7,4.8,3.8c2,1.2,4.1,2.2,6.3,2.9c2.2,0.7,4.5,1.3,6.8,1.6c0.3,0,0.6,0.1,0.9,0.1c0.9,0.1,2,0.3,2.4,1.1
			c0.2,0.4,0.2,1,0.4,1.4c0.3,0.8,1.2,1.3,1.9,1.8c1.8,1.2,2.9,3.1,4.5,4.6c2.5,2.3,6,3.5,9.4,3.4c1.6,0,3.1-0.3,4.7-0.3
			C119.1,219.1,122.4,220.9,125.6,222.9z"/>
	</g>
</g>
</svg>
